<svg width="12" height="12" viewBox="0 0 12 12" fill="none" xmlns="http://www.w3.org/2000/svg">
<g clip-path="url(#clip0_6314_6974)">
<path d="M3.72097 5.74797L0.720973 2.74797C0.640973 2.67597 0.548973 2.63997 0.444973 2.63997C0.340973 2.63997 0.248973 2.67597 0.168973 2.74797C0.0889732 2.81997 0.0509732 2.90997 0.0549732 3.01797C0.0589732 3.12597 0.0969732 3.21997 0.168973 3.29997L2.91697 6.04797L0.168973 8.79597C0.0969732 8.87597 0.0609732 8.96997 0.0609732 9.07797C0.0609732 9.18597 0.0969732 9.27597 0.168973 9.34797C0.192973 9.37197 0.228973 9.39397 0.276973 9.41397C0.324973 9.43397 0.372973 9.44397 0.420973 9.44397C0.468973 9.44397 0.516973 9.43397 0.564973 9.41397C0.612973 9.39397 0.648973 9.37197 0.672973 9.34797L3.67297 6.34797C3.85697 6.10797 3.87297 5.90797 3.72097 5.74797Z" fill="#9CA3AF"/>
</g>
<defs>
<clipPath id="clip0_6314_6974">
<rect width="11.69" height="12" fill="white" transform="matrix(1 0 0 -1 0.0507812 12)"/>
</clipPath>
</defs>
</svg>
