<svg width="36" height="37" viewBox="0 0 36 37" fill="none" xmlns="http://www.w3.org/2000/svg">
<rect x="0.5" y="1.10999" width="35" height="35" rx="5.5" stroke="#E5E7EB"/>
<g clip-path="url(#clip0_6314_7070)">
<path d="M15.7755 26.7139C15.9653 26.7869 16.1406 26.8234 16.3012 26.8234C16.4618 26.8234 16.6443 26.7796 16.8487 26.6919C19.039 25.8013 20.8423 24.6623 22.2586 23.2752C23.5436 22.0048 24.4489 20.6104 24.9745 19.0918C25.4418 17.6755 25.544 16.2956 25.2812 14.9523C25.1643 14.1054 24.8614 13.3388 24.3722 12.6525C23.8831 11.9662 23.2698 11.4223 22.5324 11.0208C21.795 10.6192 20.9956 10.4112 20.1341 10.3966C18.7323 10.4404 17.4474 10.8711 16.2793 11.6888L16.3012 11.6669C15.7463 11.2873 15.155 10.9879 14.5271 10.7689C13.87 10.5353 13.1983 10.4112 12.5121 10.3966H12.4902C11.6141 10.3966 10.8 10.601 10.0481 11.0098C9.29607 11.4187 8.6755 11.9699 8.18635 12.6635C7.69719 13.357 7.40151 14.1273 7.2993 14.9742V14.9961C7.03647 16.354 7.14598 17.7412 7.62784 19.1575C8.13889 20.6761 9.03689 22.0632 10.3218 23.319C11.7528 24.7061 13.5707 25.8378 15.7755 26.7139ZM9.00769 15.3684C9.06609 14.7844 9.25591 14.2514 9.57715 13.7695C9.89838 13.2877 10.3145 12.908 10.8256 12.6306C11.3366 12.3532 11.8915 12.2145 12.4902 12.2145C13.7751 12.3021 14.8921 12.7328 15.8412 13.5067H15.8193L16.3012 13.8572L16.8049 13.4848C17.2722 13.1052 17.7832 12.8131 18.3381 12.6087C18.9076 12.3751 19.4989 12.2437 20.1122 12.2145H20.1341C20.7182 12.2291 21.2621 12.3751 21.7658 12.6525C22.2696 12.93 22.6857 13.3059 23.0143 13.7805C23.3428 14.255 23.5363 14.7771 23.5947 15.3465V15.3684C23.7991 16.4343 23.6896 17.5441 23.2661 18.6976C22.8135 19.9241 22.0323 21.0557 20.9226 22.0924C19.7107 23.2606 18.1702 24.2243 16.3012 24.9836C14.4322 24.2535 12.8844 23.3044 11.6579 22.1363C10.5482 21.0995 9.76697 19.9606 9.31432 18.7195C8.89087 17.566 8.78866 16.4489 9.00769 15.3684Z" fill="#030712"/>
</g>
<defs>
<clipPath id="clip0_6314_7070">
<rect width="21.69" height="33" fill="white" transform="matrix(1 0 0 -1 7.16016 35.11)"/>
</clipPath>
</defs>
</svg>
