<svg width="37" height="37" viewBox="0 0 37 37" fill="none" xmlns="http://www.w3.org/2000/svg">
<rect x="1.12891" y="1.10999" width="35" height="35" rx="5.5" stroke="#E5E7EB"/>
<g clip-path="url(#clip0_6314_7074)">
<path d="M3.01306 18.338C3.30773 18.338 3.5684 18.2303 3.79506 18.015C4.02173 17.7997 4.13506 17.522 4.13506 17.182V15.788C4.13506 14.9493 4.34473 14.1843 4.76406 13.493C5.1834 12.8017 5.7444 12.252 6.44706 11.844C7.14973 11.436 7.89773 11.232 8.69106 11.232H25.9631L22.1551 15.074C21.9284 15.278 21.8151 15.533 21.8151 15.839C21.8151 16.145 21.9284 16.4113 22.1551 16.638C22.3364 16.8193 22.5631 16.91 22.8351 16.91C22.9711 16.91 23.1071 16.8817 23.2431 16.825C23.3791 16.7683 23.4811 16.706 23.5491 16.638L29.2271 10.96C29.2724 10.9147 29.3177 10.858 29.3631 10.79C29.4084 10.722 29.4537 10.688 29.4991 10.688C29.6351 10.3933 29.6351 10.11 29.4991 9.83799C29.4991 9.74732 29.4707 9.67365 29.4141 9.61699C29.3574 9.56032 29.2951 9.53199 29.2271 9.53199L23.5491 3.88799C23.3451 3.66132 23.0901 3.54799 22.7841 3.54799C22.4781 3.54799 22.2117 3.66132 21.9851 3.88799C21.7584 4.11465 21.6507 4.37532 21.6621 4.66998C21.6734 4.96465 21.7811 5.21399 21.9851 5.41799L25.8271 9.25998H8.69106C7.46706 9.25998 6.33373 9.56032 5.29106 10.161C4.2484 10.7617 3.42106 11.5833 2.80906 12.626C2.19706 13.6687 1.89106 14.8133 1.89106 16.06V17.488C1.89106 17.6467 2.01006 17.828 2.24806 18.032C2.48606 18.236 2.74106 18.338 3.01306 18.338ZM28.5131 19.018C28.2184 19.018 27.9577 19.1257 27.7311 19.341C27.5044 19.5563 27.3911 19.834 27.3911 20.174V21.568C27.3911 22.4067 27.1814 23.1717 26.7621 23.863C26.3427 24.5543 25.7817 25.104 25.0791 25.512C24.3764 25.92 23.6284 26.124 22.8351 26.124H5.56306L9.40506 22.282C9.60906 22.078 9.71106 21.823 9.71106 21.517C9.71106 21.211 9.60906 20.9447 9.40506 20.718C9.20106 20.4913 8.9404 20.3837 8.62306 20.395C8.30573 20.4063 8.04506 20.514 7.84106 20.718L2.16306 26.396C2.11773 26.4413 2.0724 26.498 2.02706 26.566C1.98173 26.634 1.9364 26.668 1.89106 26.668C1.75506 26.9627 1.75506 27.246 1.89106 27.518C1.89106 27.6087 1.9194 27.6823 1.97606 27.739C2.03273 27.7957 2.09506 27.824 2.16306 27.824L7.84106 33.502C8.0224 33.6833 8.25473 33.774 8.53806 33.774C8.8214 33.774 9.05373 33.6833 9.23506 33.502C9.46173 33.2753 9.57506 33.009 9.57506 32.703C9.57506 32.397 9.46173 32.142 9.23506 31.938L5.42706 28.096H22.8351C24.0591 28.096 25.1924 27.7957 26.2351 27.195C27.2777 26.5943 28.1051 25.7727 28.7171 24.73C29.3291 23.6873 29.6351 22.5427 29.6351 21.296V19.868C29.6351 19.664 29.5217 19.4713 29.2951 19.29C29.0684 19.1087 28.8077 19.018 28.5131 19.018Z" fill="#030712"/>
</g>
<defs>
<clipPath id="clip0_6314_7074">
<rect width="34" height="34" fill="white" transform="matrix(1 0 0 -1 1.62891 35.61)"/>
</clipPath>
</defs>
</svg>
