<svg width="37" height="37" viewBox="0 0 37 37" fill="none" xmlns="http://www.w3.org/2000/svg">
<rect x="1.46875" y="1.10999" width="35" height="35" rx="5.5" stroke="#E5E7EB"/>
<path d="M25.3549 20.222C25.1642 20.222 24.9956 20.288 24.8489 20.42C24.7022 20.552 24.6289 20.728 24.6289 20.948V24.622C24.6289 24.93 24.5152 25.1903 24.2879 25.403C24.0606 25.6157 23.8076 25.722 23.5289 25.722H10.6809C10.3729 25.722 10.1126 25.6083 9.89991 25.381C9.68724 25.1537 9.58091 24.9007 9.58091 24.622V20.948C9.58091 20.7573 9.51491 20.5887 9.38291 20.442C9.25091 20.2953 9.07491 20.222 8.85491 20.222C8.63491 20.222 8.45891 20.2807 8.32691 20.398C8.19491 20.5153 8.12891 20.6693 8.12891 20.86V24.534C8.12891 24.9887 8.24257 25.4103 8.46991 25.799C8.69724 26.1877 9.00524 26.4993 9.39391 26.734C9.78257 26.9687 10.2116 27.086 10.6809 27.086H23.5289C23.9836 27.086 24.4052 26.9723 24.7939 26.745C25.1826 26.5177 25.4942 26.2097 25.7289 25.821C25.9636 25.4323 26.0809 25.0033 26.0809 24.534V20.86C26.0809 20.684 26.0076 20.5337 25.8609 20.409C25.7142 20.2843 25.5456 20.222 25.3549 20.222ZM12.9909 14.898L16.3789 11.51V20.86C16.3789 21.0507 16.4449 21.2193 16.5769 21.366C16.7089 21.5127 16.8886 21.586 17.1159 21.586C17.3432 21.586 17.5192 21.5237 17.6439 21.399C17.7686 21.2743 17.8309 21.0947 17.8309 20.86V11.51L21.2409 14.898C21.3582 15.0153 21.5049 15.074 21.6809 15.074C21.7689 15.074 21.8569 15.0557 21.9449 15.019C22.0329 14.9823 22.0989 14.942 22.1429 14.898C22.2896 14.766 22.3629 14.601 22.3629 14.403C22.3629 14.205 22.2896 14.0327 22.1429 13.886L17.5669 9.31C17.5376 9.28066 17.5009 9.25133 17.4569 9.222C17.4129 9.19267 17.3909 9.16333 17.3909 9.134C17.2002 9.03133 17.0169 9.03133 16.8409 9.134C16.7822 9.134 16.7346 9.15233 16.6979 9.189C16.6612 9.22567 16.6429 9.266 16.6429 9.31L12.0669 13.886C11.9202 14.0327 11.8469 14.205 11.8469 14.403C11.8469 14.601 11.9202 14.766 12.0669 14.898C12.2136 15.03 12.3676 15.0997 12.5289 15.107C12.6902 15.1143 12.8442 15.0447 12.9909 14.898Z" fill="#030712"/>
</svg>
