<svg width="15" height="15" viewBox="0 0 15 15" fill="none" xmlns="http://www.w3.org/2000/svg">
<g clip-path="url(#clip0_6314_7062)">
<path d="M8.12286 1.35206C7.70286 1.35206 7.3132 1.45706 6.95386 1.66706C6.59453 1.87706 6.30986 2.16173 6.09986 2.52106C5.88986 2.8804 5.78486 3.27006 5.78486 3.69006H4.59486C4.59486 3.0554 4.7512 2.46973 5.06386 1.93306C5.37653 1.3964 5.8012 0.971729 6.33786 0.659063C6.87453 0.346396 7.4602 0.190063 8.09486 0.190063C8.72953 0.190063 9.3152 0.346396 9.85186 0.659063C10.3885 0.971729 10.8132 1.3964 11.1259 1.93306C11.4385 2.46973 11.5949 3.0554 11.5949 3.69006H13.8909C14.2269 3.69006 14.5115 3.80906 14.7449 4.04706C14.9782 4.28506 15.0949 4.57673 15.0949 4.92206C15.0949 4.99673 15.0902 5.06673 15.0809 5.13206L13.7789 12.6641C13.7042 13.1027 13.4989 13.4667 13.1629 13.7561C12.8269 14.0454 12.4395 14.1901 12.0009 14.1901H4.18886C3.7502 14.1901 3.36286 14.0454 3.02686 13.7561C2.69086 13.4667 2.48553 13.1027 2.41086 12.6641L1.10886 5.14606C1.05286 4.81006 1.12053 4.50206 1.31186 4.22206C1.5032 3.94206 1.7622 3.7694 2.08886 3.70406C2.1542 3.69473 2.2242 3.69006 2.29886 3.69006H10.4609C10.4609 3.27006 10.3559 2.8804 10.1459 2.52106C9.93586 2.16173 9.6512 1.87706 9.29186 1.66706C8.93253 1.45706 8.54286 1.35206 8.12286 1.35206ZM13.8909 4.85206H2.29886C2.28953 4.85206 2.27553 4.87073 2.25686 4.90806V4.93606L3.55886 12.4681C3.58686 12.6174 3.6522 12.7434 3.75486 12.8461C3.85753 12.9487 3.97886 13.0047 4.11886 13.0141L4.18886 13.0281H12.0009C12.1409 13.0281 12.2692 12.9837 12.3859 12.8951C12.5025 12.8064 12.5795 12.6874 12.6169 12.5381L13.9329 4.92206C13.9329 4.88473 13.9235 4.86606 13.9049 4.86606L13.8909 4.85206Z" fill="white"/>
</g>
<defs>
<clipPath id="clip0_6314_7062">
<rect width="14" height="14" fill="white" transform="matrix(1 0 0 -1 0.96875 14.1901)"/>
</clipPath>
</defs>
</svg>
