<svg width="31" height="18" viewBox="0 0 31 18" fill="none" xmlns="http://www.w3.org/2000/svg">
<g clip-path="url(#clip0_6314_1575)">
<path d="M27.5662 17.487C27.5662 17.485 27.545 17.4831 27.5026 17.4815C27.4602 17.4798 27.4135 17.479 27.3626 17.479L23.1115 17.312C22.9418 17.306 22.7466 17.303 22.526 17.303C22.3054 17.303 22.1102 17.306 21.9405 17.312C21.7708 17.318 21.6902 17.3256 21.6987 17.335C21.7072 17.3443 21.7878 17.352 21.9405 17.358L24.817 17.471H5.59786C5.37724 17.471 5.18208 17.474 5.01237 17.48C4.84267 17.486 4.75781 17.4941 4.75781 17.5045C4.75781 17.5148 4.83418 17.5228 4.98692 17.5285C5.13965 17.5341 5.3433 17.537 5.59786 17.537H24.9188L22.0423 17.65C21.8896 17.656 21.8132 17.6635 21.8132 17.6725C21.8132 17.6815 21.8896 17.6893 22.0423 17.696C22.0932 17.698 22.1696 17.6998 22.2714 17.7015C22.3733 17.7031 22.4751 17.704 22.5769 17.704C22.6787 17.704 22.7806 17.7031 22.8824 17.7015C22.9842 17.6998 23.0606 17.698 23.1115 17.696L27.3626 17.529C27.3965 17.5276 27.4305 17.526 27.4644 17.524C27.4984 17.522 27.5323 17.521 27.5662 17.521C27.6172 17.5123 27.6426 17.5056 27.6426 17.501C27.6426 17.4963 27.6172 17.4916 27.5662 17.487Z" fill="white"/>
</g>
<defs>
<clipPath id="clip0_6314_1575">
<rect width="25.4558" height="1" fill="white" transform="matrix(1 0 0 -1 4.55859 18)"/>
</clipPath>
</defs>
</svg>
