<svg width="67" height="12" viewBox="0 0 67 12" fill="none" xmlns="http://www.w3.org/2000/svg">
<g clip-path="url(#clip0_6314_4497)">
<g clip-path="url(#clip1_6314_4497)">
<path d="M6.29346 0.445058C6.2348 0.327724 6.15046 0.234224 6.04046 0.164557C5.93046 0.0948906 5.80946 0.0600576 5.67746 0.0600576C5.54546 0.0600576 5.42263 0.0948906 5.30896 0.164557C5.19529 0.234224 5.10913 0.327724 5.05046 0.445058L3.67546 3.29406L0.584462 3.74506C0.459795 3.75972 0.346128 3.80922 0.243462 3.89356C0.140795 3.97789 0.0711285 4.08239 0.0344618 4.20706C-0.00220486 4.33172 -0.00587153 4.45822 0.0234618 4.58656C0.0527951 4.71489 0.115128 4.82306 0.210462 4.91106L2.44346 7.13306L1.91546 10.2571C1.89346 10.3891 1.90813 10.5137 1.95946 10.6311C2.0108 10.7484 2.0878 10.8474 2.19046 10.9281C2.29313 11.0087 2.41046 11.0527 2.54246 11.0601C2.67446 11.0674 2.79913 11.0417 2.91646 10.9831L5.67746 9.50906L8.43846 10.9831C8.55579 11.0417 8.67863 11.0674 8.80696 11.0601C8.9353 11.0527 9.05446 11.0106 9.16446 10.9336C9.27446 10.8566 9.3533 10.7576 9.40096 10.6366C9.44863 10.5156 9.46146 10.3891 9.43946 10.2571L8.90046 7.13306L11.1445 4.91106C11.2398 4.82306 11.3021 4.71489 11.3315 4.58656C11.3608 4.45822 11.3535 4.33172 11.3095 4.20706C11.2655 4.08239 11.1958 3.97789 11.1005 3.89356C11.0051 3.80922 10.8915 3.75972 10.7595 3.74506L7.67946 3.29406L6.29346 0.445058Z" fill="#D1D5DB"/>
<path d="M19.6685 0.445058C19.6098 0.327724 19.5255 0.234224 19.4155 0.164557C19.3055 0.0948906 19.1845 0.0600576 19.0525 0.0600576C18.9205 0.0600576 18.7976 0.0948906 18.684 0.164557C18.5703 0.234224 18.4841 0.327724 18.4255 0.445058L17.0505 3.29406L13.9595 3.74506C13.8348 3.75972 13.7211 3.80922 13.6185 3.89356C13.5158 3.97789 13.4461 4.08239 13.4095 4.20706C13.3728 4.33172 13.3691 4.45822 13.3985 4.58656C13.4278 4.71489 13.4901 4.82306 13.5855 4.91106L15.8185 7.13306L15.2905 10.2571C15.2685 10.3891 15.2831 10.5137 15.3345 10.6311C15.3858 10.7484 15.4628 10.8474 15.5655 10.9281C15.6681 11.0087 15.7855 11.0527 15.9175 11.0601C16.0495 11.0674 16.1741 11.0417 16.2915 10.9831L19.0525 9.50906L21.8135 10.9831C21.9308 11.0417 22.0536 11.0674 22.182 11.0601C22.3103 11.0527 22.4295 11.0106 22.5395 10.9336C22.6495 10.8566 22.7283 10.7576 22.776 10.6366C22.8236 10.5156 22.8365 10.3891 22.8145 10.2571L22.2755 7.13306L24.5195 4.91106C24.6148 4.82306 24.6771 4.71489 24.7065 4.58656C24.7358 4.45822 24.7285 4.33172 24.6845 4.20706C24.6405 4.08239 24.5708 3.97789 24.4755 3.89356C24.3801 3.80922 24.2665 3.75972 24.1345 3.74506L21.0545 3.29406L19.6685 0.445058Z" fill="#D1D5DB"/>
<path d="M33.0435 0.445058C32.9848 0.327724 32.9005 0.234224 32.7905 0.164557C32.6805 0.0948906 32.5595 0.0600576 32.4275 0.0600576C32.2955 0.0600576 32.1726 0.0948906 32.059 0.164557C31.9453 0.234224 31.8591 0.327724 31.8005 0.445058L30.4255 3.29406L27.3345 3.74506C27.2098 3.75972 27.0961 3.80922 26.9935 3.89356C26.8908 3.97789 26.8211 4.08239 26.7845 4.20706C26.7478 4.33172 26.7441 4.45822 26.7735 4.58656C26.8028 4.71489 26.8651 4.82306 26.9605 4.91106L29.1935 7.13306L28.6655 10.2571C28.6435 10.3891 28.6581 10.5137 28.7095 10.6311C28.7608 10.7484 28.8378 10.8474 28.9405 10.9281C29.0431 11.0087 29.1605 11.0527 29.2925 11.0601C29.4245 11.0674 29.5491 11.0417 29.6665 10.9831L32.4275 9.50906L35.1885 10.9831C35.3058 11.0417 35.4286 11.0674 35.557 11.0601C35.6853 11.0527 35.8045 11.0106 35.9145 10.9336C36.0245 10.8566 36.1033 10.7576 36.151 10.6366C36.1986 10.5156 36.2115 10.3891 36.1895 10.2571L35.6505 7.13306L37.8945 4.91106C37.9898 4.82306 38.0521 4.71489 38.0815 4.58656C38.1108 4.45822 38.1035 4.33172 38.0595 4.20706C38.0155 4.08239 37.9458 3.97789 37.8505 3.89356C37.7551 3.80922 37.6415 3.75972 37.5095 3.74506L34.4295 3.29406L33.0435 0.445058Z" fill="#D1D5DB"/>
<path d="M46.4185 0.445058C46.3598 0.327724 46.2755 0.234224 46.1655 0.164557C46.0555 0.0948906 45.9345 0.0600576 45.8025 0.0600576C45.6705 0.0600576 45.5476 0.0948906 45.434 0.164557C45.3203 0.234224 45.2341 0.327724 45.1755 0.445058L43.8005 3.29406L40.7095 3.74506C40.5848 3.75972 40.4711 3.80922 40.3685 3.89356C40.2658 3.97789 40.1961 4.08239 40.1595 4.20706C40.1228 4.33172 40.1191 4.45822 40.1485 4.58656C40.1778 4.71489 40.2401 4.82306 40.3355 4.91106L42.5685 7.13306L42.0405 10.2571C42.0185 10.3891 42.0331 10.5137 42.0845 10.6311C42.1358 10.7484 42.2128 10.8474 42.3155 10.9281C42.4181 11.0087 42.5355 11.0527 42.6675 11.0601C42.7995 11.0674 42.9241 11.0417 43.0415 10.9831L45.8025 9.50906L48.5635 10.9831C48.6808 11.0417 48.8036 11.0674 48.932 11.0601C49.0603 11.0527 49.1795 11.0106 49.2895 10.9336C49.3995 10.8566 49.4783 10.7576 49.526 10.6366C49.5736 10.5156 49.5865 10.3891 49.5645 10.2571L49.0255 7.13306L51.2695 4.91106C51.3648 4.82306 51.4271 4.71489 51.4565 4.58656C51.4858 4.45822 51.4785 4.33172 51.4345 4.20706C51.3905 4.08239 51.3208 3.97789 51.2255 3.89356C51.1301 3.80922 51.0165 3.75972 50.8845 3.74506L47.8045 3.29406L46.4185 0.445058Z" fill="#D1D5DB"/>
<path d="M59.7935 0.445058C59.7348 0.327724 59.6505 0.234224 59.5405 0.164557C59.4305 0.0948906 59.3095 0.0600576 59.1775 0.0600576C59.0455 0.0600576 58.9226 0.0948906 58.809 0.164557C58.6953 0.234224 58.6091 0.327724 58.5505 0.445058L57.1755 3.29406L54.0845 3.74506C53.9598 3.75972 53.8461 3.80922 53.7435 3.89356C53.6408 3.97789 53.5711 4.08239 53.5345 4.20706C53.4978 4.33172 53.4941 4.45822 53.5235 4.58656C53.5528 4.71489 53.6151 4.82306 53.7105 4.91106L55.9435 7.13306L55.4155 10.2571C55.3935 10.3891 55.4081 10.5137 55.4595 10.6311C55.5108 10.7484 55.5878 10.8474 55.6905 10.9281C55.7931 11.0087 55.9105 11.0527 56.0425 11.0601C56.1745 11.0674 56.2991 11.0417 56.4165 10.9831L59.1775 9.50906L61.9385 10.9831C62.0558 11.0417 62.1786 11.0674 62.307 11.0601C62.4353 11.0527 62.5545 11.0106 62.6645 10.9336C62.7745 10.8566 62.8533 10.7576 62.901 10.6366C62.9486 10.5156 62.9615 10.3891 62.9395 10.2571L62.4005 7.13306L64.6445 4.91106C64.7398 4.82306 64.8021 4.71489 64.8315 4.58656C64.8608 4.45822 64.8535 4.33172 64.8095 4.20706C64.7655 4.08239 64.6958 3.97789 64.6005 3.89356C64.5051 3.80922 64.3915 3.75972 64.2595 3.74506L61.1795 3.29406L59.7935 0.445058Z" fill="#D1D5DB"/>
</g>
<g clip-path="url(#clip2_6314_4497)">
<g clip-path="url(#clip3_6314_4497)">
<path d="M6.29346 0.445058C6.2348 0.327724 6.15046 0.234224 6.04046 0.164557C5.93046 0.0948906 5.80946 0.0600576 5.67746 0.0600576C5.54546 0.0600576 5.42263 0.0948906 5.30896 0.164557C5.19529 0.234224 5.10913 0.327724 5.05046 0.445058L3.67546 3.29406L0.584462 3.74506C0.459795 3.75972 0.346128 3.80922 0.243462 3.89356C0.140795 3.97789 0.0711285 4.08239 0.0344618 4.20706C-0.00220486 4.33172 -0.00587153 4.45822 0.0234618 4.58656C0.0527951 4.71489 0.115128 4.82306 0.210462 4.91106L2.44346 7.13306L1.91546 10.2571C1.89346 10.3891 1.90813 10.5137 1.95946 10.6311C2.0108 10.7484 2.0878 10.8474 2.19046 10.9281C2.29313 11.0087 2.41046 11.0527 2.54246 11.0601C2.67446 11.0674 2.79913 11.0417 2.91646 10.9831L5.67746 9.50906L8.43846 10.9831C8.55579 11.0417 8.67863 11.0674 8.80696 11.0601C8.9353 11.0527 9.05446 11.0106 9.16446 10.9336C9.27446 10.8566 9.3533 10.7576 9.40096 10.6366C9.44863 10.5156 9.46146 10.3891 9.43946 10.2571L8.90046 7.13306L11.1445 4.91106C11.2398 4.82306 11.3021 4.71489 11.3315 4.58656C11.3608 4.45822 11.3535 4.33172 11.3095 4.20706C11.2655 4.08239 11.1958 3.97789 11.1005 3.89356C11.0051 3.80922 10.8915 3.75972 10.7595 3.74506L7.67946 3.29406L6.29346 0.445058Z" fill="#FACC15"/>
<path d="M19.6685 0.445058C19.6098 0.327724 19.5255 0.234224 19.4155 0.164557C19.3055 0.0948906 19.1845 0.0600576 19.0525 0.0600576C18.9205 0.0600576 18.7976 0.0948906 18.684 0.164557C18.5703 0.234224 18.4841 0.327724 18.4255 0.445058L17.0505 3.29406L13.9595 3.74506C13.8348 3.75972 13.7211 3.80922 13.6185 3.89356C13.5158 3.97789 13.4461 4.08239 13.4095 4.20706C13.3728 4.33172 13.3691 4.45822 13.3985 4.58656C13.4278 4.71489 13.4901 4.82306 13.5855 4.91106L15.8185 7.13306L15.2905 10.2571C15.2685 10.3891 15.2831 10.5137 15.3345 10.6311C15.3858 10.7484 15.4628 10.8474 15.5655 10.9281C15.6681 11.0087 15.7855 11.0527 15.9175 11.0601C16.0495 11.0674 16.1741 11.0417 16.2915 10.9831L19.0525 9.50906L21.8135 10.9831C21.9308 11.0417 22.0536 11.0674 22.182 11.0601C22.3103 11.0527 22.4295 11.0106 22.5395 10.9336C22.6495 10.8566 22.7283 10.7576 22.776 10.6366C22.8236 10.5156 22.8365 10.3891 22.8145 10.2571L22.2755 7.13306L24.5195 4.91106C24.6148 4.82306 24.6771 4.71489 24.7065 4.58656C24.7358 4.45822 24.7285 4.33172 24.6845 4.20706C24.6405 4.08239 24.5708 3.97789 24.4755 3.89356C24.3801 3.80922 24.2665 3.75972 24.1345 3.74506L21.0545 3.29406L19.6685 0.445058Z" fill="#FACC15"/>
<path d="M33.0435 0.445058C32.9848 0.327724 32.9005 0.234224 32.7905 0.164557C32.6805 0.0948906 32.5595 0.0600576 32.4275 0.0600576C32.2955 0.0600576 32.1726 0.0948906 32.059 0.164557C31.9453 0.234224 31.8591 0.327724 31.8005 0.445058L30.4255 3.29406L27.3345 3.74506C27.2098 3.75972 27.0961 3.80922 26.9935 3.89356C26.8908 3.97789 26.8211 4.08239 26.7845 4.20706C26.7478 4.33172 26.7441 4.45822 26.7735 4.58656C26.8028 4.71489 26.8651 4.82306 26.9605 4.91106L29.1935 7.13306L28.6655 10.2571C28.6435 10.3891 28.6581 10.5137 28.7095 10.6311C28.7608 10.7484 28.8378 10.8474 28.9405 10.9281C29.0431 11.0087 29.1605 11.0527 29.2925 11.0601C29.4245 11.0674 29.5491 11.0417 29.6665 10.9831L32.4275 9.50906L35.1885 10.9831C35.3058 11.0417 35.4286 11.0674 35.557 11.0601C35.6853 11.0527 35.8045 11.0106 35.9145 10.9336C36.0245 10.8566 36.1033 10.7576 36.151 10.6366C36.1986 10.5156 36.2115 10.3891 36.1895 10.2571L35.6505 7.13306L37.8945 4.91106C37.9898 4.82306 38.0521 4.71489 38.0815 4.58656C38.1108 4.45822 38.1035 4.33172 38.0595 4.20706C38.0155 4.08239 37.9458 3.97789 37.8505 3.89356C37.7551 3.80922 37.6415 3.75972 37.5095 3.74506L34.4295 3.29406L33.0435 0.445058Z" fill="#FACC15"/>
<path d="M46.4185 0.445058C46.3598 0.327724 46.2755 0.234224 46.1655 0.164557C46.0555 0.0948906 45.9345 0.0600576 45.8025 0.0600576C45.6705 0.0600576 45.5476 0.0948906 45.434 0.164557C45.3203 0.234224 45.2341 0.327724 45.1755 0.445058L43.8005 3.29406L40.7095 3.74506C40.5848 3.75972 40.4711 3.80922 40.3685 3.89356C40.2658 3.97789 40.1961 4.08239 40.1595 4.20706C40.1228 4.33172 40.1191 4.45822 40.1485 4.58656C40.1778 4.71489 40.2401 4.82306 40.3355 4.91106L42.5685 7.13306L42.0405 10.2571C42.0185 10.3891 42.0331 10.5137 42.0845 10.6311C42.1358 10.7484 42.2128 10.8474 42.3155 10.9281C42.4181 11.0087 42.5355 11.0527 42.6675 11.0601C42.7995 11.0674 42.9241 11.0417 43.0415 10.9831L45.8025 9.50906L48.5635 10.9831C48.6808 11.0417 48.8036 11.0674 48.932 11.0601C49.0603 11.0527 49.1795 11.0106 49.2895 10.9336C49.3995 10.8566 49.4783 10.7576 49.526 10.6366C49.5736 10.5156 49.5865 10.3891 49.5645 10.2571L49.0255 7.13306L51.2695 4.91106C51.3648 4.82306 51.4271 4.71489 51.4565 4.58656C51.4858 4.45822 51.4785 4.33172 51.4345 4.20706C51.3905 4.08239 51.3208 3.97789 51.2255 3.89356C51.1301 3.80922 51.0165 3.75972 50.8845 3.74506L47.8045 3.29406L46.4185 0.445058Z" fill="#FACC15"/>
</g>
</g>
</g>
<defs>
<clipPath id="clip0_6314_4497">
<rect width="66.88" height="11" fill="white" transform="translate(0 0.0600586)"/>
</clipPath>
<clipPath id="clip1_6314_4497">
<rect width="66.88" height="11" fill="white" transform="matrix(1 0 0 -1 0 11.0601)"/>
</clipPath>
<clipPath id="clip2_6314_4497">
<rect width="44.53" height="11" fill="white" transform="translate(0 0.0600586)"/>
</clipPath>
<clipPath id="clip3_6314_4497">
<rect width="66.88" height="11" fill="white" transform="matrix(1 0 0 -1 0 11.0601)"/>
</clipPath>
</defs>
</svg>
