<svg width="68" height="12" viewBox="0 0 68 12" fill="none" xmlns="http://www.w3.org/2000/svg">
<g clip-path="url(#clip0_6314_7132)">
<g clip-path="url(#clip1_6314_7132)">
<path d="M6.96534 0.445058C6.90667 0.327724 6.82234 0.234224 6.71234 0.164557C6.60234 0.0948906 6.48134 0.0600576 6.34934 0.0600576C6.21734 0.0600576 6.0945 0.0948906 5.98084 0.164557C5.86717 0.234224 5.781 0.327724 5.72234 0.445058L4.34734 3.29406L1.25634 3.74506C1.13167 3.75972 1.018 3.80922 0.915337 3.89356C0.81267 3.97789 0.743003 4.08239 0.706337 4.20706C0.66967 4.33172 0.666003 4.45822 0.695337 4.58656C0.72467 4.71489 0.787003 4.82306 0.882337 4.91106L3.11534 7.13306L2.58734 10.2571C2.56534 10.3891 2.58 10.5137 2.63134 10.6311C2.68267 10.7484 2.75967 10.8474 2.86234 10.9281C2.965 11.0087 3.08234 11.0527 3.21434 11.0601C3.34634 11.0674 3.471 11.0417 3.58834 10.9831L6.34934 9.50906L9.11034 10.9831C9.22767 11.0417 9.3505 11.0674 9.47884 11.0601C9.60717 11.0527 9.72634 11.0106 9.83634 10.9336C9.94634 10.8566 10.0252 10.7576 10.0728 10.6366C10.1205 10.5156 10.1333 10.3891 10.1113 10.2571L9.57234 7.13306L11.8163 4.91106C11.9117 4.82306 11.974 4.71489 12.0033 4.58656C12.0327 4.45822 12.0253 4.33172 11.9813 4.20706C11.9373 4.08239 11.8677 3.97789 11.7723 3.89356C11.677 3.80922 11.5633 3.75972 11.4313 3.74506L8.35134 3.29406L6.96534 0.445058Z" fill="#D1D5DB"/>
<path d="M20.3403 0.445058C20.2817 0.327724 20.1973 0.234224 20.0873 0.164557C19.9773 0.0948906 19.8563 0.0600576 19.7243 0.0600576C19.5923 0.0600576 19.4695 0.0948906 19.3558 0.164557C19.2422 0.234224 19.156 0.327724 19.0973 0.445058L17.7223 3.29406L14.6313 3.74506C14.5067 3.75972 14.393 3.80922 14.2903 3.89356C14.1877 3.97789 14.118 4.08239 14.0813 4.20706C14.0447 4.33172 14.041 4.45822 14.0703 4.58656C14.0997 4.71489 14.162 4.82306 14.2573 4.91106L16.4903 7.13306L15.9623 10.2571C15.9403 10.3891 15.955 10.5137 16.0063 10.6311C16.0577 10.7484 16.1347 10.8474 16.2373 10.9281C16.34 11.0087 16.4573 11.0527 16.5893 11.0601C16.7213 11.0674 16.846 11.0417 16.9633 10.9831L19.7243 9.50906L22.4853 10.9831C22.6027 11.0417 22.7255 11.0674 22.8538 11.0601C22.9822 11.0527 23.1013 11.0106 23.2113 10.9336C23.3213 10.8566 23.4002 10.7576 23.4478 10.6366C23.4955 10.5156 23.5083 10.3891 23.4863 10.2571L22.9473 7.13306L25.1913 4.91106C25.2867 4.82306 25.349 4.71489 25.3783 4.58656C25.4077 4.45822 25.4003 4.33172 25.3563 4.20706C25.3123 4.08239 25.2427 3.97789 25.1473 3.89356C25.052 3.80922 24.9383 3.75972 24.8063 3.74506L21.7263 3.29406L20.3403 0.445058Z" fill="#D1D5DB"/>
<path d="M33.7153 0.445058C33.6567 0.327724 33.5723 0.234224 33.4623 0.164557C33.3523 0.0948906 33.2313 0.0600576 33.0993 0.0600576C32.9673 0.0600576 32.8445 0.0948906 32.7308 0.164557C32.6172 0.234224 32.531 0.327724 32.4723 0.445058L31.0973 3.29406L28.0063 3.74506C27.8817 3.75972 27.768 3.80922 27.6653 3.89356C27.5627 3.97789 27.493 4.08239 27.4563 4.20706C27.4197 4.33172 27.416 4.45822 27.4453 4.58656C27.4747 4.71489 27.537 4.82306 27.6323 4.91106L29.8653 7.13306L29.3373 10.2571C29.3153 10.3891 29.33 10.5137 29.3813 10.6311C29.4327 10.7484 29.5097 10.8474 29.6123 10.9281C29.715 11.0087 29.8323 11.0527 29.9643 11.0601C30.0963 11.0674 30.221 11.0417 30.3383 10.9831L33.0993 9.50906L35.8603 10.9831C35.9777 11.0417 36.1005 11.0674 36.2288 11.0601C36.3572 11.0527 36.4763 11.0106 36.5863 10.9336C36.6963 10.8566 36.7752 10.7576 36.8228 10.6366C36.8705 10.5156 36.8833 10.3891 36.8613 10.2571L36.3223 7.13306L38.5663 4.91106C38.6617 4.82306 38.724 4.71489 38.7533 4.58656C38.7827 4.45822 38.7753 4.33172 38.7313 4.20706C38.6873 4.08239 38.6177 3.97789 38.5223 3.89356C38.427 3.80922 38.3133 3.75972 38.1813 3.74506L35.1013 3.29406L33.7153 0.445058Z" fill="#D1D5DB"/>
<path d="M47.0903 0.445058C47.0317 0.327724 46.9473 0.234224 46.8373 0.164557C46.7273 0.0948906 46.6063 0.0600576 46.4743 0.0600576C46.3423 0.0600576 46.2195 0.0948906 46.1058 0.164557C45.9922 0.234224 45.906 0.327724 45.8473 0.445058L44.4723 3.29406L41.3813 3.74506C41.2567 3.75972 41.143 3.80922 41.0403 3.89356C40.9377 3.97789 40.868 4.08239 40.8313 4.20706C40.7947 4.33172 40.791 4.45822 40.8203 4.58656C40.8497 4.71489 40.912 4.82306 41.0073 4.91106L43.2403 7.13306L42.7123 10.2571C42.6903 10.3891 42.705 10.5137 42.7563 10.6311C42.8077 10.7484 42.8847 10.8474 42.9873 10.9281C43.09 11.0087 43.2073 11.0527 43.3393 11.0601C43.4713 11.0674 43.596 11.0417 43.7133 10.9831L46.4743 9.50906L49.2353 10.9831C49.3527 11.0417 49.4755 11.0674 49.6038 11.0601C49.7322 11.0527 49.8513 11.0106 49.9613 10.9336C50.0713 10.8566 50.1502 10.7576 50.1978 10.6366C50.2455 10.5156 50.2583 10.3891 50.2363 10.2571L49.6973 7.13306L51.9413 4.91106C52.0367 4.82306 52.099 4.71489 52.1283 4.58656C52.1577 4.45822 52.1503 4.33172 52.1063 4.20706C52.0623 4.08239 51.9927 3.97789 51.8973 3.89356C51.802 3.80922 51.6883 3.75972 51.5563 3.74506L48.4763 3.29406L47.0903 0.445058Z" fill="#D1D5DB"/>
<path d="M60.4653 0.445058C60.4067 0.327724 60.3223 0.234224 60.2123 0.164557C60.1023 0.0948906 59.9813 0.0600576 59.8493 0.0600576C59.7173 0.0600576 59.5945 0.0948906 59.4808 0.164557C59.3672 0.234224 59.281 0.327724 59.2223 0.445058L57.8473 3.29406L54.7563 3.74506C54.6317 3.75972 54.518 3.80922 54.4153 3.89356C54.3127 3.97789 54.243 4.08239 54.2063 4.20706C54.1697 4.33172 54.166 4.45822 54.1953 4.58656C54.2247 4.71489 54.287 4.82306 54.3823 4.91106L56.6153 7.13306L56.0873 10.2571C56.0653 10.3891 56.08 10.5137 56.1313 10.6311C56.1827 10.7484 56.2597 10.8474 56.3623 10.9281C56.465 11.0087 56.5823 11.0527 56.7143 11.0601C56.8463 11.0674 56.971 11.0417 57.0883 10.9831L59.8493 9.50906L62.6103 10.9831C62.7277 11.0417 62.8505 11.0674 62.9788 11.0601C63.1072 11.0527 63.2263 11.0106 63.3363 10.9336C63.4463 10.8566 63.5252 10.7576 63.5728 10.6366C63.6205 10.5156 63.6333 10.3891 63.6113 10.2571L63.0723 7.13306L65.3163 4.91106C65.4117 4.82306 65.474 4.71489 65.5033 4.58656C65.5327 4.45822 65.5253 4.33172 65.4813 4.20706C65.4373 4.08239 65.3677 3.97789 65.2723 3.89356C65.177 3.80922 65.0633 3.75972 64.9313 3.74506L61.8513 3.29406L60.4653 0.445058Z" fill="#D1D5DB"/>
</g>
<g clip-path="url(#clip2_6314_7132)">
<g clip-path="url(#clip3_6314_7132)">
<path d="M6.96534 0.445058C6.90667 0.327724 6.82234 0.234224 6.71234 0.164557C6.60234 0.0948906 6.48134 0.0600576 6.34934 0.0600576C6.21734 0.0600576 6.0945 0.0948906 5.98084 0.164557C5.86717 0.234224 5.781 0.327724 5.72234 0.445058L4.34734 3.29406L1.25634 3.74506C1.13167 3.75972 1.018 3.80922 0.915337 3.89356C0.81267 3.97789 0.743003 4.08239 0.706337 4.20706C0.66967 4.33172 0.666003 4.45822 0.695337 4.58656C0.72467 4.71489 0.787003 4.82306 0.882337 4.91106L3.11534 7.13306L2.58734 10.2571C2.56534 10.3891 2.58 10.5137 2.63134 10.6311C2.68267 10.7484 2.75967 10.8474 2.86234 10.9281C2.965 11.0087 3.08234 11.0527 3.21434 11.0601C3.34634 11.0674 3.471 11.0417 3.58834 10.9831L6.34934 9.50906L9.11034 10.9831C9.22767 11.0417 9.3505 11.0674 9.47884 11.0601C9.60717 11.0527 9.72634 11.0106 9.83634 10.9336C9.94634 10.8566 10.0252 10.7576 10.0728 10.6366C10.1205 10.5156 10.1333 10.3891 10.1113 10.2571L9.57234 7.13306L11.8163 4.91106C11.9117 4.82306 11.974 4.71489 12.0033 4.58656C12.0327 4.45822 12.0253 4.33172 11.9813 4.20706C11.9373 4.08239 11.8677 3.97789 11.7723 3.89356C11.677 3.80922 11.5633 3.75972 11.4313 3.74506L8.35134 3.29406L6.96534 0.445058Z" fill="#FACC15"/>
<path d="M20.3403 0.445058C20.2817 0.327724 20.1973 0.234224 20.0873 0.164557C19.9773 0.0948906 19.8563 0.0600576 19.7243 0.0600576C19.5923 0.0600576 19.4695 0.0948906 19.3558 0.164557C19.2422 0.234224 19.156 0.327724 19.0973 0.445058L17.7223 3.29406L14.6313 3.74506C14.5067 3.75972 14.393 3.80922 14.2903 3.89356C14.1877 3.97789 14.118 4.08239 14.0813 4.20706C14.0447 4.33172 14.041 4.45822 14.0703 4.58656C14.0997 4.71489 14.162 4.82306 14.2573 4.91106L16.4903 7.13306L15.9623 10.2571C15.9403 10.3891 15.955 10.5137 16.0063 10.6311C16.0577 10.7484 16.1347 10.8474 16.2373 10.9281C16.34 11.0087 16.4573 11.0527 16.5893 11.0601C16.7213 11.0674 16.846 11.0417 16.9633 10.9831L19.7243 9.50906L22.4853 10.9831C22.6027 11.0417 22.7255 11.0674 22.8538 11.0601C22.9822 11.0527 23.1013 11.0106 23.2113 10.9336C23.3213 10.8566 23.4002 10.7576 23.4478 10.6366C23.4955 10.5156 23.5083 10.3891 23.4863 10.2571L22.9473 7.13306L25.1913 4.91106C25.2867 4.82306 25.349 4.71489 25.3783 4.58656C25.4077 4.45822 25.4003 4.33172 25.3563 4.20706C25.3123 4.08239 25.2427 3.97789 25.1473 3.89356C25.052 3.80922 24.9383 3.75972 24.8063 3.74506L21.7263 3.29406L20.3403 0.445058Z" fill="#FACC15"/>
<path d="M33.7153 0.445058C33.6567 0.327724 33.5723 0.234224 33.4623 0.164557C33.3523 0.0948906 33.2313 0.0600576 33.0993 0.0600576C32.9673 0.0600576 32.8445 0.0948906 32.7308 0.164557C32.6172 0.234224 32.531 0.327724 32.4723 0.445058L31.0973 3.29406L28.0063 3.74506C27.8817 3.75972 27.768 3.80922 27.6653 3.89356C27.5627 3.97789 27.493 4.08239 27.4563 4.20706C27.4197 4.33172 27.416 4.45822 27.4453 4.58656C27.4747 4.71489 27.537 4.82306 27.6323 4.91106L29.8653 7.13306L29.3373 10.2571C29.3153 10.3891 29.33 10.5137 29.3813 10.6311C29.4327 10.7484 29.5097 10.8474 29.6123 10.9281C29.715 11.0087 29.8323 11.0527 29.9643 11.0601C30.0963 11.0674 30.221 11.0417 30.3383 10.9831L33.0993 9.50906L35.8603 10.9831C35.9777 11.0417 36.1005 11.0674 36.2288 11.0601C36.3572 11.0527 36.4763 11.0106 36.5863 10.9336C36.6963 10.8566 36.7752 10.7576 36.8228 10.6366C36.8705 10.5156 36.8833 10.3891 36.8613 10.2571L36.3223 7.13306L38.5663 4.91106C38.6617 4.82306 38.724 4.71489 38.7533 4.58656C38.7827 4.45822 38.7753 4.33172 38.7313 4.20706C38.6873 4.08239 38.6177 3.97789 38.5223 3.89356C38.427 3.80922 38.3133 3.75972 38.1813 3.74506L35.1013 3.29406L33.7153 0.445058Z" fill="#FACC15"/>
<path d="M47.0903 0.445058C47.0317 0.327724 46.9473 0.234224 46.8373 0.164557C46.7273 0.0948906 46.6063 0.0600576 46.4743 0.0600576C46.3423 0.0600576 46.2195 0.0948906 46.1058 0.164557C45.9922 0.234224 45.906 0.327724 45.8473 0.445058L44.4723 3.29406L41.3813 3.74506C41.2567 3.75972 41.143 3.80922 41.0403 3.89356C40.9377 3.97789 40.868 4.08239 40.8313 4.20706C40.7947 4.33172 40.791 4.45822 40.8203 4.58656C40.8497 4.71489 40.912 4.82306 41.0073 4.91106L43.2403 7.13306L42.7123 10.2571C42.6903 10.3891 42.705 10.5137 42.7563 10.6311C42.8077 10.7484 42.8847 10.8474 42.9873 10.9281C43.09 11.0087 43.2073 11.0527 43.3393 11.0601C43.4713 11.0674 43.596 11.0417 43.7133 10.9831L46.4743 9.50906L49.2353 10.9831C49.3527 11.0417 49.4755 11.0674 49.6038 11.0601C49.7322 11.0527 49.8513 11.0106 49.9613 10.9336C50.0713 10.8566 50.1502 10.7576 50.1978 10.6366C50.2455 10.5156 50.2583 10.3891 50.2363 10.2571L49.6973 7.13306L51.9413 4.91106C52.0367 4.82306 52.099 4.71489 52.1283 4.58656C52.1577 4.45822 52.1503 4.33172 52.1063 4.20706C52.0623 4.08239 51.9927 3.97789 51.8973 3.89356C51.802 3.80922 51.6883 3.75972 51.5563 3.74506L48.4763 3.29406L47.0903 0.445058Z" fill="#FACC15"/>
</g>
</g>
</g>
<defs>
<clipPath id="clip0_6314_7132">
<rect width="66.88" height="11" fill="white" transform="translate(0.671875 0.0600586)"/>
</clipPath>
<clipPath id="clip1_6314_7132">
<rect width="66.88" height="11" fill="white" transform="matrix(1 0 0 -1 0.671875 11.0601)"/>
</clipPath>
<clipPath id="clip2_6314_7132">
<rect width="44.53" height="11" fill="white" transform="translate(0.671875 0.0600586)"/>
</clipPath>
<clipPath id="clip3_6314_7132">
<rect width="66.88" height="11" fill="white" transform="matrix(1 0 0 -1 0.671875 11.0601)"/>
</clipPath>
</defs>
</svg>
