<svg width="67" height="12" viewBox="0 0 67 12" fill="none" xmlns="http://www.w3.org/2000/svg">
<g clip-path="url(#clip0_6314_2064)">
<g clip-path="url(#clip1_6314_2064)">
<path d="M6.31299 0.84496C6.25433 0.727627 6.16999 0.634127 6.05999 0.56446C5.94999 0.494793 5.82899 0.45996 5.69699 0.45996C5.56499 0.45996 5.44216 0.494793 5.32849 0.56446C5.21483 0.634127 5.12866 0.727627 5.06999 0.84496L3.69499 3.69396L0.603993 4.14496C0.479326 4.15963 0.36566 4.20913 0.262993 4.29346C0.160326 4.37779 0.0906597 4.48229 0.0539931 4.60696C0.0173264 4.73163 0.0136597 4.85813 0.0429931 4.98646C0.0723264 5.11479 0.13466 5.22296 0.229993 5.31096L2.46299 7.53296L1.93499 10.657C1.91299 10.789 1.92766 10.9136 1.97899 11.031C2.03033 11.1483 2.10733 11.2473 2.20999 11.328C2.31266 11.4086 2.42999 11.4526 2.56199 11.46C2.69399 11.4673 2.81866 11.4416 2.93599 11.383L5.69699 9.90896L8.45799 11.383C8.57533 11.4416 8.69816 11.4673 8.82649 11.46C8.95483 11.4526 9.07399 11.4105 9.18399 11.3335C9.29399 11.2565 9.37283 11.1575 9.42049 11.0365C9.46816 10.9155 9.48099 10.789 9.45899 10.657L8.91999 7.53296L11.164 5.31096C11.2593 5.22296 11.3217 5.11479 11.351 4.98646C11.3803 4.85813 11.373 4.73163 11.329 4.60696C11.285 4.48229 11.2153 4.37779 11.12 4.29346C11.0247 4.20913 10.911 4.15963 10.779 4.14496L7.69899 3.69396L6.31299 0.84496Z" fill="#D1D5DB"/>
<path d="M19.688 0.84496C19.6293 0.727627 19.545 0.634127 19.435 0.56446C19.325 0.494793 19.204 0.45996 19.072 0.45996C18.94 0.45996 18.8172 0.494793 18.7035 0.56446C18.5898 0.634127 18.5037 0.727627 18.445 0.84496L17.07 3.69396L13.979 4.14496C13.8543 4.15963 13.7407 4.20913 13.638 4.29346C13.5353 4.37779 13.4657 4.48229 13.429 4.60696C13.3923 4.73163 13.3887 4.85813 13.418 4.98646C13.4473 5.11479 13.5097 5.22296 13.605 5.31096L15.838 7.53296L15.31 10.657C15.288 10.789 15.3027 10.9136 15.354 11.031C15.4053 11.1483 15.4823 11.2473 15.585 11.328C15.6877 11.4086 15.805 11.4526 15.937 11.46C16.069 11.4673 16.1937 11.4416 16.311 11.383L19.072 9.90896L21.833 11.383C21.9503 11.4416 22.0732 11.4673 22.2015 11.46C22.3298 11.4526 22.449 11.4105 22.559 11.3335C22.669 11.2565 22.7478 11.1575 22.7955 11.0365C22.8432 10.9155 22.856 10.789 22.834 10.657L22.295 7.53296L24.539 5.31096C24.6343 5.22296 24.6967 5.11479 24.726 4.98646C24.7553 4.85813 24.748 4.73163 24.704 4.60696C24.66 4.48229 24.5903 4.37779 24.495 4.29346C24.3997 4.20913 24.286 4.15963 24.154 4.14496L21.074 3.69396L19.688 0.84496Z" fill="#D1D5DB"/>
<path d="M33.063 0.84496C33.0043 0.727627 32.92 0.634127 32.81 0.56446C32.7 0.494793 32.579 0.45996 32.447 0.45996C32.315 0.45996 32.1922 0.494793 32.0785 0.56446C31.9648 0.634127 31.8787 0.727627 31.82 0.84496L30.445 3.69396L27.354 4.14496C27.2293 4.15963 27.1157 4.20913 27.013 4.29346C26.9103 4.37779 26.8407 4.48229 26.804 4.60696C26.7673 4.73163 26.7637 4.85813 26.793 4.98646C26.8223 5.11479 26.8847 5.22296 26.98 5.31096L29.213 7.53296L28.685 10.657C28.663 10.789 28.6777 10.9136 28.729 11.031C28.7803 11.1483 28.8573 11.2473 28.96 11.328C29.0627 11.4086 29.18 11.4526 29.312 11.46C29.444 11.4673 29.5687 11.4416 29.686 11.383L32.447 9.90896L35.208 11.383C35.3253 11.4416 35.4482 11.4673 35.5765 11.46C35.7048 11.4526 35.824 11.4105 35.934 11.3335C36.044 11.2565 36.1228 11.1575 36.1705 11.0365C36.2182 10.9155 36.231 10.789 36.209 10.657L35.67 7.53296L37.914 5.31096C38.0093 5.22296 38.0717 5.11479 38.101 4.98646C38.1303 4.85813 38.123 4.73163 38.079 4.60696C38.035 4.48229 37.9653 4.37779 37.87 4.29346C37.7747 4.20913 37.661 4.15963 37.529 4.14496L34.449 3.69396L33.063 0.84496Z" fill="#D1D5DB"/>
<path d="M46.438 0.84496C46.3793 0.727627 46.295 0.634127 46.185 0.56446C46.075 0.494793 45.954 0.45996 45.822 0.45996C45.69 0.45996 45.5672 0.494793 45.4535 0.56446C45.3398 0.634127 45.2537 0.727627 45.195 0.84496L43.82 3.69396L40.729 4.14496C40.6043 4.15963 40.4907 4.20913 40.388 4.29346C40.2853 4.37779 40.2157 4.48229 40.179 4.60696C40.1423 4.73163 40.1387 4.85813 40.168 4.98646C40.1973 5.11479 40.2597 5.22296 40.355 5.31096L42.588 7.53296L42.06 10.657C42.038 10.789 42.0527 10.9136 42.104 11.031C42.1553 11.1483 42.2323 11.2473 42.335 11.328C42.4377 11.4086 42.555 11.4526 42.687 11.46C42.819 11.4673 42.9437 11.4416 43.061 11.383L45.822 9.90896L48.583 11.383C48.7003 11.4416 48.8232 11.4673 48.9515 11.46C49.0798 11.4526 49.199 11.4105 49.309 11.3335C49.419 11.2565 49.4978 11.1575 49.5455 11.0365C49.5932 10.9155 49.606 10.789 49.584 10.657L49.045 7.53296L51.289 5.31096C51.3843 5.22296 51.4467 5.11479 51.476 4.98646C51.5053 4.85813 51.498 4.73163 51.454 4.60696C51.41 4.48229 51.3403 4.37779 51.245 4.29346C51.1497 4.20913 51.036 4.15963 50.904 4.14496L47.824 3.69396L46.438 0.84496Z" fill="#D1D5DB"/>
<path d="M59.813 0.84496C59.7543 0.727627 59.67 0.634127 59.56 0.56446C59.45 0.494793 59.329 0.45996 59.197 0.45996C59.065 0.45996 58.9422 0.494793 58.8285 0.56446C58.7148 0.634127 58.6287 0.727627 58.57 0.84496L57.195 3.69396L54.104 4.14496C53.9793 4.15963 53.8657 4.20913 53.763 4.29346C53.6603 4.37779 53.5907 4.48229 53.554 4.60696C53.5173 4.73163 53.5137 4.85813 53.543 4.98646C53.5723 5.11479 53.6347 5.22296 53.73 5.31096L55.963 7.53296L55.435 10.657C55.413 10.789 55.4277 10.9136 55.479 11.031C55.5303 11.1483 55.6073 11.2473 55.71 11.328C55.8127 11.4086 55.93 11.4526 56.062 11.46C56.194 11.4673 56.3187 11.4416 56.436 11.383L59.197 9.90896L61.958 11.383C62.0753 11.4416 62.1982 11.4673 62.3265 11.46C62.4548 11.4526 62.574 11.4105 62.684 11.3335C62.794 11.2565 62.8728 11.1575 62.9205 11.0365C62.9682 10.9155 62.981 10.789 62.959 10.657L62.42 7.53296L64.664 5.31096C64.7593 5.22296 64.8217 5.11479 64.851 4.98646C64.8803 4.85813 64.873 4.73163 64.829 4.60696C64.785 4.48229 64.7153 4.37779 64.62 4.29346C64.5247 4.20913 64.411 4.15963 64.279 4.14496L61.199 3.69396L59.813 0.84496Z" fill="#D1D5DB"/>
</g>
<g clip-path="url(#clip2_6314_2064)">
<g clip-path="url(#clip3_6314_2064)">
<path d="M6.29346 0.384999C6.2348 0.267666 6.15046 0.174166 6.04046 0.104499C5.93046 0.034832 5.80946 -9.53674e-07 5.67746 -9.53674e-07C5.54546 -9.53674e-07 5.42263 0.034832 5.30896 0.104499C5.19529 0.174166 5.10913 0.267666 5.05046 0.384999L3.67546 3.234L0.584462 3.685C0.459795 3.69967 0.346128 3.74917 0.243462 3.8335C0.140795 3.91783 0.0711285 4.02233 0.0344618 4.147C-0.00220486 4.27167 -0.00587153 4.39817 0.0234618 4.5265C0.0527951 4.65483 0.115128 4.763 0.210462 4.851L2.44346 7.073L1.91546 10.197C1.89346 10.329 1.90813 10.4537 1.95946 10.571C2.0108 10.6883 2.0878 10.7873 2.19046 10.868C2.29313 10.9487 2.41046 10.9927 2.54246 11C2.67446 11.0073 2.79913 10.9817 2.91646 10.923L5.67746 9.449L8.43846 10.923C8.55579 10.9817 8.67863 11.0073 8.80696 11C8.9353 10.9927 9.05446 10.9505 9.16446 10.8735C9.27446 10.7965 9.3533 10.6975 9.40096 10.5765C9.44863 10.4555 9.46146 10.329 9.43946 10.197L8.90046 7.073L11.1445 4.851C11.2398 4.763 11.3021 4.65483 11.3315 4.5265C11.3608 4.39817 11.3535 4.27167 11.3095 4.147C11.2655 4.02233 11.1958 3.91783 11.1005 3.8335C11.0051 3.74917 10.8915 3.69967 10.7595 3.685L7.67946 3.234L6.29346 0.384999Z" fill="#FACC15"/>
<path d="M19.6685 0.384999C19.6098 0.267666 19.5255 0.174166 19.4155 0.104499C19.3055 0.034832 19.1845 -9.53674e-07 19.0525 -9.53674e-07C18.9205 -9.53674e-07 18.7976 0.034832 18.684 0.104499C18.5703 0.174166 18.4841 0.267666 18.4255 0.384999L17.0505 3.234L13.9595 3.685C13.8348 3.69967 13.7211 3.74917 13.6185 3.8335C13.5158 3.91783 13.4461 4.02233 13.4095 4.147C13.3728 4.27167 13.3691 4.39817 13.3985 4.5265C13.4278 4.65483 13.4901 4.763 13.5855 4.851L15.8185 7.073L15.2905 10.197C15.2685 10.329 15.2831 10.4537 15.3345 10.571C15.3858 10.6883 15.4628 10.7873 15.5655 10.868C15.6681 10.9487 15.7855 10.9927 15.9175 11C16.0495 11.0073 16.1741 10.9817 16.2915 10.923L19.0525 9.449L21.8135 10.923C21.9308 10.9817 22.0536 11.0073 22.182 11C22.3103 10.9927 22.4295 10.9505 22.5395 10.8735C22.6495 10.7965 22.7283 10.6975 22.776 10.5765C22.8236 10.4555 22.8365 10.329 22.8145 10.197L22.2755 7.073L24.5195 4.851C24.6148 4.763 24.6771 4.65483 24.7065 4.5265C24.7358 4.39817 24.7285 4.27167 24.6845 4.147C24.6405 4.02233 24.5708 3.91783 24.4755 3.8335C24.3801 3.74917 24.2665 3.69967 24.1345 3.685L21.0545 3.234L19.6685 0.384999Z" fill="#FACC15"/>
<path d="M33.0435 0.384999C32.9848 0.267666 32.9005 0.174166 32.7905 0.104499C32.6805 0.034832 32.5595 -9.53674e-07 32.4275 -9.53674e-07C32.2955 -9.53674e-07 32.1726 0.034832 32.059 0.104499C31.9453 0.174166 31.8591 0.267666 31.8005 0.384999L30.4255 3.234L27.3345 3.685C27.2098 3.69967 27.0961 3.74917 26.9935 3.8335C26.8908 3.91783 26.8211 4.02233 26.7845 4.147C26.7478 4.27167 26.7441 4.39817 26.7735 4.5265C26.8028 4.65483 26.8651 4.763 26.9605 4.851L29.1935 7.073L28.6655 10.197C28.6435 10.329 28.6581 10.4537 28.7095 10.571C28.7608 10.6883 28.8378 10.7873 28.9405 10.868C29.0431 10.9487 29.1605 10.9927 29.2925 11C29.4245 11.0073 29.5491 10.9817 29.6665 10.923L32.4275 9.449L35.1885 10.923C35.3058 10.9817 35.4286 11.0073 35.557 11C35.6853 10.9927 35.8045 10.9505 35.9145 10.8735C36.0245 10.7965 36.1033 10.6975 36.151 10.5765C36.1986 10.4555 36.2115 10.329 36.1895 10.197L35.6505 7.073L37.8945 4.851C37.9898 4.763 38.0521 4.65483 38.0815 4.5265C38.1108 4.39817 38.1035 4.27167 38.0595 4.147C38.0155 4.02233 37.9458 3.91783 37.8505 3.8335C37.7551 3.74917 37.6415 3.69967 37.5095 3.685L34.4295 3.234L33.0435 0.384999Z" fill="#FACC15"/>
<path d="M46.4185 0.384999C46.3598 0.267666 46.2755 0.174166 46.1655 0.104499C46.0555 0.034832 45.9345 -9.53674e-07 45.8025 -9.53674e-07C45.6705 -9.53674e-07 45.5476 0.034832 45.434 0.104499C45.3203 0.174166 45.2341 0.267666 45.1755 0.384999L43.8005 3.234L40.7095 3.685C40.5848 3.69967 40.4711 3.74917 40.3685 3.8335C40.2658 3.91783 40.1961 4.02233 40.1595 4.147C40.1228 4.27167 40.1191 4.39817 40.1485 4.5265C40.1778 4.65483 40.2401 4.763 40.3355 4.851L42.5685 7.073L42.0405 10.197C42.0185 10.329 42.0331 10.4537 42.0845 10.571C42.1358 10.6883 42.2128 10.7873 42.3155 10.868C42.4181 10.9487 42.5355 10.9927 42.6675 11C42.7995 11.0073 42.9241 10.9817 43.0415 10.923L45.8025 9.449L48.5635 10.923C48.6808 10.9817 48.8036 11.0073 48.932 11C49.0603 10.9927 49.1795 10.9505 49.2895 10.8735C49.3995 10.7965 49.4783 10.6975 49.526 10.5765C49.5736 10.4555 49.5865 10.329 49.5645 10.197L49.0255 7.073L51.2695 4.851C51.3648 4.763 51.4271 4.65483 51.4565 4.5265C51.4858 4.39817 51.4785 4.27167 51.4345 4.147C51.3905 4.02233 51.3208 3.91783 51.2255 3.8335C51.1301 3.74917 51.0165 3.69967 50.8845 3.685L47.8045 3.234L46.4185 0.384999Z" fill="#FACC15"/>
<path d="M59.7935 0.384999C59.7348 0.267666 59.6505 0.174166 59.5405 0.104499C59.4305 0.034832 59.3095 -9.53674e-07 59.1775 -9.53674e-07C59.0455 -9.53674e-07 58.9226 0.034832 58.809 0.104499C58.6953 0.174166 58.6091 0.267666 58.5505 0.384999L57.1755 3.234L54.0845 3.685C53.9598 3.69967 53.8461 3.74917 53.7435 3.8335C53.6408 3.91783 53.5711 4.02233 53.5345 4.147C53.4978 4.27167 53.4941 4.39817 53.5235 4.5265C53.5528 4.65483 53.6151 4.763 53.7105 4.851L55.9435 7.073L55.4155 10.197C55.3935 10.329 55.4081 10.4537 55.4595 10.571C55.5108 10.6883 55.5878 10.7873 55.6905 10.868C55.7931 10.9487 55.9105 10.9927 56.0425 11C56.1745 11.0073 56.2991 10.9817 56.4165 10.923L59.1775 9.449L61.9385 10.923C62.0558 10.9817 62.1786 11.0073 62.307 11C62.4353 10.9927 62.5545 10.9505 62.6645 10.8735C62.7745 10.7965 62.8533 10.6975 62.901 10.5765C62.9486 10.4555 62.9615 10.329 62.9395 10.197L62.4005 7.073L64.6445 4.851C64.7398 4.763 64.8021 4.65483 64.8315 4.5265C64.8608 4.39817 64.8535 4.27167 64.8095 4.147C64.7655 4.02233 64.6958 3.91783 64.6005 3.8335C64.5051 3.74917 64.3915 3.69967 64.2595 3.685L61.1795 3.234L59.7935 0.384999Z" fill="#FACC15"/>
</g>
</g>
</g>
<defs>
<clipPath id="clip0_6314_2064">
<rect width="66.88" height="11" fill="white" transform="translate(0.0195312 0.459961)"/>
</clipPath>
<clipPath id="clip1_6314_2064">
<rect width="66.88" height="11" fill="white" transform="matrix(1 0 0 -1 0.0195312 11.46)"/>
</clipPath>
<clipPath id="clip2_6314_2064">
<rect width="65" height="11" fill="white"/>
</clipPath>
<clipPath id="clip3_6314_2064">
<rect width="66.88" height="11" fill="white" transform="matrix(1 0 0 -1 0 11)"/>
</clipPath>
</defs>
</svg>
