<svg width="68" height="12" viewBox="0 0 68 12" fill="none" xmlns="http://www.w3.org/2000/svg">
<g clip-path="url(#clip0_6314_2034)">
<g clip-path="url(#clip1_6314_2034)">
<path d="M6.63331 0.84496C6.57464 0.727627 6.49031 0.634127 6.38031 0.56446C6.27031 0.494793 6.14931 0.45996 6.01731 0.45996C5.88531 0.45996 5.76247 0.494793 5.64881 0.56446C5.53514 0.634127 5.44897 0.727627 5.39031 0.84496L4.01531 3.69396L0.924306 4.14496C0.799639 4.15963 0.685972 4.20913 0.583306 4.29346C0.480639 4.37779 0.410972 4.48229 0.374306 4.60696C0.337639 4.73163 0.333972 4.85813 0.363306 4.98646C0.392639 5.11479 0.454972 5.22296 0.550306 5.31096L2.78331 7.53296L2.25531 10.657C2.23331 10.789 2.24797 10.9136 2.29931 11.031C2.35064 11.1483 2.42764 11.2473 2.53031 11.328C2.63297 11.4086 2.75031 11.4526 2.88231 11.46C3.01431 11.4673 3.13897 11.4416 3.25631 11.383L6.01731 9.90896L8.77831 11.383C8.89564 11.4416 9.01847 11.4673 9.14681 11.46C9.27514 11.4526 9.39431 11.4105 9.50431 11.3335C9.61431 11.2565 9.69314 11.1575 9.74081 11.0365C9.78847 10.9155 9.80131 10.789 9.77931 10.657L9.24031 7.53296L11.4843 5.31096C11.5796 5.22296 11.642 5.11479 11.6713 4.98646C11.7006 4.85813 11.6933 4.73163 11.6493 4.60696C11.6053 4.48229 11.5356 4.37779 11.4403 4.29346C11.345 4.20913 11.2313 4.15963 11.0993 4.14496L8.01931 3.69396L6.63331 0.84496Z" fill="#D1D5DB"/>
<path d="M20.0083 0.84496C19.9496 0.727627 19.8653 0.634127 19.7553 0.56446C19.6453 0.494793 19.5243 0.45996 19.3923 0.45996C19.2603 0.45996 19.1375 0.494793 19.0238 0.56446C18.9101 0.634127 18.824 0.727627 18.7653 0.84496L17.3903 3.69396L14.2993 4.14496C14.1746 4.15963 14.061 4.20913 13.9583 4.29346C13.8556 4.37779 13.786 4.48229 13.7493 4.60696C13.7126 4.73163 13.709 4.85813 13.7383 4.98646C13.7676 5.11479 13.83 5.22296 13.9253 5.31096L16.1583 7.53296L15.6303 10.657C15.6083 10.789 15.623 10.9136 15.6743 11.031C15.7256 11.1483 15.8026 11.2473 15.9053 11.328C16.008 11.4086 16.1253 11.4526 16.2573 11.46C16.3893 11.4673 16.514 11.4416 16.6313 11.383L19.3923 9.90896L22.1533 11.383C22.2706 11.4416 22.3935 11.4673 22.5218 11.46C22.6501 11.4526 22.7693 11.4105 22.8793 11.3335C22.9893 11.2565 23.0681 11.1575 23.1158 11.0365C23.1635 10.9155 23.1763 10.789 23.1543 10.657L22.6153 7.53296L24.8593 5.31096C24.9546 5.22296 25.017 5.11479 25.0463 4.98646C25.0756 4.85813 25.0683 4.73163 25.0243 4.60696C24.9803 4.48229 24.9106 4.37779 24.8153 4.29346C24.72 4.20913 24.6063 4.15963 24.4743 4.14496L21.3943 3.69396L20.0083 0.84496Z" fill="#D1D5DB"/>
<path d="M33.3833 0.84496C33.3246 0.727627 33.2403 0.634127 33.1303 0.56446C33.0203 0.494793 32.8993 0.45996 32.7673 0.45996C32.6353 0.45996 32.5125 0.494793 32.3988 0.56446C32.2851 0.634127 32.199 0.727627 32.1403 0.84496L30.7653 3.69396L27.6743 4.14496C27.5496 4.15963 27.436 4.20913 27.3333 4.29346C27.2306 4.37779 27.161 4.48229 27.1243 4.60696C27.0876 4.73163 27.084 4.85813 27.1133 4.98646C27.1426 5.11479 27.205 5.22296 27.3003 5.31096L29.5333 7.53296L29.0053 10.657C28.9833 10.789 28.998 10.9136 29.0493 11.031C29.1006 11.1483 29.1776 11.2473 29.2803 11.328C29.383 11.4086 29.5003 11.4526 29.6323 11.46C29.7643 11.4673 29.889 11.4416 30.0063 11.383L32.7673 9.90896L35.5283 11.383C35.6456 11.4416 35.7685 11.4673 35.8968 11.46C36.0251 11.4526 36.1443 11.4105 36.2543 11.3335C36.3643 11.2565 36.4431 11.1575 36.4908 11.0365C36.5385 10.9155 36.5513 10.789 36.5293 10.657L35.9903 7.53296L38.2343 5.31096C38.3296 5.22296 38.392 5.11479 38.4213 4.98646C38.4506 4.85813 38.4433 4.73163 38.3993 4.60696C38.3553 4.48229 38.2856 4.37779 38.1903 4.29346C38.095 4.20913 37.9813 4.15963 37.8493 4.14496L34.7693 3.69396L33.3833 0.84496Z" fill="#D1D5DB"/>
<path d="M46.7583 0.84496C46.6996 0.727627 46.6153 0.634127 46.5053 0.56446C46.3953 0.494793 46.2743 0.45996 46.1423 0.45996C46.0103 0.45996 45.8875 0.494793 45.7738 0.56446C45.6601 0.634127 45.574 0.727627 45.5153 0.84496L44.1403 3.69396L41.0493 4.14496C40.9246 4.15963 40.811 4.20913 40.7083 4.29346C40.6056 4.37779 40.536 4.48229 40.4993 4.60696C40.4626 4.73163 40.459 4.85813 40.4883 4.98646C40.5176 5.11479 40.58 5.22296 40.6753 5.31096L42.9083 7.53296L42.3803 10.657C42.3583 10.789 42.373 10.9136 42.4243 11.031C42.4756 11.1483 42.5526 11.2473 42.6553 11.328C42.758 11.4086 42.8753 11.4526 43.0073 11.46C43.1393 11.4673 43.264 11.4416 43.3813 11.383L46.1423 9.90896L48.9033 11.383C49.0206 11.4416 49.1435 11.4673 49.2718 11.46C49.4001 11.4526 49.5193 11.4105 49.6293 11.3335C49.7393 11.2565 49.8181 11.1575 49.8658 11.0365C49.9135 10.9155 49.9263 10.789 49.9043 10.657L49.3653 7.53296L51.6093 5.31096C51.7046 5.22296 51.767 5.11479 51.7963 4.98646C51.8256 4.85813 51.8183 4.73163 51.7743 4.60696C51.7303 4.48229 51.6606 4.37779 51.5653 4.29346C51.47 4.20913 51.3563 4.15963 51.2243 4.14496L48.1443 3.69396L46.7583 0.84496Z" fill="#D1D5DB"/>
<path d="M60.1333 0.84496C60.0746 0.727627 59.9903 0.634127 59.8803 0.56446C59.7703 0.494793 59.6493 0.45996 59.5173 0.45996C59.3853 0.45996 59.2625 0.494793 59.1488 0.56446C59.0351 0.634127 58.949 0.727627 58.8903 0.84496L57.5153 3.69396L54.4243 4.14496C54.2996 4.15963 54.186 4.20913 54.0833 4.29346C53.9806 4.37779 53.911 4.48229 53.8743 4.60696C53.8376 4.73163 53.834 4.85813 53.8633 4.98646C53.8926 5.11479 53.955 5.22296 54.0503 5.31096L56.2833 7.53296L55.7553 10.657C55.7333 10.789 55.748 10.9136 55.7993 11.031C55.8506 11.1483 55.9276 11.2473 56.0303 11.328C56.133 11.4086 56.2503 11.4526 56.3823 11.46C56.5143 11.4673 56.639 11.4416 56.7563 11.383L59.5173 9.90896L62.2783 11.383C62.3956 11.4416 62.5185 11.4673 62.6468 11.46C62.7751 11.4526 62.8943 11.4105 63.0043 11.3335C63.1143 11.2565 63.1931 11.1575 63.2408 11.0365C63.2885 10.9155 63.3013 10.789 63.2793 10.657L62.7403 7.53296L64.9843 5.31096C65.0796 5.22296 65.142 5.11479 65.1713 4.98646C65.2006 4.85813 65.1933 4.73163 65.1493 4.60696C65.1053 4.48229 65.0356 4.37779 64.9403 4.29346C64.845 4.20913 64.7313 4.15963 64.5993 4.14496L61.5193 3.69396L60.1333 0.84496Z" fill="#D1D5DB"/>
</g>
<g clip-path="url(#clip2_6314_2034)">
<g clip-path="url(#clip3_6314_2034)">
<path d="M6.29346 0.384999C6.2348 0.267666 6.15046 0.174166 6.04046 0.104499C5.93046 0.034832 5.80946 -9.53674e-07 5.67746 -9.53674e-07C5.54546 -9.53674e-07 5.42263 0.034832 5.30896 0.104499C5.19529 0.174166 5.10913 0.267666 5.05046 0.384999L3.67546 3.234L0.584462 3.685C0.459795 3.69967 0.346128 3.74917 0.243462 3.8335C0.140795 3.91783 0.0711285 4.02233 0.0344618 4.147C-0.00220486 4.27167 -0.00587153 4.39817 0.0234618 4.5265C0.0527951 4.65483 0.115128 4.763 0.210462 4.851L2.44346 7.073L1.91546 10.197C1.89346 10.329 1.90813 10.4537 1.95946 10.571C2.0108 10.6883 2.0878 10.7873 2.19046 10.868C2.29313 10.9487 2.41046 10.9927 2.54246 11C2.67446 11.0073 2.79913 10.9817 2.91646 10.923L5.67746 9.449L8.43846 10.923C8.55579 10.9817 8.67863 11.0073 8.80696 11C8.9353 10.9927 9.05446 10.9505 9.16446 10.8735C9.27446 10.7965 9.3533 10.6975 9.40096 10.5765C9.44863 10.4555 9.46146 10.329 9.43946 10.197L8.90046 7.073L11.1445 4.851C11.2398 4.763 11.3021 4.65483 11.3315 4.5265C11.3608 4.39817 11.3535 4.27167 11.3095 4.147C11.2655 4.02233 11.1958 3.91783 11.1005 3.8335C11.0051 3.74917 10.8915 3.69967 10.7595 3.685L7.67946 3.234L6.29346 0.384999Z" fill="#FACC15"/>
<path d="M19.6685 0.384999C19.6098 0.267666 19.5255 0.174166 19.4155 0.104499C19.3055 0.034832 19.1845 -9.53674e-07 19.0525 -9.53674e-07C18.9205 -9.53674e-07 18.7976 0.034832 18.684 0.104499C18.5703 0.174166 18.4841 0.267666 18.4255 0.384999L17.0505 3.234L13.9595 3.685C13.8348 3.69967 13.7211 3.74917 13.6185 3.8335C13.5158 3.91783 13.4461 4.02233 13.4095 4.147C13.3728 4.27167 13.3691 4.39817 13.3985 4.5265C13.4278 4.65483 13.4901 4.763 13.5855 4.851L15.8185 7.073L15.2905 10.197C15.2685 10.329 15.2831 10.4537 15.3345 10.571C15.3858 10.6883 15.4628 10.7873 15.5655 10.868C15.6681 10.9487 15.7855 10.9927 15.9175 11C16.0495 11.0073 16.1741 10.9817 16.2915 10.923L19.0525 9.449L21.8135 10.923C21.9308 10.9817 22.0536 11.0073 22.182 11C22.3103 10.9927 22.4295 10.9505 22.5395 10.8735C22.6495 10.7965 22.7283 10.6975 22.776 10.5765C22.8236 10.4555 22.8365 10.329 22.8145 10.197L22.2755 7.073L24.5195 4.851C24.6148 4.763 24.6771 4.65483 24.7065 4.5265C24.7358 4.39817 24.7285 4.27167 24.6845 4.147C24.6405 4.02233 24.5708 3.91783 24.4755 3.8335C24.3801 3.74917 24.2665 3.69967 24.1345 3.685L21.0545 3.234L19.6685 0.384999Z" fill="#FACC15"/>
<path d="M33.0435 0.384999C32.9848 0.267666 32.9005 0.174166 32.7905 0.104499C32.6805 0.034832 32.5595 -9.53674e-07 32.4275 -9.53674e-07C32.2955 -9.53674e-07 32.1726 0.034832 32.059 0.104499C31.9453 0.174166 31.8591 0.267666 31.8005 0.384999L30.4255 3.234L27.3345 3.685C27.2098 3.69967 27.0961 3.74917 26.9935 3.8335C26.8908 3.91783 26.8211 4.02233 26.7845 4.147C26.7478 4.27167 26.7441 4.39817 26.7735 4.5265C26.8028 4.65483 26.8651 4.763 26.9605 4.851L29.1935 7.073L28.6655 10.197C28.6435 10.329 28.6581 10.4537 28.7095 10.571C28.7608 10.6883 28.8378 10.7873 28.9405 10.868C29.0431 10.9487 29.1605 10.9927 29.2925 11C29.4245 11.0073 29.5491 10.9817 29.6665 10.923L32.4275 9.449L35.1885 10.923C35.3058 10.9817 35.4286 11.0073 35.557 11C35.6853 10.9927 35.8045 10.9505 35.9145 10.8735C36.0245 10.7965 36.1033 10.6975 36.151 10.5765C36.1986 10.4555 36.2115 10.329 36.1895 10.197L35.6505 7.073L37.8945 4.851C37.9898 4.763 38.0521 4.65483 38.0815 4.5265C38.1108 4.39817 38.1035 4.27167 38.0595 4.147C38.0155 4.02233 37.9458 3.91783 37.8505 3.8335C37.7551 3.74917 37.6415 3.69967 37.5095 3.685L34.4295 3.234L33.0435 0.384999Z" fill="#FACC15"/>
</g>
</g>
</g>
<defs>
<clipPath id="clip0_6314_2034">
<rect width="66.88" height="11" fill="white" transform="translate(0.339844 0.459961)"/>
</clipPath>
<clipPath id="clip1_6314_2034">
<rect width="66.88" height="11" fill="white" transform="matrix(1 0 0 -1 0.339844 11.46)"/>
</clipPath>
<clipPath id="clip2_6314_2034">
<rect width="40" height="11" fill="white"/>
</clipPath>
<clipPath id="clip3_6314_2034">
<rect width="66.88" height="11" fill="white" transform="matrix(1 0 0 -1 0 11)"/>
</clipPath>
</defs>
</svg>
