<svg width="67" height="12" viewBox="0 0 67 12" fill="none" xmlns="http://www.w3.org/2000/svg">
<g clip-path="url(#clip0_6314_7014)">
<g clip-path="url(#clip1_6314_7014)">
<path d="M6.29346 0.575002C6.2348 0.457668 6.15046 0.364168 6.04046 0.294501C5.93046 0.224834 5.80946 0.190001 5.67746 0.190001C5.54546 0.190001 5.42263 0.224834 5.30896 0.294501C5.19529 0.364168 5.10913 0.457668 5.05046 0.575002L3.67546 3.424L0.584462 3.875C0.459795 3.88967 0.346128 3.93917 0.243462 4.0235C0.140795 4.10783 0.0711285 4.21233 0.0344618 4.337C-0.00220486 4.46167 -0.00587153 4.58817 0.0234618 4.7165C0.0527951 4.84483 0.115128 4.953 0.210462 5.041L2.44346 7.263L1.91546 10.387C1.89346 10.519 1.90813 10.6437 1.95946 10.761C2.0108 10.8783 2.0878 10.9773 2.19046 11.058C2.29313 11.1387 2.41046 11.1827 2.54246 11.19C2.67446 11.1973 2.79913 11.1717 2.91646 11.113L5.67746 9.639L8.43846 11.113C8.55579 11.1717 8.67863 11.1973 8.80696 11.19C8.9353 11.1827 9.05446 11.1405 9.16446 11.0635C9.27446 10.9865 9.3533 10.8875 9.40096 10.7665C9.44863 10.6455 9.46146 10.519 9.43946 10.387L8.90046 7.263L11.1445 5.041C11.2398 4.953 11.3021 4.84483 11.3315 4.7165C11.3608 4.58817 11.3535 4.46167 11.3095 4.337C11.2655 4.21233 11.1958 4.10783 11.1005 4.0235C11.0051 3.93917 10.8915 3.88967 10.7595 3.875L7.67946 3.424L6.29346 0.575002Z" fill="#D1D5DB"/>
<path d="M19.6685 0.575002C19.6098 0.457668 19.5255 0.364168 19.4155 0.294501C19.3055 0.224834 19.1845 0.190001 19.0525 0.190001C18.9205 0.190001 18.7976 0.224834 18.684 0.294501C18.5703 0.364168 18.4841 0.457668 18.4255 0.575002L17.0505 3.424L13.9595 3.875C13.8348 3.88967 13.7211 3.93917 13.6185 4.0235C13.5158 4.10783 13.4461 4.21233 13.4095 4.337C13.3728 4.46167 13.3691 4.58817 13.3985 4.7165C13.4278 4.84483 13.4901 4.953 13.5855 5.041L15.8185 7.263L15.2905 10.387C15.2685 10.519 15.2831 10.6437 15.3345 10.761C15.3858 10.8783 15.4628 10.9773 15.5655 11.058C15.6681 11.1387 15.7855 11.1827 15.9175 11.19C16.0495 11.1973 16.1741 11.1717 16.2915 11.113L19.0525 9.639L21.8135 11.113C21.9308 11.1717 22.0536 11.1973 22.182 11.19C22.3103 11.1827 22.4295 11.1405 22.5395 11.0635C22.6495 10.9865 22.7283 10.8875 22.776 10.7665C22.8236 10.6455 22.8365 10.519 22.8145 10.387L22.2755 7.263L24.5195 5.041C24.6148 4.953 24.6771 4.84483 24.7065 4.7165C24.7358 4.58817 24.7285 4.46167 24.6845 4.337C24.6405 4.21233 24.5708 4.10783 24.4755 4.0235C24.3801 3.93917 24.2665 3.88967 24.1345 3.875L21.0545 3.424L19.6685 0.575002Z" fill="#D1D5DB"/>
<path d="M33.0435 0.575002C32.9848 0.457668 32.9005 0.364168 32.7905 0.294501C32.6805 0.224834 32.5595 0.190001 32.4275 0.190001C32.2955 0.190001 32.1726 0.224834 32.059 0.294501C31.9453 0.364168 31.8591 0.457668 31.8005 0.575002L30.4255 3.424L27.3345 3.875C27.2098 3.88967 27.0961 3.93917 26.9935 4.0235C26.8908 4.10783 26.8211 4.21233 26.7845 4.337C26.7478 4.46167 26.7441 4.58817 26.7735 4.7165C26.8028 4.84483 26.8651 4.953 26.9605 5.041L29.1935 7.263L28.6655 10.387C28.6435 10.519 28.6581 10.6437 28.7095 10.761C28.7608 10.8783 28.8378 10.9773 28.9405 11.058C29.0431 11.1387 29.1605 11.1827 29.2925 11.19C29.4245 11.1973 29.5491 11.1717 29.6665 11.113L32.4275 9.639L35.1885 11.113C35.3058 11.1717 35.4286 11.1973 35.557 11.19C35.6853 11.1827 35.8045 11.1405 35.9145 11.0635C36.0245 10.9865 36.1033 10.8875 36.151 10.7665C36.1986 10.6455 36.2115 10.519 36.1895 10.387L35.6505 7.263L37.8945 5.041C37.9898 4.953 38.0521 4.84483 38.0815 4.7165C38.1108 4.58817 38.1035 4.46167 38.0595 4.337C38.0155 4.21233 37.9458 4.10783 37.8505 4.0235C37.7551 3.93917 37.6415 3.88967 37.5095 3.875L34.4295 3.424L33.0435 0.575002Z" fill="#D1D5DB"/>
<path d="M46.4185 0.575002C46.3598 0.457668 46.2755 0.364168 46.1655 0.294501C46.0555 0.224834 45.9345 0.190001 45.8025 0.190001C45.6705 0.190001 45.5476 0.224834 45.434 0.294501C45.3203 0.364168 45.2341 0.457668 45.1755 0.575002L43.8005 3.424L40.7095 3.875C40.5848 3.88967 40.4711 3.93917 40.3685 4.0235C40.2658 4.10783 40.1961 4.21233 40.1595 4.337C40.1228 4.46167 40.1191 4.58817 40.1485 4.7165C40.1778 4.84483 40.2401 4.953 40.3355 5.041L42.5685 7.263L42.0405 10.387C42.0185 10.519 42.0331 10.6437 42.0845 10.761C42.1358 10.8783 42.2128 10.9773 42.3155 11.058C42.4181 11.1387 42.5355 11.1827 42.6675 11.19C42.7995 11.1973 42.9241 11.1717 43.0415 11.113L45.8025 9.639L48.5635 11.113C48.6808 11.1717 48.8036 11.1973 48.932 11.19C49.0603 11.1827 49.1795 11.1405 49.2895 11.0635C49.3995 10.9865 49.4783 10.8875 49.526 10.7665C49.5736 10.6455 49.5865 10.519 49.5645 10.387L49.0255 7.263L51.2695 5.041C51.3648 4.953 51.4271 4.84483 51.4565 4.7165C51.4858 4.58817 51.4785 4.46167 51.4345 4.337C51.3905 4.21233 51.3208 4.10783 51.2255 4.0235C51.1301 3.93917 51.0165 3.88967 50.8845 3.875L47.8045 3.424L46.4185 0.575002Z" fill="#D1D5DB"/>
<path d="M59.7935 0.575002C59.7348 0.457668 59.6505 0.364168 59.5405 0.294501C59.4305 0.224834 59.3095 0.190001 59.1775 0.190001C59.0455 0.190001 58.9226 0.224834 58.809 0.294501C58.6953 0.364168 58.6091 0.457668 58.5505 0.575002L57.1755 3.424L54.0845 3.875C53.9598 3.88967 53.8461 3.93917 53.7435 4.0235C53.6408 4.10783 53.5711 4.21233 53.5345 4.337C53.4978 4.46167 53.4941 4.58817 53.5235 4.7165C53.5528 4.84483 53.6151 4.953 53.7105 5.041L55.9435 7.263L55.4155 10.387C55.3935 10.519 55.4081 10.6437 55.4595 10.761C55.5108 10.8783 55.5878 10.9773 55.6905 11.058C55.7931 11.1387 55.9105 11.1827 56.0425 11.19C56.1745 11.1973 56.2991 11.1717 56.4165 11.113L59.1775 9.639L61.9385 11.113C62.0558 11.1717 62.1786 11.1973 62.307 11.19C62.4353 11.1827 62.5545 11.1405 62.6645 11.0635C62.7745 10.9865 62.8533 10.8875 62.901 10.7665C62.9486 10.6455 62.9615 10.519 62.9395 10.387L62.4005 7.263L64.6445 5.041C64.7398 4.953 64.8021 4.84483 64.8315 4.7165C64.8608 4.58817 64.8535 4.46167 64.8095 4.337C64.7655 4.21233 64.6958 4.10783 64.6005 4.0235C64.5051 3.93917 64.3915 3.88967 64.2595 3.875L61.1795 3.424L59.7935 0.575002Z" fill="#D1D5DB"/>
</g>
<g clip-path="url(#clip2_6314_7014)">
<g clip-path="url(#clip3_6314_7014)">
<path d="M6.29346 0.575002C6.2348 0.457668 6.15046 0.364168 6.04046 0.294501C5.93046 0.224834 5.80946 0.190001 5.67746 0.190001C5.54546 0.190001 5.42263 0.224834 5.30896 0.294501C5.19529 0.364168 5.10913 0.457668 5.05046 0.575002L3.67546 3.424L0.584462 3.875C0.459795 3.88967 0.346128 3.93917 0.243462 4.0235C0.140795 4.10783 0.0711285 4.21233 0.0344618 4.337C-0.00220486 4.46167 -0.00587153 4.58817 0.0234618 4.7165C0.0527951 4.84483 0.115128 4.953 0.210462 5.041L2.44346 7.263L1.91546 10.387C1.89346 10.519 1.90813 10.6437 1.95946 10.761C2.0108 10.8783 2.0878 10.9773 2.19046 11.058C2.29313 11.1387 2.41046 11.1827 2.54246 11.19C2.67446 11.1973 2.79913 11.1717 2.91646 11.113L5.67746 9.639L8.43846 11.113C8.55579 11.1717 8.67863 11.1973 8.80696 11.19C8.9353 11.1827 9.05446 11.1405 9.16446 11.0635C9.27446 10.9865 9.3533 10.8875 9.40096 10.7665C9.44863 10.6455 9.46146 10.519 9.43946 10.387L8.90046 7.263L11.1445 5.041C11.2398 4.953 11.3021 4.84483 11.3315 4.7165C11.3608 4.58817 11.3535 4.46167 11.3095 4.337C11.2655 4.21233 11.1958 4.10783 11.1005 4.0235C11.0051 3.93917 10.8915 3.88967 10.7595 3.875L7.67946 3.424L6.29346 0.575002Z" fill="#FACC15"/>
<path d="M19.6685 0.575002C19.6098 0.457668 19.5255 0.364168 19.4155 0.294501C19.3055 0.224834 19.1845 0.190001 19.0525 0.190001C18.9205 0.190001 18.7976 0.224834 18.684 0.294501C18.5703 0.364168 18.4841 0.457668 18.4255 0.575002L17.0505 3.424L13.9595 3.875C13.8348 3.88967 13.7211 3.93917 13.6185 4.0235C13.5158 4.10783 13.4461 4.21233 13.4095 4.337C13.3728 4.46167 13.3691 4.58817 13.3985 4.7165C13.4278 4.84483 13.4901 4.953 13.5855 5.041L15.8185 7.263L15.2905 10.387C15.2685 10.519 15.2831 10.6437 15.3345 10.761C15.3858 10.8783 15.4628 10.9773 15.5655 11.058C15.6681 11.1387 15.7855 11.1827 15.9175 11.19C16.0495 11.1973 16.1741 11.1717 16.2915 11.113L19.0525 9.639L21.8135 11.113C21.9308 11.1717 22.0536 11.1973 22.182 11.19C22.3103 11.1827 22.4295 11.1405 22.5395 11.0635C22.6495 10.9865 22.7283 10.8875 22.776 10.7665C22.8236 10.6455 22.8365 10.519 22.8145 10.387L22.2755 7.263L24.5195 5.041C24.6148 4.953 24.6771 4.84483 24.7065 4.7165C24.7358 4.58817 24.7285 4.46167 24.6845 4.337C24.6405 4.21233 24.5708 4.10783 24.4755 4.0235C24.3801 3.93917 24.2665 3.88967 24.1345 3.875L21.0545 3.424L19.6685 0.575002Z" fill="#FACC15"/>
<path d="M33.0435 0.575002C32.9848 0.457668 32.9005 0.364168 32.7905 0.294501C32.6805 0.224834 32.5595 0.190001 32.4275 0.190001C32.2955 0.190001 32.1726 0.224834 32.059 0.294501C31.9453 0.364168 31.8591 0.457668 31.8005 0.575002L30.4255 3.424L27.3345 3.875C27.2098 3.88967 27.0961 3.93917 26.9935 4.0235C26.8908 4.10783 26.8211 4.21233 26.7845 4.337C26.7478 4.46167 26.7441 4.58817 26.7735 4.7165C26.8028 4.84483 26.8651 4.953 26.9605 5.041L29.1935 7.263L28.6655 10.387C28.6435 10.519 28.6581 10.6437 28.7095 10.761C28.7608 10.8783 28.8378 10.9773 28.9405 11.058C29.0431 11.1387 29.1605 11.1827 29.2925 11.19C29.4245 11.1973 29.5491 11.1717 29.6665 11.113L32.4275 9.639L35.1885 11.113C35.3058 11.1717 35.4286 11.1973 35.557 11.19C35.6853 11.1827 35.8045 11.1405 35.9145 11.0635C36.0245 10.9865 36.1033 10.8875 36.151 10.7665C36.1986 10.6455 36.2115 10.519 36.1895 10.387L35.6505 7.263L37.8945 5.041C37.9898 4.953 38.0521 4.84483 38.0815 4.7165C38.1108 4.58817 38.1035 4.46167 38.0595 4.337C38.0155 4.21233 37.9458 4.10783 37.8505 4.0235C37.7551 3.93917 37.6415 3.88967 37.5095 3.875L34.4295 3.424L33.0435 0.575002Z" fill="#FACC15"/>
<path d="M46.4185 0.575002C46.3598 0.457668 46.2755 0.364168 46.1655 0.294501C46.0555 0.224834 45.9345 0.190001 45.8025 0.190001C45.6705 0.190001 45.5476 0.224834 45.434 0.294501C45.3203 0.364168 45.2341 0.457668 45.1755 0.575002L43.8005 3.424L40.7095 3.875C40.5848 3.88967 40.4711 3.93917 40.3685 4.0235C40.2658 4.10783 40.1961 4.21233 40.1595 4.337C40.1228 4.46167 40.1191 4.58817 40.1485 4.7165C40.1778 4.84483 40.2401 4.953 40.3355 5.041L42.5685 7.263L42.0405 10.387C42.0185 10.519 42.0331 10.6437 42.0845 10.761C42.1358 10.8783 42.2128 10.9773 42.3155 11.058C42.4181 11.1387 42.5355 11.1827 42.6675 11.19C42.7995 11.1973 42.9241 11.1717 43.0415 11.113L45.8025 9.639L48.5635 11.113C48.6808 11.1717 48.8036 11.1973 48.932 11.19C49.0603 11.1827 49.1795 11.1405 49.2895 11.0635C49.3995 10.9865 49.4783 10.8875 49.526 10.7665C49.5736 10.6455 49.5865 10.519 49.5645 10.387L49.0255 7.263L51.2695 5.041C51.3648 4.953 51.4271 4.84483 51.4565 4.7165C51.4858 4.58817 51.4785 4.46167 51.4345 4.337C51.3905 4.21233 51.3208 4.10783 51.2255 4.0235C51.1301 3.93917 51.0165 3.88967 50.8845 3.875L47.8045 3.424L46.4185 0.575002Z" fill="#FACC15"/>
</g>
</g>
</g>
<defs>
<clipPath id="clip0_6314_7014">
<rect width="66.88" height="11" fill="white" transform="translate(0 0.190002)"/>
</clipPath>
<clipPath id="clip1_6314_7014">
<rect width="66.88" height="11" fill="white" transform="matrix(1 0 0 -1 0 11.19)"/>
</clipPath>
<clipPath id="clip2_6314_7014">
<rect width="40.13" height="11" fill="white" transform="translate(0 0.190002)"/>
</clipPath>
<clipPath id="clip3_6314_7014">
<rect width="66.88" height="11" fill="white" transform="matrix(1 0 0 -1 0 11.19)"/>
</clipPath>
</defs>
</svg>
