<svg width="67" height="12" viewBox="0 0 67 12" fill="none" xmlns="http://www.w3.org/2000/svg">
<g clip-path="url(#clip0_6314_1691)">
<g clip-path="url(#clip1_6314_1691)">
<path d="M6.29346 0.674916C6.2348 0.557583 6.15046 0.464083 6.04046 0.394416C5.93046 0.324749 5.80946 0.289916 5.67746 0.289916C5.54546 0.289916 5.42263 0.324749 5.30896 0.394416C5.19529 0.464083 5.10913 0.557583 5.05046 0.674916L3.67546 3.52392L0.584462 3.97492C0.459795 3.98958 0.346128 4.03908 0.243462 4.12342C0.140795 4.20775 0.0711285 4.31225 0.0344618 4.43692C-0.00220486 4.56158 -0.00587153 4.68808 0.0234618 4.81642C0.0527951 4.94475 0.115128 5.05292 0.210462 5.14092L2.44346 7.36292L1.91546 10.4869C1.89346 10.6189 1.90813 10.7436 1.95946 10.8609C2.0108 10.9782 2.0878 11.0772 2.19046 11.1579C2.29313 11.2386 2.41046 11.2826 2.54246 11.2899C2.67446 11.2972 2.79913 11.2716 2.91646 11.2129L5.67746 9.73892L8.43846 11.2129C8.55579 11.2716 8.67863 11.2972 8.80696 11.2899C8.9353 11.2826 9.05446 11.2404 9.16446 11.1634C9.27446 11.0864 9.3533 10.9874 9.40096 10.8664C9.44863 10.7454 9.46146 10.6189 9.43946 10.4869L8.90046 7.36292L11.1445 5.14092C11.2398 5.05292 11.3021 4.94475 11.3315 4.81642C11.3608 4.68808 11.3535 4.56158 11.3095 4.43692C11.2655 4.31225 11.1958 4.20775 11.1005 4.12342C11.0051 4.03908 10.8915 3.98958 10.7595 3.97492L7.67946 3.52392L6.29346 0.674916Z" fill="#D1D5DB"/>
<path d="M19.6685 0.674916C19.6098 0.557583 19.5255 0.464083 19.4155 0.394416C19.3055 0.324749 19.1845 0.289916 19.0525 0.289916C18.9205 0.289916 18.7976 0.324749 18.684 0.394416C18.5703 0.464083 18.4841 0.557583 18.4255 0.674916L17.0505 3.52392L13.9595 3.97492C13.8348 3.98958 13.7211 4.03908 13.6185 4.12342C13.5158 4.20775 13.4461 4.31225 13.4095 4.43692C13.3728 4.56158 13.3691 4.68808 13.3985 4.81642C13.4278 4.94475 13.4901 5.05292 13.5855 5.14092L15.8185 7.36292L15.2905 10.4869C15.2685 10.6189 15.2831 10.7436 15.3345 10.8609C15.3858 10.9782 15.4628 11.0772 15.5655 11.1579C15.6681 11.2386 15.7855 11.2826 15.9175 11.2899C16.0495 11.2972 16.1741 11.2716 16.2915 11.2129L19.0525 9.73892L21.8135 11.2129C21.9308 11.2716 22.0536 11.2972 22.182 11.2899C22.3103 11.2826 22.4295 11.2404 22.5395 11.1634C22.6495 11.0864 22.7283 10.9874 22.776 10.8664C22.8236 10.7454 22.8365 10.6189 22.8145 10.4869L22.2755 7.36292L24.5195 5.14092C24.6148 5.05292 24.6771 4.94475 24.7065 4.81642C24.7358 4.68808 24.7285 4.56158 24.6845 4.43692C24.6405 4.31225 24.5708 4.20775 24.4755 4.12342C24.3801 4.03908 24.2665 3.98958 24.1345 3.97492L21.0545 3.52392L19.6685 0.674916Z" fill="#D1D5DB"/>
<path d="M33.0435 0.674916C32.9848 0.557583 32.9005 0.464083 32.7905 0.394416C32.6805 0.324749 32.5595 0.289916 32.4275 0.289916C32.2955 0.289916 32.1726 0.324749 32.059 0.394416C31.9453 0.464083 31.8591 0.557583 31.8005 0.674916L30.4255 3.52392L27.3345 3.97492C27.2098 3.98958 27.0961 4.03908 26.9935 4.12342C26.8908 4.20775 26.8211 4.31225 26.7845 4.43692C26.7478 4.56158 26.7441 4.68808 26.7735 4.81642C26.8028 4.94475 26.8651 5.05292 26.9605 5.14092L29.1935 7.36292L28.6655 10.4869C28.6435 10.6189 28.6581 10.7436 28.7095 10.8609C28.7608 10.9782 28.8378 11.0772 28.9405 11.1579C29.0431 11.2386 29.1605 11.2826 29.2925 11.2899C29.4245 11.2972 29.5491 11.2716 29.6665 11.2129L32.4275 9.73892L35.1885 11.2129C35.3058 11.2716 35.4286 11.2972 35.557 11.2899C35.6853 11.2826 35.8045 11.2404 35.9145 11.1634C36.0245 11.0864 36.1033 10.9874 36.151 10.8664C36.1986 10.7454 36.2115 10.6189 36.1895 10.4869L35.6505 7.36292L37.8945 5.14092C37.9898 5.05292 38.0521 4.94475 38.0815 4.81642C38.1108 4.68808 38.1035 4.56158 38.0595 4.43692C38.0155 4.31225 37.9458 4.20775 37.8505 4.12342C37.7551 4.03908 37.6415 3.98958 37.5095 3.97492L34.4295 3.52392L33.0435 0.674916Z" fill="#D1D5DB"/>
<path d="M46.4185 0.674916C46.3598 0.557583 46.2755 0.464083 46.1655 0.394416C46.0555 0.324749 45.9345 0.289916 45.8025 0.289916C45.6705 0.289916 45.5476 0.324749 45.434 0.394416C45.3203 0.464083 45.2341 0.557583 45.1755 0.674916L43.8005 3.52392L40.7095 3.97492C40.5848 3.98958 40.4711 4.03908 40.3685 4.12342C40.2658 4.20775 40.1961 4.31225 40.1595 4.43692C40.1228 4.56158 40.1191 4.68808 40.1485 4.81642C40.1778 4.94475 40.2401 5.05292 40.3355 5.14092L42.5685 7.36292L42.0405 10.4869C42.0185 10.6189 42.0331 10.7436 42.0845 10.8609C42.1358 10.9782 42.2128 11.0772 42.3155 11.1579C42.4181 11.2386 42.5355 11.2826 42.6675 11.2899C42.7995 11.2972 42.9241 11.2716 43.0415 11.2129L45.8025 9.73892L48.5635 11.2129C48.6808 11.2716 48.8036 11.2972 48.932 11.2899C49.0603 11.2826 49.1795 11.2404 49.2895 11.1634C49.3995 11.0864 49.4783 10.9874 49.526 10.8664C49.5736 10.7454 49.5865 10.6189 49.5645 10.4869L49.0255 7.36292L51.2695 5.14092C51.3648 5.05292 51.4271 4.94475 51.4565 4.81642C51.4858 4.68808 51.4785 4.56158 51.4345 4.43692C51.3905 4.31225 51.3208 4.20775 51.2255 4.12342C51.1301 4.03908 51.0165 3.98958 50.8845 3.97492L47.8045 3.52392L46.4185 0.674916Z" fill="#D1D5DB"/>
<path d="M59.7935 0.674916C59.7348 0.557583 59.6505 0.464083 59.5405 0.394416C59.4305 0.324749 59.3095 0.289916 59.1775 0.289916C59.0455 0.289916 58.9226 0.324749 58.809 0.394416C58.6953 0.464083 58.6091 0.557583 58.5505 0.674916L57.1755 3.52392L54.0845 3.97492C53.9598 3.98958 53.8461 4.03908 53.7435 4.12342C53.6408 4.20775 53.5711 4.31225 53.5345 4.43692C53.4978 4.56158 53.4941 4.68808 53.5235 4.81642C53.5528 4.94475 53.6151 5.05292 53.7105 5.14092L55.9435 7.36292L55.4155 10.4869C55.3935 10.6189 55.4081 10.7436 55.4595 10.8609C55.5108 10.9782 55.5878 11.0772 55.6905 11.1579C55.7931 11.2386 55.9105 11.2826 56.0425 11.2899C56.1745 11.2972 56.2991 11.2716 56.4165 11.2129L59.1775 9.73892L61.9385 11.2129C62.0558 11.2716 62.1786 11.2972 62.307 11.2899C62.4353 11.2826 62.5545 11.2404 62.6645 11.1634C62.7745 11.0864 62.8533 10.9874 62.901 10.8664C62.9486 10.7454 62.9615 10.6189 62.9395 10.4869L62.4005 7.36292L64.6445 5.14092C64.7398 5.05292 64.8021 4.94475 64.8315 4.81642C64.8608 4.68808 64.8535 4.56158 64.8095 4.43692C64.7655 4.31225 64.6958 4.20775 64.6005 4.12342C64.5051 4.03908 64.3915 3.98958 64.2595 3.97492L61.1795 3.52392L59.7935 0.674916Z" fill="#D1D5DB"/>
</g>
<g clip-path="url(#clip2_6314_1691)">
<g clip-path="url(#clip3_6314_1691)">
<path d="M6.29346 0.674916C6.2348 0.557583 6.15046 0.464083 6.04046 0.394416C5.93046 0.324749 5.80946 0.289916 5.67746 0.289916C5.54546 0.289916 5.42263 0.324749 5.30896 0.394416C5.19529 0.464083 5.10913 0.557583 5.05046 0.674916L3.67546 3.52392L0.584462 3.97492C0.459795 3.98958 0.346128 4.03908 0.243462 4.12342C0.140795 4.20775 0.0711285 4.31225 0.0344618 4.43692C-0.00220486 4.56158 -0.00587153 4.68808 0.0234618 4.81642C0.0527951 4.94475 0.115128 5.05292 0.210462 5.14092L2.44346 7.36292L1.91546 10.4869C1.89346 10.6189 1.90813 10.7436 1.95946 10.8609C2.0108 10.9782 2.0878 11.0772 2.19046 11.1579C2.29313 11.2386 2.41046 11.2826 2.54246 11.2899C2.67446 11.2972 2.79913 11.2716 2.91646 11.2129L5.67746 9.73892L8.43846 11.2129C8.55579 11.2716 8.67863 11.2972 8.80696 11.2899C8.9353 11.2826 9.05446 11.2404 9.16446 11.1634C9.27446 11.0864 9.3533 10.9874 9.40096 10.8664C9.44863 10.7454 9.46146 10.6189 9.43946 10.4869L8.90046 7.36292L11.1445 5.14092C11.2398 5.05292 11.3021 4.94475 11.3315 4.81642C11.3608 4.68808 11.3535 4.56158 11.3095 4.43692C11.2655 4.31225 11.1958 4.20775 11.1005 4.12342C11.0051 4.03908 10.8915 3.98958 10.7595 3.97492L7.67946 3.52392L6.29346 0.674916Z" fill="#FACC15"/>
<path d="M19.6685 0.674916C19.6098 0.557583 19.5255 0.464083 19.4155 0.394416C19.3055 0.324749 19.1845 0.289916 19.0525 0.289916C18.9205 0.289916 18.7976 0.324749 18.684 0.394416C18.5703 0.464083 18.4841 0.557583 18.4255 0.674916L17.0505 3.52392L13.9595 3.97492C13.8348 3.98958 13.7211 4.03908 13.6185 4.12342C13.5158 4.20775 13.4461 4.31225 13.4095 4.43692C13.3728 4.56158 13.3691 4.68808 13.3985 4.81642C13.4278 4.94475 13.4901 5.05292 13.5855 5.14092L15.8185 7.36292L15.2905 10.4869C15.2685 10.6189 15.2831 10.7436 15.3345 10.8609C15.3858 10.9782 15.4628 11.0772 15.5655 11.1579C15.6681 11.2386 15.7855 11.2826 15.9175 11.2899C16.0495 11.2972 16.1741 11.2716 16.2915 11.2129L19.0525 9.73892L21.8135 11.2129C21.9308 11.2716 22.0536 11.2972 22.182 11.2899C22.3103 11.2826 22.4295 11.2404 22.5395 11.1634C22.6495 11.0864 22.7283 10.9874 22.776 10.8664C22.8236 10.7454 22.8365 10.6189 22.8145 10.4869L22.2755 7.36292L24.5195 5.14092C24.6148 5.05292 24.6771 4.94475 24.7065 4.81642C24.7358 4.68808 24.7285 4.56158 24.6845 4.43692C24.6405 4.31225 24.5708 4.20775 24.4755 4.12342C24.3801 4.03908 24.2665 3.98958 24.1345 3.97492L21.0545 3.52392L19.6685 0.674916Z" fill="#FACC15"/>
<path d="M33.0435 0.674916C32.9848 0.557583 32.9005 0.464083 32.7905 0.394416C32.6805 0.324749 32.5595 0.289916 32.4275 0.289916C32.2955 0.289916 32.1726 0.324749 32.059 0.394416C31.9453 0.464083 31.8591 0.557583 31.8005 0.674916L30.4255 3.52392L27.3345 3.97492C27.2098 3.98958 27.0961 4.03908 26.9935 4.12342C26.8908 4.20775 26.8211 4.31225 26.7845 4.43692C26.7478 4.56158 26.7441 4.68808 26.7735 4.81642C26.8028 4.94475 26.8651 5.05292 26.9605 5.14092L29.1935 7.36292L28.6655 10.4869C28.6435 10.6189 28.6581 10.7436 28.7095 10.8609C28.7608 10.9782 28.8378 11.0772 28.9405 11.1579C29.0431 11.2386 29.1605 11.2826 29.2925 11.2899C29.4245 11.2972 29.5491 11.2716 29.6665 11.2129L32.4275 9.73892L35.1885 11.2129C35.3058 11.2716 35.4286 11.2972 35.557 11.2899C35.6853 11.2826 35.8045 11.2404 35.9145 11.1634C36.0245 11.0864 36.1033 10.9874 36.151 10.8664C36.1986 10.7454 36.2115 10.6189 36.1895 10.4869L35.6505 7.36292L37.8945 5.14092C37.9898 5.05292 38.0521 4.94475 38.0815 4.81642C38.1108 4.68808 38.1035 4.56158 38.0595 4.43692C38.0155 4.31225 37.9458 4.20775 37.8505 4.12342C37.7551 4.03908 37.6415 3.98958 37.5095 3.97492L34.4295 3.52392L33.0435 0.674916Z" fill="#FACC15"/>
<path d="M46.4185 0.674916C46.3598 0.557583 46.2755 0.464083 46.1655 0.394416C46.0555 0.324749 45.9345 0.289916 45.8025 0.289916C45.6705 0.289916 45.5476 0.324749 45.434 0.394416C45.3203 0.464083 45.2341 0.557583 45.1755 0.674916L43.8005 3.52392L40.7095 3.97492C40.5848 3.98958 40.4711 4.03908 40.3685 4.12342C40.2658 4.20775 40.1961 4.31225 40.1595 4.43692C40.1228 4.56158 40.1191 4.68808 40.1485 4.81642C40.1778 4.94475 40.2401 5.05292 40.3355 5.14092L42.5685 7.36292L42.0405 10.4869C42.0185 10.6189 42.0331 10.7436 42.0845 10.8609C42.1358 10.9782 42.2128 11.0772 42.3155 11.1579C42.4181 11.2386 42.5355 11.2826 42.6675 11.2899C42.7995 11.2972 42.9241 11.2716 43.0415 11.2129L45.8025 9.73892L48.5635 11.2129C48.6808 11.2716 48.8036 11.2972 48.932 11.2899C49.0603 11.2826 49.1795 11.2404 49.2895 11.1634C49.3995 11.0864 49.4783 10.9874 49.526 10.8664C49.5736 10.7454 49.5865 10.6189 49.5645 10.4869L49.0255 7.36292L51.2695 5.14092C51.3648 5.05292 51.4271 4.94475 51.4565 4.81642C51.4858 4.68808 51.4785 4.56158 51.4345 4.43692C51.3905 4.31225 51.3208 4.20775 51.2255 4.12342C51.1301 4.03908 51.0165 3.98958 50.8845 3.97492L47.8045 3.52392L46.4185 0.674916Z" fill="#FACC15"/>
<path d="M59.7935 0.674916C59.7348 0.557583 59.6505 0.464083 59.5405 0.394416C59.4305 0.324749 59.3095 0.289916 59.1775 0.289916C59.0455 0.289916 58.9226 0.324749 58.809 0.394416C58.6953 0.464083 58.6091 0.557583 58.5505 0.674916L57.1755 3.52392L54.0845 3.97492C53.9598 3.98958 53.8461 4.03908 53.7435 4.12342C53.6408 4.20775 53.5711 4.31225 53.5345 4.43692C53.4978 4.56158 53.4941 4.68808 53.5235 4.81642C53.5528 4.94475 53.6151 5.05292 53.7105 5.14092L55.9435 7.36292L55.4155 10.4869C55.3935 10.6189 55.4081 10.7436 55.4595 10.8609C55.5108 10.9782 55.5878 11.0772 55.6905 11.1579C55.7931 11.2386 55.9105 11.2826 56.0425 11.2899C56.1745 11.2972 56.2991 11.2716 56.4165 11.2129L59.1775 9.73892L61.9385 11.2129C62.0558 11.2716 62.1786 11.2972 62.307 11.2899C62.4353 11.2826 62.5545 11.2404 62.6645 11.1634C62.7745 11.0864 62.8533 10.9874 62.901 10.8664C62.9486 10.7454 62.9615 10.6189 62.9395 10.4869L62.4005 7.36292L64.6445 5.14092C64.7398 5.05292 64.8021 4.94475 64.8315 4.81642C64.8608 4.68808 64.8535 4.56158 64.8095 4.43692C64.7655 4.31225 64.6958 4.20775 64.6005 4.12342C64.5051 4.03908 64.3915 3.98958 64.2595 3.97492L61.1795 3.52392L59.7935 0.674916Z" fill="#FACC15"/>
</g>
</g>
</g>
<defs>
<clipPath id="clip0_6314_1691">
<rect width="66.88" height="11" fill="white" transform="translate(0 0.289917)"/>
</clipPath>
<clipPath id="clip1_6314_1691">
<rect width="66.88" height="11" fill="white" transform="matrix(1 0 0 -1 0 11.2899)"/>
</clipPath>
<clipPath id="clip2_6314_1691">
<rect width="53.5" height="11" fill="white" transform="translate(0 0.289917)"/>
</clipPath>
<clipPath id="clip3_6314_1691">
<rect width="66.88" height="11" fill="white" transform="matrix(1 0 0 -1 0 11.2899)"/>
</clipPath>
</defs>
</svg>
