<svg width="33" height="33" viewBox="0 0 33 33" fill="none" xmlns="http://www.w3.org/2000/svg">
<rect x="0.671875" y="0.5" width="32" height="32" rx="16" fill="white"/>
<g clip-path="url(#clip0_6314_1961)">
<path d="M18.6619 8.25C17.8993 8.25 17.1696 8.415 16.4729 8.745C15.7763 9.075 15.1933 9.51867 14.7239 10.076C14.2693 9.48933 13.6973 9.03833 13.0079 8.723C12.3186 8.40767 11.5779 8.25 10.7859 8.25C9.89127 8.25 9.05527 8.47 8.27794 8.91C7.52994 9.33533 6.93594 9.91467 6.49594 10.648C6.05594 11.3813 5.83594 12.1733 5.83594 13.024C5.83594 14.6227 6.2686 16.1993 7.13394 17.754C7.82327 19.0007 8.78394 20.2107 10.0159 21.384C10.8959 22.2347 11.8786 23.0193 12.9639 23.738C13.6386 24.2073 14.1373 24.5153 14.4599 24.662C14.5186 24.7207 14.6066 24.75 14.7239 24.75C14.8413 24.75 14.9659 24.7207 15.0979 24.662C15.4499 24.486 15.9486 24.178 16.5939 23.738C17.6646 23.0193 18.6473 22.2347 19.5419 21.384C20.7593 20.2107 21.7126 19.0007 22.4019 17.754C23.2673 16.1993 23.6999 14.6227 23.6999 13.024C23.6999 12.1733 23.4726 11.3813 23.0179 10.648C22.5633 9.91467 21.9473 9.33167 21.1699 8.899C20.3926 8.46633 19.5566 8.25 18.6619 8.25ZM14.7239 23.276C13.7853 22.704 12.9199 22.0953 12.1279 21.45C10.7346 20.3207 9.6346 19.1547 8.82794 17.952C7.7426 16.3533 7.19994 14.74 7.19994 13.112C7.19994 12.4813 7.36494 11.8983 7.69494 11.363C8.02494 10.8277 8.46494 10.4023 9.01494 10.087C9.56494 9.77167 10.1553 9.614 10.7859 9.614C11.5193 9.614 12.1829 9.80467 12.7769 10.186C13.3709 10.5673 13.8073 11.0807 14.0859 11.726C14.1446 11.8727 14.2583 11.9753 14.4269 12.034C14.5956 12.0927 14.7716 12.0927 14.9549 12.034C15.1383 11.9753 15.2739 11.8727 15.3619 11.726C15.6406 11.0807 16.0806 10.5673 16.6819 10.186C17.2833 9.80467 17.9433 9.614 18.6619 9.614C19.3219 9.614 19.9269 9.77167 20.4769 10.087C21.0269 10.4023 21.4596 10.8277 21.7749 11.363C22.0903 11.8983 22.2479 12.4813 22.2479 13.112C22.2479 14.7107 21.7053 16.3093 20.6199 17.908C19.7986 19.1107 18.6986 20.284 17.3199 21.428C16.4986 22.1027 15.6333 22.7187 14.7239 23.276Z" fill="#030712"/>
</g>
<defs>
<clipPath id="clip0_6314_1961">
<rect width="21.69" height="22" fill="white" transform="matrix(1 0 0 -1 5.83203 27.5)"/>
</clipPath>
</defs>
</svg>
