<svg width="36" height="35" viewBox="0 0 36 35" fill="none" xmlns="http://www.w3.org/2000/svg">
<rect y="0.449951" width="36" height="34" rx="8" fill="#16A34A"/>
<path d="M24.94 9.94995H8.7C8.5 9.97662 8.33333 10.07 8.2 10.23C8.06667 10.39 8 10.57 8 10.77C8 10.97 8.06667 11.1533 8.2 11.32C8.33333 11.4866 8.5 11.5833 8.7 11.61H11.92L11.34 18.99V19.13C11.34 19.5833 11.5033 19.9733 11.83 20.3C12.1567 20.6266 12.5467 20.79 13 20.79H23.22C23.62 20.79 23.97 20.6666 24.27 20.42C24.57 20.1733 24.76 19.87 24.84 19.51L26.56 11.99C26.5867 11.83 26.6 11.7033 26.6 11.61C26.6 11.1433 26.44 10.75 26.12 10.43C25.8 10.11 25.4067 9.94995 24.94 9.94995ZM23.22 19.11H13L13.58 11.61H24.94L23.22 19.11ZM14.54 24.95C15.0067 24.95 15.4033 24.7866 15.73 24.46C16.0567 24.1333 16.22 23.7366 16.22 23.27C16.22 22.8033 16.0567 22.41 15.73 22.09C15.4033 21.77 15.0067 21.61 14.54 21.61C14.0867 21.61 13.6967 21.77 13.37 22.09C13.0433 22.41 12.88 22.8033 12.88 23.27C12.88 23.7366 13.0433 24.1333 13.37 24.46C13.6967 24.7866 14.0867 24.95 14.54 24.95ZM22.04 24.95C22.5067 24.95 22.9033 24.7866 23.23 24.46C23.5567 24.1333 23.72 23.7366 23.72 23.27C23.72 22.8033 23.5567 22.41 23.23 22.09C22.9033 21.77 22.5067 21.61 22.04 21.61C21.5867 21.61 21.1967 21.77 20.87 22.09C20.5433 22.41 20.38 22.8033 20.38 23.27C20.38 23.7366 20.5433 24.1333 20.87 24.46C21.1967 24.7866 21.5867 24.95 22.04 24.95Z" fill="white"/>
</svg>
