<svg width="33" height="33" viewBox="0 0 33 33" fill="none" xmlns="http://www.w3.org/2000/svg">
<rect x="0.828125" y="0.300049" width="32" height="32" rx="6" fill="#3B5998"/>
<g clip-path="url(#clip0_6391_477)">
<path d="M24.5781 16.3C24.5781 12.0188 21.1094 8.55005 16.8281 8.55005C12.5469 8.55005 9.07812 12.0188 9.07812 16.3C9.07812 20.1682 11.9122 23.3744 15.6172 23.9563V18.5404H13.6484V16.3H15.6172V14.5925C15.6172 12.6504 16.7734 11.5775 18.5444 11.5775C19.3925 11.5775 20.2794 11.7288 20.2794 11.7288V13.635H19.3019C18.3394 13.635 18.0391 14.2325 18.0391 14.8454V16.3H20.1884L19.8447 18.5404H18.0391V23.9563C21.7441 23.3744 24.5781 20.1682 24.5781 16.3Z" fill="white"/>
</g>
<defs>
<clipPath id="clip0_6391_477">
<rect width="16" height="16" fill="white" transform="translate(8.82812 8.30005)"/>
</clipPath>
</defs>
</svg>
