<svg width="27" height="26" viewBox="0 0 27 26" fill="none" xmlns="http://www.w3.org/2000/svg">
<path d="M13.5556 11.1018C12.7236 11.6391 11.8222 11.9078 10.8516 11.9078C10.2102 11.9078 9.59056 11.7821 8.99256 11.5308C8.39456 11.2795 7.8659 10.9285 7.40656 10.4778C6.94723 10.0271 6.59623 9.5028 6.35356 8.9048C6.1109 8.3068 5.98956 7.68713 5.98956 7.0458C5.98956 6.04046 6.26256 5.13046 6.80856 4.3158C7.35456 3.50113 8.0739 2.90746 8.96656 2.5348C9.85923 2.16213 10.8082 2.07113 11.8136 2.2618C12.7496 2.43513 13.5729 2.8728 14.2836 3.5748C14.9942 4.2768 15.4406 5.1088 15.6226 6.0708C15.8046 7.0328 15.7136 7.97313 15.3496 8.8918C14.9856 9.81046 14.3876 10.5471 13.5556 11.1018ZM12.3596 4.7838C11.9089 4.48913 11.4062 4.3418 10.8516 4.3418C10.1236 4.3418 9.48223 4.6018 8.92756 5.1218C8.40756 5.67646 8.14756 6.3178 8.14756 7.0458C8.14756 7.60046 8.29923 8.10313 8.60256 8.5538C8.9059 9.00446 9.3089 9.3338 9.81156 9.5418C10.3142 9.7498 10.8342 9.8018 11.3716 9.6978C11.9089 9.5938 12.3726 9.3468 12.7626 8.9568C13.1526 8.5668 13.3996 8.10313 13.5036 7.5658C13.6076 7.02847 13.5556 6.50846 13.3476 6.0058C13.1396 5.50313 12.8102 5.0958 12.3596 4.7838ZM3.96156 15.8598C4.8629 14.9411 5.91156 14.2348 7.10756 13.7408C8.30356 13.2468 9.55156 12.9998 10.8516 12.9998C12.1516 12.9998 13.3996 13.2468 14.5956 13.7408C15.7916 14.2348 16.8446 14.9368 17.7546 15.8468C18.6646 16.7568 19.3666 17.8098 19.8606 19.0058C20.3546 20.2018 20.6016 21.4498 20.6016 22.7498C20.6016 23.0618 20.4889 23.3218 20.2636 23.5298C20.0382 23.7378 19.7869 23.8418 19.5096 23.8418H14.1016C13.8069 23.8418 13.5512 23.7335 13.3346 23.5168C13.1179 23.3001 13.0096 23.0445 13.0096 22.7498C13.0096 22.4551 13.1179 22.1995 13.3346 21.9828C13.5512 21.7661 13.8069 21.6578 14.1016 21.6578H18.3656C18.2269 20.7565 17.9409 19.9028 17.5076 19.0968C17.0742 18.2908 16.5109 17.5931 15.8176 17.0038C15.1242 16.4145 14.3529 15.9595 13.5036 15.6388C12.6542 15.3181 11.7702 15.1578 10.8516 15.1578C9.9329 15.1578 9.0489 15.3181 8.19956 15.6388C7.35023 15.9595 6.5789 16.4145 5.88556 17.0038C5.19223 17.5931 4.6289 18.2908 4.19556 19.0968C3.76223 19.9028 3.47623 20.7565 3.33756 21.6578H7.60156C7.8789 21.6578 8.1389 21.7618 8.38156 21.9698C8.58956 22.2125 8.69356 22.4725 8.69356 22.7498C8.69356 23.0271 8.58956 23.2871 8.38156 23.5298C8.1389 23.7378 7.8789 23.8418 7.60156 23.8418H2.19356C1.91623 23.8418 1.6649 23.7378 1.43956 23.5298C1.21423 23.3218 1.10156 23.0618 1.10156 22.7498C1.10156 21.4498 1.34856 20.2061 1.84256 19.0188C2.33656 17.8315 3.0429 16.7785 3.96156 15.8598Z" fill="#030712"/>
</svg>
