<svg width="25" height="25" viewBox="0 0 25 25" fill="none" xmlns="http://www.w3.org/2000/svg">
<g clip-path="url(#clip0_6314_7934)">
<path d="M9.46816 1.486C7.88416 1.486 6.41216 1.886 5.05216 2.686C3.72416 3.454 2.66816 4.502 1.88416 5.83C1.06816 7.206 0.660156 8.694 0.660156 10.294C0.660156 12.006 1.24416 13.822 2.41216 15.742C3.29216 17.198 4.46816 18.67 5.94016 20.158C6.74016 20.958 7.65216 21.79 8.67616 22.654L8.96416 22.894C9.01216 22.942 9.08416 22.986 9.18016 23.026C9.27616 23.066 9.37616 23.086 9.48016 23.086C9.58416 23.086 9.67216 23.074 9.74416 23.05C9.81616 23.026 9.89216 22.974 9.97216 22.894L10.2602 22.654C11.2842 21.79 12.1962 20.958 12.9962 20.158C14.4682 18.67 15.6442 17.198 16.5242 15.742C17.6922 13.822 18.2762 12.006 18.2762 10.294C18.2762 8.694 17.8682 7.206 17.0522 5.83C16.2682 4.502 15.2122 3.454 13.8842 2.686C12.5242 1.886 11.0522 1.486 9.46816 1.486ZM9.46816 21.19C8.62016 20.502 7.75616 19.71 6.87616 18.814C5.58016 17.454 4.54816 16.126 3.78016 14.83C2.77216 13.15 2.26816 11.606 2.26816 10.198C2.26816 8.886 2.59616 7.67 3.25216 6.55C3.87616 5.462 4.73216 4.606 5.82016 3.982C6.94016 3.326 8.15616 2.998 9.46816 2.998C10.7802 2.998 11.9962 3.334 13.1162 4.006C14.2042 4.646 15.0682 5.518 15.7082 6.622C16.3482 7.726 16.6682 8.918 16.6682 10.198C16.6682 11.654 16.1642 13.222 15.1562 14.902C14.3882 16.182 13.3562 17.494 12.0602 18.838C11.2122 19.702 10.3482 20.486 9.46816 21.19ZM9.46816 6.478C8.78016 6.478 8.14816 6.65 7.57216 6.994C6.99616 7.338 6.53616 7.802 6.19216 8.386C5.84816 8.97 5.67616 9.606 5.67616 10.294C5.67616 10.982 5.84816 11.618 6.19216 12.202C6.53616 12.786 6.99616 13.246 7.57216 13.582C8.14816 13.918 8.78016 14.086 9.46816 14.086C10.1562 14.086 10.7922 13.914 11.3762 13.57C11.9602 13.226 12.4202 12.766 12.7562 12.19C13.0922 11.614 13.2602 10.982 13.2602 10.294C13.2602 9.606 13.0922 8.97 12.7562 8.386C12.4202 7.802 11.9602 7.338 11.3762 6.994C10.7922 6.65 10.1562 6.478 9.46816 6.478ZM9.46816 12.478C8.86016 12.478 8.34016 12.262 7.90816 11.83C7.47616 11.398 7.26016 10.886 7.26016 10.294C7.26016 9.894 7.36016 9.526 7.56016 9.19C7.76016 8.854 8.02816 8.586 8.36416 8.386C8.70016 8.186 9.06816 8.086 9.46816 8.086C9.86816 8.086 10.2362 8.186 10.5722 8.386C10.9082 8.586 11.1762 8.854 11.3762 9.19C11.5762 9.526 11.6762 9.894 11.6762 10.294C11.6762 10.886 11.4602 11.398 11.0282 11.83C10.5962 12.262 10.0762 12.478 9.46816 12.478Z" fill="#030712"/>
</g>
<defs>
<clipPath id="clip0_6314_7934">
<rect width="24" height="24" fill="white" transform="matrix(1 0 0 -1 0.5 24.19)"/>
</clipPath>
</defs>
</svg>
