<svg width="24" height="25" viewBox="0 0 24 25" fill="none" xmlns="http://www.w3.org/2000/svg">
<path d="M8.96816 1.48594C7.38416 1.48594 5.91216 1.88594 4.55216 2.68594C3.22416 3.45394 2.16816 4.50194 1.38416 5.82994C0.568156 7.20594 0.160156 8.69394 0.160156 10.2939C0.160156 12.0059 0.744156 13.8219 1.91216 15.7419C2.79216 17.1979 3.96816 18.6699 5.44016 20.1579C6.24016 20.9579 7.15216 21.7899 8.17616 22.6539L8.46416 22.8939C8.51216 22.9419 8.58416 22.9859 8.68016 23.0259C8.77616 23.0659 8.87616 23.0859 8.98016 23.0859C9.08416 23.0859 9.17216 23.0739 9.24416 23.0499C9.31616 23.0259 9.39216 22.9739 9.47216 22.8939L9.76016 22.6539C10.7842 21.7899 11.6962 20.9579 12.4962 20.1579C13.9682 18.6699 15.1442 17.1979 16.0242 15.7419C17.1922 13.8219 17.7762 12.0059 17.7762 10.2939C17.7762 8.69394 17.3682 7.20594 16.5522 5.82994C15.7682 4.50194 14.7122 3.45394 13.3842 2.68594C12.0242 1.88594 10.5522 1.48594 8.96816 1.48594ZM8.96816 21.1899C8.12016 20.5019 7.25616 19.7099 6.37616 18.8139C5.08016 17.4539 4.04816 16.1259 3.28016 14.8299C2.27216 13.1499 1.76816 11.6059 1.76816 10.1979C1.76816 8.88594 2.09616 7.66994 2.75216 6.54994C3.37616 5.46194 4.23216 4.60594 5.32016 3.98194C6.44016 3.32594 7.65616 2.99794 8.96816 2.99794C10.2802 2.99794 11.4962 3.33394 12.6162 4.00594C13.7042 4.64594 14.5682 5.51794 15.2082 6.62194C15.8482 7.72594 16.1682 8.91794 16.1682 10.1979C16.1682 11.6539 15.6642 13.2219 14.6562 14.9019C13.8882 16.1819 12.8562 17.4939 11.5602 18.8379C10.7122 19.7019 9.84816 20.4859 8.96816 21.1899ZM8.96816 6.47794C8.28016 6.47794 7.64816 6.64994 7.07216 6.99394C6.49616 7.33794 6.03616 7.80194 5.69216 8.38594C5.34816 8.96994 5.17616 9.60594 5.17616 10.2939C5.17616 10.9819 5.34816 11.6179 5.69216 12.2019C6.03616 12.7859 6.49616 13.2459 7.07216 13.5819C7.64816 13.9179 8.28016 14.0859 8.96816 14.0859C9.65616 14.0859 10.2922 13.9139 10.8762 13.5699C11.4602 13.2259 11.9202 12.7659 12.2562 12.1899C12.5922 11.6139 12.7602 10.9819 12.7602 10.2939C12.7602 9.60594 12.5922 8.96994 12.2562 8.38594C11.9202 7.80194 11.4602 7.33794 10.8762 6.99394C10.2922 6.64994 9.65616 6.47794 8.96816 6.47794ZM8.96816 12.4779C8.36016 12.4779 7.84016 12.2619 7.40816 11.8299C6.97616 11.3979 6.76016 10.8859 6.76016 10.2939C6.76016 9.89394 6.86016 9.52594 7.06016 9.18994C7.26016 8.85394 7.52816 8.58594 7.86416 8.38594C8.20016 8.18594 8.56816 8.08594 8.96816 8.08594C9.36816 8.08594 9.73616 8.18594 10.0722 8.38594C10.4082 8.58594 10.6762 8.85394 10.8762 9.18994C11.0762 9.52594 11.1762 9.89394 11.1762 10.2939C11.1762 10.8859 10.9602 11.3979 10.5282 11.8299C10.0962 12.2619 9.57616 12.4779 8.96816 12.4779Z" fill="#030712"/>
</svg>
