<svg width="24" height="24" viewBox="0 0 24 24" fill="none" xmlns="http://www.w3.org/2000/svg">
<path d="M8.96816 1.296C7.38416 1.296 5.91216 1.696 4.55216 2.496C3.22416 3.264 2.16816 4.312 1.38416 5.64C0.568156 7.016 0.160156 8.504 0.160156 10.104C0.160156 11.816 0.744156 13.632 1.91216 15.552C2.79216 17.008 3.96816 18.48 5.44016 19.968C6.24016 20.768 7.15216 21.6 8.17616 22.464L8.46416 22.704C8.51216 22.752 8.58416 22.796 8.68016 22.836C8.77616 22.876 8.87616 22.896 8.98016 22.896C9.08416 22.896 9.17216 22.884 9.24416 22.86C9.31616 22.836 9.39216 22.784 9.47216 22.704L9.76016 22.464C10.7842 21.6 11.6962 20.768 12.4962 19.968C13.9682 18.48 15.1442 17.008 16.0242 15.552C17.1922 13.632 17.7762 11.816 17.7762 10.104C17.7762 8.504 17.3682 7.016 16.5522 5.64C15.7682 4.312 14.7122 3.264 13.3842 2.496C12.0242 1.696 10.5522 1.296 8.96816 1.296ZM8.96816 21C8.12016 20.312 7.25616 19.52 6.37616 18.624C5.08016 17.264 4.04816 15.936 3.28016 14.64C2.27216 12.96 1.76816 11.416 1.76816 10.008C1.76816 8.696 2.09616 7.48 2.75216 6.36C3.37616 5.272 4.23216 4.416 5.32016 3.792C6.44016 3.136 7.65616 2.808 8.96816 2.808C10.2802 2.808 11.4962 3.144 12.6162 3.816C13.7042 4.456 14.5682 5.328 15.2082 6.432C15.8482 7.536 16.1682 8.728 16.1682 10.008C16.1682 11.464 15.6642 13.032 14.6562 14.712C13.8882 15.992 12.8562 17.304 11.5602 18.648C10.7122 19.512 9.84816 20.296 8.96816 21ZM8.96816 6.288C8.28016 6.288 7.64816 6.46 7.07216 6.804C6.49616 7.148 6.03616 7.612 5.69216 8.196C5.34816 8.78 5.17616 9.416 5.17616 10.104C5.17616 10.792 5.34816 11.428 5.69216 12.012C6.03616 12.596 6.49616 13.056 7.07216 13.392C7.64816 13.728 8.28016 13.896 8.96816 13.896C9.65616 13.896 10.2922 13.724 10.8762 13.38C11.4602 13.036 11.9202 12.576 12.2562 12C12.5922 11.424 12.7602 10.792 12.7602 10.104C12.7602 9.416 12.5922 8.78 12.2562 8.196C11.9202 7.612 11.4602 7.148 10.8762 6.804C10.2922 6.46 9.65616 6.288 8.96816 6.288ZM8.96816 12.288C8.36016 12.288 7.84016 12.072 7.40816 11.64C6.97616 11.208 6.76016 10.696 6.76016 10.104C6.76016 9.704 6.86016 9.336 7.06016 9C7.26016 8.664 7.52816 8.396 7.86416 8.196C8.20016 7.996 8.56816 7.896 8.96816 7.896C9.36816 7.896 9.73616 7.996 10.0722 8.196C10.4082 8.396 10.6762 8.664 10.8762 9C11.0762 9.336 11.1762 9.704 11.1762 10.104C11.1762 10.696 10.9602 11.208 10.5282 11.64C10.0962 12.072 9.57616 12.288 8.96816 12.288Z" fill="#030712"/>
</svg>
