<svg width="36" height="34" viewBox="0 0 36 34" fill="none" xmlns="http://www.w3.org/2000/svg">
<rect width="36" height="34" rx="8" fill="#16A34A"/>
<path d="M24.94 9.5H8.7C8.5 9.52667 8.33333 9.62 8.2 9.78C8.06667 9.94 8 10.12 8 10.32C8 10.52 8.06667 10.7033 8.2 10.87C8.33333 11.0367 8.5 11.1333 8.7 11.16H11.92L11.34 18.54V18.68C11.34 19.1333 11.5033 19.5233 11.83 19.85C12.1567 20.1767 12.5467 20.34 13 20.34H23.22C23.62 20.34 23.97 20.2167 24.27 19.97C24.57 19.7233 24.76 19.42 24.84 19.06L26.56 11.54C26.5867 11.38 26.6 11.2533 26.6 11.16C26.6 10.6933 26.44 10.3 26.12 9.98C25.8 9.66 25.4067 9.5 24.94 9.5ZM23.22 18.66H13L13.58 11.16H24.94L23.22 18.66ZM14.54 24.5C15.0067 24.5 15.4033 24.3367 15.73 24.01C16.0567 23.6833 16.22 23.2867 16.22 22.82C16.22 22.3533 16.0567 21.96 15.73 21.64C15.4033 21.32 15.0067 21.16 14.54 21.16C14.0867 21.16 13.6967 21.32 13.37 21.64C13.0433 21.96 12.88 22.3533 12.88 22.82C12.88 23.2867 13.0433 23.6833 13.37 24.01C13.6967 24.3367 14.0867 24.5 14.54 24.5ZM22.04 24.5C22.5067 24.5 22.9033 24.3367 23.23 24.01C23.5567 23.6833 23.72 23.2867 23.72 22.82C23.72 22.3533 23.5567 21.96 23.23 21.64C22.9033 21.32 22.5067 21.16 22.04 21.16C21.5867 21.16 21.1967 21.32 20.87 21.64C20.5433 21.96 20.38 22.3533 20.38 22.82C20.38 23.2867 20.5433 23.6833 20.87 24.01C21.1967 24.3367 21.5867 24.5 22.04 24.5Z" fill="white"/>
</svg>
