<svg width="27" height="26" viewBox="0 0 27 26" fill="none" xmlns="http://www.w3.org/2000/svg">
<g clip-path="url(#clip0_6314_2710)">
<path d="M7.44141 5.40801C6.66141 5.40801 5.93774 5.60301 5.27041 5.99301C4.60307 6.38301 4.07441 6.91168 3.68441 7.57901C3.29441 8.24634 3.09941 8.97001 3.09941 9.75001C3.09941 11.5353 3.61074 13.234 4.63341 14.846C5.46541 16.198 6.62674 17.4633 8.11741 18.642C9.45207 19.734 10.9861 20.696 12.7194 21.528L12.8494 21.58C14.6347 20.7307 16.2294 19.7427 17.6334 18.616L17.5814 18.642C19.0721 17.4633 20.2334 16.198 21.0654 14.846C22.0881 13.234 22.5994 11.5353 22.5994 9.75001C22.5994 8.97001 22.4044 8.24634 22.0144 7.57901C21.6244 6.91168 21.0957 6.38301 20.4284 5.99301C19.7611 5.60301 19.0374 5.40801 18.2574 5.40801C17.5641 5.40801 16.9097 5.55968 16.2944 5.86301C15.6791 6.16634 15.1591 6.58234 14.7344 7.11101C14.3097 7.63968 14.0367 8.23334 13.9154 8.89201C13.8634 9.13468 13.7377 9.33834 13.5384 9.50301C13.3391 9.66768 13.1094 9.75001 12.8494 9.75001C12.5894 9.75001 12.3597 9.66768 12.1604 9.50301C11.9611 9.33834 11.8354 9.13468 11.7834 8.89201C11.6621 8.23334 11.3891 7.63968 10.9644 7.11101C10.5397 6.58234 10.0197 6.16634 9.40441 5.86301C8.78907 5.55968 8.13474 5.40801 7.44141 5.40801ZM12.8494 23.842C12.6934 23.8247 12.5374 23.79 12.3814 23.738C12.2947 23.7033 12.1474 23.634 11.9394 23.53C10.0327 22.6287 8.29074 21.5453 6.71341 20.28L6.76541 20.332C5.08407 19.0147 3.75807 17.576 2.78741 16.016C1.55674 14.04 0.941406 11.9513 0.941406 9.75001C0.941406 8.57134 1.23174 7.48368 1.81241 6.48701C2.39307 5.49034 3.18174 4.70168 4.17841 4.12101C5.17507 3.54034 6.26274 3.25001 7.44141 3.25001C8.53341 3.25001 9.55174 3.49701 10.4964 3.99101C11.4411 4.48501 12.2254 5.15668 12.8494 6.00601V6.03201C13.4734 5.16534 14.2577 4.48501 15.2024 3.99101C16.1471 3.49701 17.1654 3.25001 18.2574 3.25001C19.4361 3.25001 20.5237 3.54034 21.5204 4.12101C22.5171 4.70168 23.3057 5.49034 23.8864 6.48701C24.4671 7.48368 24.7574 8.57134 24.7574 9.75001C24.7574 11.9513 24.1421 14.04 22.9114 16.016C21.9407 17.576 20.6147 19.0147 18.9334 20.332C17.3907 21.5453 15.7181 22.594 13.9154 23.478L13.7594 23.53C13.3434 23.738 13.0401 23.842 12.8494 23.842Z" fill="#030712"/>
</g>
<defs>
<clipPath id="clip0_6314_2710">
<rect width="26" height="26" fill="white" transform="matrix(1 0 0 -1 0.78125 26)"/>
</clipPath>
</defs>
</svg>
