<svg width="27" height="26" viewBox="0 0 27 26" fill="none" xmlns="http://www.w3.org/2000/svg">
<g clip-path="url(#clip0_6314_2707)">
<path d="M12.704 11.102C11.872 11.6393 10.9707 11.908 10 11.908C9.35867 11.908 8.739 11.7823 8.141 11.531C7.543 11.2797 7.01433 10.9287 6.555 10.478C6.09567 10.0273 5.74467 9.50301 5.502 8.90501C5.25933 8.30701 5.138 7.68735 5.138 7.04601C5.138 6.04068 5.411 5.13068 5.957 4.31601C6.503 3.50134 7.22233 2.90768 8.115 2.53501C9.00767 2.16235 9.95667 2.07134 10.962 2.26201C11.898 2.43534 12.7213 2.87301 13.432 3.57501C14.1427 4.27701 14.589 5.10901 14.771 6.07101C14.953 7.03301 14.862 7.97334 14.498 8.89201C14.134 9.81068 13.536 10.5473 12.704 11.102ZM11.508 4.78401C11.0573 4.48935 10.5547 4.34201 10 4.34201C9.272 4.34201 8.63067 4.60201 8.076 5.12201C7.556 5.67668 7.296 6.31801 7.296 7.04601C7.296 7.60068 7.44767 8.10334 7.751 8.55401C8.05433 9.00468 8.45733 9.33401 8.96 9.54201C9.46267 9.75001 9.98267 9.80201 10.52 9.69801C11.0573 9.59401 11.521 9.34701 11.911 8.95701C12.301 8.56701 12.548 8.10334 12.652 7.56601C12.756 7.02868 12.704 6.50868 12.496 6.00601C12.288 5.50335 11.9587 5.09601 11.508 4.78401ZM3.11 15.86C4.01133 14.9413 5.06 14.235 6.256 13.741C7.452 13.247 8.7 13 10 13C11.3 13 12.548 13.247 13.744 13.741C14.94 14.235 15.993 14.937 16.903 15.847C17.813 16.757 18.515 17.81 19.009 19.006C19.503 20.202 19.75 21.45 19.75 22.75C19.75 23.062 19.6373 23.322 19.412 23.53C19.1867 23.738 18.9353 23.842 18.658 23.842H13.25C12.9553 23.842 12.6997 23.7337 12.483 23.517C12.2663 23.3003 12.158 23.0447 12.158 22.75C12.158 22.4553 12.2663 22.1997 12.483 21.983C12.6997 21.7663 12.9553 21.658 13.25 21.658H17.514C17.3753 20.7567 17.0893 19.903 16.656 19.097C16.2227 18.291 15.6593 17.5933 14.966 17.004C14.2727 16.4147 13.5013 15.9597 12.652 15.639C11.8027 15.3183 10.9187 15.158 10 15.158C9.08133 15.158 8.19733 15.3183 7.348 15.639C6.49867 15.9597 5.72733 16.4147 5.034 17.004C4.34067 17.5933 3.77733 18.291 3.344 19.097C2.91067 19.903 2.62467 20.7567 2.486 21.658H6.75C7.02733 21.658 7.28733 21.762 7.53 21.97C7.738 22.2127 7.842 22.4727 7.842 22.75C7.842 23.0273 7.738 23.2873 7.53 23.53C7.28733 23.738 7.02733 23.842 6.75 23.842H1.342C1.06467 23.842 0.813333 23.738 0.588 23.53C0.362667 23.322 0.25 23.062 0.25 22.75C0.25 21.45 0.497 20.2063 0.991 19.019C1.485 17.8317 2.19133 16.7787 3.11 15.86Z" fill="#030712"/>
</g>
<defs>
<clipPath id="clip0_6314_2707">
<rect width="26" height="26" fill="white" transform="matrix(1 0 0 -1 0.0898438 26)"/>
</clipPath>
</defs>
</svg>
