<svg width="33" height="33" viewBox="0 0 33 33" fill="none" xmlns="http://www.w3.org/2000/svg">
<rect x="0.691406" y="0.5" width="32" height="32" rx="16" fill="white"/>
<g clip-path="url(#clip0_6314_2058)">
<path d="M18.6698 8.25C17.9071 8.25 17.1774 8.415 16.4808 8.745C15.7841 9.075 15.2011 9.51867 14.7317 10.076C14.2771 9.48933 13.7051 9.03833 13.0157 8.723C12.3264 8.40767 11.5858 8.25 10.7937 8.25C9.89908 8.25 9.06308 8.47 8.28575 8.91C7.53775 9.33533 6.94375 9.91467 6.50375 10.648C6.06375 11.3813 5.84375 12.1733 5.84375 13.024C5.84375 14.6227 6.27642 16.1993 7.14175 17.754C7.83108 19.0007 8.79175 20.2107 10.0237 21.384C10.9037 22.2347 11.8864 23.0193 12.9717 23.738C13.6464 24.2073 14.1451 24.5153 14.4677 24.662C14.5264 24.7207 14.6144 24.75 14.7317 24.75C14.8491 24.75 14.9738 24.7207 15.1058 24.662C15.4578 24.486 15.9564 24.178 16.6018 23.738C17.6724 23.0193 18.6551 22.2347 19.5498 21.384C20.7671 20.2107 21.7204 19.0007 22.4097 17.754C23.2751 16.1993 23.7078 14.6227 23.7078 13.024C23.7078 12.1733 23.4804 11.3813 23.0257 10.648C22.5711 9.91467 21.9551 9.33167 21.1777 8.899C20.4004 8.46633 19.5644 8.25 18.6698 8.25ZM14.7317 23.276C13.7931 22.704 12.9278 22.0953 12.1357 21.45C10.7424 20.3207 9.64242 19.1547 8.83575 17.952C7.75042 16.3533 7.20775 14.74 7.20775 13.112C7.20775 12.4813 7.37275 11.8983 7.70275 11.363C8.03275 10.8277 8.47275 10.4023 9.02275 10.087C9.57275 9.77167 10.1631 9.614 10.7937 9.614C11.5271 9.614 12.1908 9.80467 12.7847 10.186C13.3787 10.5673 13.8151 11.0807 14.0938 11.726C14.1524 11.8727 14.2661 11.9753 14.4347 12.034C14.6034 12.0927 14.7794 12.0927 14.9627 12.034C15.1461 11.9753 15.2817 11.8727 15.3698 11.726C15.6484 11.0807 16.0884 10.5673 16.6897 10.186C17.2911 9.80467 17.9511 9.614 18.6698 9.614C19.3298 9.614 19.9347 9.77167 20.4847 10.087C21.0347 10.4023 21.4674 10.8277 21.7828 11.363C22.0981 11.8983 22.2558 12.4813 22.2558 13.112C22.2558 14.7107 21.7131 16.3093 20.6278 17.908C19.8064 19.1107 18.7064 20.284 17.3278 21.428C16.5064 22.1027 15.6411 22.7187 14.7317 23.276Z" fill="#030712"/>
</g>
<defs>
<clipPath id="clip0_6314_2058">
<rect width="21.69" height="22" fill="white" transform="matrix(1 0 0 -1 5.83984 27.5)"/>
</clipPath>
</defs>
</svg>
