<svg width="27" height="26" viewBox="0 0 27 26" fill="none" xmlns="http://www.w3.org/2000/svg">
<g clip-path="url(#clip0_6314_7946)">
<path d="M22.9126 3.25H1.80063C1.54063 3.28467 1.32396 3.406 1.15062 3.614C0.977292 3.822 0.890625 4.056 0.890625 4.316C0.890625 4.576 0.977292 4.81433 1.15062 5.031C1.32396 5.24767 1.54063 5.37333 1.80063 5.408H5.98663L5.23263 15.002V15.184C5.23263 15.7733 5.44496 16.2803 5.86963 16.705C6.29429 17.1297 6.80129 17.342 7.39062 17.342H20.6766C21.1966 17.342 21.6516 17.1817 22.0416 16.861C22.4316 16.5403 22.6786 16.146 22.7826 15.678L25.0186 5.902C25.0533 5.694 25.0706 5.52933 25.0706 5.408C25.0706 4.80133 24.8626 4.29 24.4466 3.874C24.0306 3.458 23.5193 3.25 22.9126 3.25ZM20.6766 15.158H7.39062L8.14463 5.408H22.9126L20.6766 15.158ZM9.39262 22.75C9.99929 22.75 10.515 22.5377 10.9396 22.113C11.3643 21.6883 11.5766 21.1727 11.5766 20.566C11.5766 19.9593 11.3643 19.448 10.9396 19.032C10.515 18.616 9.99929 18.408 9.39262 18.408C8.80329 18.408 8.29629 18.616 7.87162 19.032C7.44696 19.448 7.23463 19.9593 7.23463 20.566C7.23463 21.1727 7.44696 21.6883 7.87162 22.113C8.29629 22.5377 8.80329 22.75 9.39262 22.75ZM19.1426 22.75C19.7493 22.75 20.265 22.5377 20.6896 22.113C21.1143 21.6883 21.3266 21.1727 21.3266 20.566C21.3266 19.9593 21.1143 19.448 20.6896 19.032C20.265 18.616 19.7493 18.408 19.1426 18.408C18.5533 18.408 18.0463 18.616 17.6216 19.032C17.197 19.448 16.9846 19.9593 16.9846 20.566C16.9846 21.1727 17.197 21.6883 17.6216 22.113C18.0463 22.5377 18.5533 22.75 19.1426 22.75Z" fill="#030712"/>
</g>
<defs>
<clipPath id="clip0_6314_7946">
<rect width="26" height="26" fill="white" transform="matrix(1 0 0 -1 0.730469 26)"/>
</clipPath>
</defs>
</svg>
