<svg width="28" height="29" viewBox="0 0 28 29" fill="none" xmlns="http://www.w3.org/2000/svg">
<path d="M22.3434 17.3459C21.13 17.2153 20.122 16.9446 19.3194 16.5339C18.7407 16.3099 18.148 16.268 17.5414 16.4079C16.9347 16.5479 16.398 16.8233 15.9314 17.2339L14.8674 18.4099C12.5154 16.8793 10.574 14.938 9.04338 12.5859L10.1074 11.5219C10.5554 11.0739 10.84 10.5466 10.9614 9.93995C11.0827 9.33328 11.0314 8.73128 10.8074 8.13395C10.4714 7.25662 10.238 6.24862 10.1074 5.10995C9.97672 4.34462 9.59872 3.70528 8.97338 3.19195C8.34805 2.67862 7.63405 2.42195 6.83138 2.42195H3.10738C2.52872 2.45928 2.01072 2.64595 1.55338 2.98195C1.09605 3.31795 0.741382 3.74728 0.489382 4.26995C0.237382 4.79262 0.130049 5.34328 0.167382 5.92195C0.354049 7.78862 0.764715 9.61328 1.39938 11.396C2.03405 13.1786 2.87405 14.8539 3.91938 16.4219C5.78605 19.3713 8.19405 21.7793 11.1434 23.6459C12.73 24.6353 14.41 25.4473 16.1834 26.0819C17.9567 26.7166 19.7767 27.1553 21.6434 27.3979H22.0074C22.3994 27.3979 22.7914 27.3139 23.1834 27.1459C23.5754 26.9779 23.9207 26.7493 24.2194 26.4599C24.518 26.1706 24.7467 25.8299 24.9054 25.4379C25.064 25.0459 25.1434 24.6446 25.1434 24.2339V20.7339C25.1434 19.8753 24.882 19.1286 24.3594 18.4939C23.8367 17.8593 23.1647 17.4766 22.3434 17.3459ZM23.2674 20.6219V24.1219C23.2674 24.5139 23.118 24.8686 22.8194 25.1859C22.4834 25.4846 22.1287 25.6339 21.7554 25.6339H21.6434C19.926 25.4659 18.2554 25.0926 16.6314 24.5139C14.9514 23.9166 13.3927 23.1233 11.9554 22.1339C10.63 21.2753 9.39338 20.2719 8.24538 19.1239C7.09738 17.9759 6.08472 16.7299 5.20738 15.386C4.27405 13.9299 3.51338 12.3806 2.92538 10.7379C2.33738 9.09528 1.93138 7.41528 1.70738 5.69795C1.76338 5.26862 1.93138 4.90928 2.21138 4.61995C2.49138 4.33062 2.82738 4.18595 3.21938 4.18595H6.83138C7.18605 4.18595 7.50805 4.31195 7.79738 4.56395C8.08672 4.81595 8.23138 5.10995 8.23138 5.44595C8.26872 5.93128 8.36205 6.47262 8.51138 7.06995C8.60472 7.44328 8.75405 7.98462 8.95938 8.69395L9.04338 8.94595C9.15538 9.24462 9.18338 9.52928 9.12738 9.79995C9.07138 10.0706 8.93138 10.2993 8.70738 10.486L7.41938 11.886C7.25138 11.9979 7.15338 12.1519 7.12538 12.3479C7.09738 12.544 7.11138 12.7353 7.16738 12.9219C8.04472 14.4339 9.11338 15.82 10.3734 17.0799C11.6334 18.3399 13.0194 19.4086 14.5314 20.2859C14.6994 20.3979 14.886 20.4353 15.0914 20.3979C15.2967 20.3606 15.4554 20.2766 15.5674 20.1459L17.1074 18.6339C17.294 18.4473 17.5367 18.3166 17.8354 18.2419C18.134 18.1673 18.3954 18.1859 18.6194 18.2979C19.702 18.7273 20.8687 18.9979 22.1194 19.1099C22.474 19.1659 22.7727 19.3479 23.0154 19.6559C23.258 19.9639 23.342 20.2859 23.2674 20.6219ZM14.8674 4.04595C16.3794 4.19528 17.7514 4.66195 18.9834 5.44595C20.2154 6.22995 21.2234 7.23795 22.0074 8.46995C22.7914 9.70195 23.258 11.0739 23.4074 12.5859C23.4074 12.8099 23.496 13.0013 23.6734 13.1599C23.8507 13.3186 24.0327 13.398 24.2194 13.398H24.3314C24.5554 13.398 24.7467 13.2999 24.9054 13.1039C25.064 12.9079 25.1434 12.6886 25.1434 12.4459C24.9567 10.6913 24.3874 9.07662 23.4354 7.60195C22.5207 6.16462 21.3307 4.98862 19.8654 4.07395C18.4 3.15928 16.7807 2.60862 15.0074 2.42195C14.7647 2.42195 14.5454 2.50128 14.3494 2.65995C14.1534 2.81862 14.0554 3.00062 14.0554 3.20595C14.0554 3.41128 14.1347 3.60262 14.2934 3.77995C14.452 3.95728 14.6434 4.04595 14.8674 4.04595ZM14.0554 7.79795C13.9994 8.02195 14.046 8.23662 14.1954 8.44195C14.3447 8.64728 14.5314 8.77795 14.7554 8.83395C15.726 9.02062 16.5707 9.47795 17.2894 10.2059C18.008 10.934 18.4887 11.8019 18.7314 12.8099C18.7874 13.0339 18.89 13.2066 19.0394 13.3279C19.1887 13.4493 19.3567 13.5099 19.5434 13.5099H19.6554C19.898 13.4539 20.0894 13.3233 20.2294 13.1179C20.3694 12.9126 20.4114 12.6886 20.3554 12.4459C20.1314 11.1206 19.5387 9.97262 18.5774 9.00195C17.616 8.03128 16.4634 7.39662 15.1194 7.09795C14.8767 7.04195 14.6527 7.07462 14.4474 7.19595C14.242 7.31728 14.1114 7.51795 14.0554 7.79795Z" fill="#111827"/>
</svg>
