<svg width="12" height="12" viewBox="0 0 12 12" fill="none" xmlns="http://www.w3.org/2000/svg">
<g clip-path="url(#clip0_6557_701)">
<path d="M3.8616 5.74785L0.861598 2.74785C0.781598 2.67585 0.689598 2.63985 0.585598 2.63985C0.481598 2.63985 0.389598 2.67585 0.309598 2.74785C0.229598 2.81985 0.191598 2.90985 0.195598 3.01785C0.199598 3.12585 0.237598 3.21985 0.309598 3.29985L3.0576 6.04785L0.309598 8.79585C0.237598 8.87585 0.201598 8.96985 0.201598 9.07785C0.201598 9.18585 0.237598 9.27585 0.309598 9.34785C0.333598 9.37185 0.369598 9.39385 0.417598 9.41385C0.465598 9.43385 0.513598 9.44385 0.561598 9.44385C0.609598 9.44385 0.657598 9.43385 0.705598 9.41385C0.753598 9.39385 0.789598 9.37185 0.813598 9.34785L3.8136 6.34785C3.9976 6.10785 4.0136 5.90785 3.8616 5.74785Z" fill="#9CA3AF"/>
</g>
<defs>
<clipPath id="clip0_6557_701">
<rect width="11.69" height="12" fill="white" transform="matrix(1 0 0 -1 0.191406 12)"/>
</clipPath>
</defs>
</svg>
