<svg width="15" height="15" viewBox="0 0 15 15" fill="none" xmlns="http://www.w3.org/2000/svg">
<g clip-path="url(#clip0_6314_7057)">
<path d="M7.57599 1.35206C7.15599 1.35206 6.76632 1.45706 6.40699 1.66706C6.04765 1.87706 5.76299 2.16173 5.55299 2.52106C5.34299 2.8804 5.23799 3.27006 5.23799 3.69006H4.04799C4.04799 3.0554 4.20432 2.46973 4.51699 1.93306C4.82965 1.3964 5.25432 0.971729 5.79099 0.659063C6.32765 0.346396 6.91332 0.190063 7.54799 0.190063C8.18265 0.190063 8.76832 0.346396 9.30499 0.659063C9.84165 0.971729 10.2663 1.3964 10.579 1.93306C10.8917 2.46973 11.048 3.0554 11.048 3.69006H13.344C13.68 3.69006 13.9647 3.80906 14.198 4.04706C14.4313 4.28506 14.548 4.57673 14.548 4.92206C14.548 4.99673 14.5433 5.06673 14.534 5.13206L13.232 12.6641C13.1573 13.1027 12.952 13.4667 12.616 13.7561C12.28 14.0454 11.8927 14.1901 11.454 14.1901H3.64199C3.20332 14.1901 2.81599 14.0454 2.47999 13.7561C2.14399 13.4667 1.93865 13.1027 1.86399 12.6641L0.561988 5.14606C0.505988 4.81006 0.573654 4.50206 0.764988 4.22206C0.956321 3.94206 1.21532 3.7694 1.54199 3.70406C1.60732 3.69473 1.67732 3.69006 1.75199 3.69006H9.91399C9.91399 3.27006 9.80899 2.8804 9.59899 2.52106C9.38899 2.16173 9.10432 1.87706 8.74499 1.66706C8.38565 1.45706 7.99599 1.35206 7.57599 1.35206ZM13.344 4.85206H1.75199C1.74265 4.85206 1.72865 4.87073 1.70999 4.90806V4.93606L3.01199 12.4681C3.03999 12.6174 3.10532 12.7434 3.20799 12.8461C3.31065 12.9487 3.43199 13.0047 3.57199 13.0141L3.64199 13.0281H11.454C11.594 13.0281 11.7223 12.9837 11.839 12.8951C11.9557 12.8064 12.0327 12.6874 12.07 12.5381L13.386 4.92206C13.386 4.88473 13.3767 4.86606 13.358 4.86606L13.344 4.85206Z" fill="white"/>
</g>
<defs>
<clipPath id="clip0_6314_7057">
<rect width="14" height="14" fill="white" transform="matrix(1 0 0 -1 0.421875 14.1901)"/>
</clipPath>
</defs>
</svg>
