<svg width="42" height="40" viewBox="0 0 42 40" fill="none" xmlns="http://www.w3.org/2000/svg">
<path d="M26.6982 4.84402L18.0402 1.59401C17.7802 1.49002 17.5982 1.49002 17.4942 1.59401L8.81016 4.84402C8.60216 4.89602 8.44182 4.99568 8.32916 5.14301C8.21649 5.29035 8.16016 5.44201 8.16016 5.59801V13.19C8.16016 15.1313 8.83616 17.038 10.1882 18.91C11.2108 20.2793 12.5542 21.588 14.2182 22.836C15.1022 23.4947 16.0642 24.11 17.1042 24.682L17.2602 24.786C17.3468 24.8553 17.4595 24.89 17.5982 24.89C17.7368 24.89 17.8408 24.8553 17.9102 24.786L18.0402 24.708C19.0282 24.1707 19.9642 23.5727 20.8482 22.914C22.5468 21.666 23.9075 20.3487 24.9302 18.962C26.3168 17.0727 27.0102 15.1487 27.0102 13.19V5.59801C27.1142 5.44201 27.1315 5.29035 27.0622 5.14301C26.9928 4.99568 26.8715 4.89602 26.6982 4.84402ZM25.5022 13.19C25.5022 14.75 24.9388 16.31 23.8122 17.87C22.9455 19.0487 21.7928 20.184 20.3542 21.276C19.4355 21.9693 18.5168 22.5587 17.5982 23.044C16.7142 22.576 15.7955 21.9867 14.8422 21.276C13.4382 20.184 12.3115 19.0487 11.4622 17.87C10.3528 16.31 9.79816 14.75 9.79816 13.19V6.14401L17.7022 3.23201L25.5022 6.14401V13.19ZM14.9982 12.644C14.8248 12.488 14.6255 12.41 14.4002 12.41C14.1748 12.41 13.9755 12.488 13.8022 12.644C13.6288 12.8 13.5465 12.995 13.5552 13.229C13.5638 13.463 13.6462 13.6667 13.8022 13.84L15.9602 15.998C16.1508 16.154 16.3328 16.232 16.5062 16.232C16.6102 16.232 16.7142 16.206 16.8182 16.154C16.9222 16.102 17.0002 16.05 17.0522 15.998L21.3942 11.682C21.5502 11.5087 21.6282 11.305 21.6282 11.071C21.6282 10.837 21.5502 10.642 21.3942 10.486C21.2382 10.33 21.0388 10.2477 20.7962 10.239C20.5535 10.2303 20.3542 10.3127 20.1982 10.486L16.6102 14.152L14.9982 12.644Z" fill="#6B7280"/>
</svg>
