<svg width="64" height="31" viewBox="0 0 64 31" fill="none" xmlns="http://www.w3.org/2000/svg">
<rect x="0.5" y="0.839966" width="30" height="30" rx="6" fill="#D1D5DB"/>
<g clip-path="url(#clip0_6314_4918)">
<path d="M11.7542 8.56799H8.01016C7.62616 8.56799 7.30516 8.68799 7.04716 8.92799C6.78916 9.16799 6.66016 9.47399 6.66016 9.84599V13.59C6.66016 13.962 6.79216 14.28 7.05616 14.544C7.32016 14.808 7.63816 14.94 8.01016 14.94H11.7542C12.1382 14.94 12.4592 14.808 12.7172 14.544C12.9752 14.28 13.1042 13.962 13.1042 13.59V9.84599C13.1042 9.47399 12.9752 9.16799 12.7172 8.92799C12.4592 8.68799 12.1382 8.56799 11.7542 8.56799ZM11.8982 13.59C11.8982 13.626 11.8832 13.659 11.8532 13.689C11.8232 13.719 11.7902 13.734 11.7542 13.734H8.01016C7.97416 13.77 7.93816 13.767 7.90216 13.725C7.86616 13.683 7.84816 13.638 7.84816 13.59V9.84599C7.84816 9.79799 7.86616 9.75899 7.90216 9.72899C7.93816 9.69899 7.97416 9.68399 8.01016 9.68399H11.7542C11.7902 9.68399 11.8232 9.69899 11.8532 9.72899C11.8832 9.75899 11.8982 9.79799 11.8982 9.84599V13.59ZM19.9982 8.56799H16.2542C15.8822 8.56799 15.5642 8.69699 15.3002 8.95499C15.0362 9.21299 14.9042 9.53399 14.9042 9.91799V13.662C14.9042 14.034 15.0362 14.352 15.3002 14.616C15.5642 14.88 15.8822 15.012 16.2542 15.012H19.9982C20.3822 15.012 20.7032 14.88 20.9612 14.616C21.2192 14.352 21.3482 14.034 21.3482 13.662V9.84599C21.3482 9.47399 21.2192 9.16799 20.9612 8.92799C20.7032 8.68799 20.3822 8.56799 19.9982 8.56799ZM20.1602 13.59C20.1602 13.626 20.1452 13.659 20.1152 13.689C20.0852 13.719 20.0462 13.734 19.9982 13.734H16.2542C16.2182 13.734 16.1852 13.719 16.1552 13.689C16.1252 13.659 16.1102 13.626 16.1102 13.59V9.84599C16.1102 9.79799 16.1252 9.75899 16.1552 9.72899C16.1852 9.69899 16.2182 9.68399 16.2542 9.68399H19.9982C20.0462 9.68399 20.0852 9.69899 20.1152 9.72899C20.1452 9.75899 20.1602 9.79799 20.1602 9.84599V13.59ZM19.9982 16.812H16.2542C15.8822 16.812 15.5642 16.941 15.3002 17.199C15.0362 17.457 14.9042 17.778 14.9042 18.162V21.906C14.9042 22.29 15.0362 22.614 15.3002 22.878C15.5642 23.142 15.8822 23.274 16.2542 23.274H19.9982C20.3702 23.274 20.6882 23.142 20.9522 22.878C21.2162 22.614 21.3482 22.29 21.3482 21.906V18.162C21.3482 17.754 21.2192 17.427 20.9612 17.181C20.7032 16.935 20.3822 16.812 19.9982 16.812ZM20.1602 21.834C20.1602 21.87 20.1452 21.906 20.1152 21.942C20.0852 21.978 20.0462 21.996 19.9982 21.996H16.2542C16.2182 21.996 16.1852 21.978 16.1552 21.942C16.1252 21.906 16.1102 21.87 16.1102 21.834V18.09C16.1102 18.054 16.1252 18.021 16.1552 17.991C16.1852 17.961 16.2182 17.946 16.2542 17.946H19.9982C20.0462 17.946 20.0852 17.961 20.1152 17.991C20.1452 18.021 20.1602 18.054 20.1602 18.09V21.834ZM11.7542 16.812H8.01016C7.63816 16.812 7.32016 16.941 7.05616 17.199C6.79216 17.457 6.66016 17.778 6.66016 18.162V21.906C6.66016 22.29 6.79216 22.614 7.05616 22.878C7.32016 23.142 7.63816 23.274 8.01016 23.274H11.7542C12.1262 23.274 12.4442 23.142 12.7082 22.878C12.9722 22.614 13.1042 22.29 13.1042 21.906V18.162C13.1042 17.754 12.9752 17.427 12.7172 17.181C12.4592 16.935 12.1382 16.812 11.7542 16.812ZM11.8982 21.834C11.8982 21.87 11.8832 21.906 11.8532 21.942C11.8232 21.978 11.7902 21.996 11.7542 21.996H8.01016C7.97416 21.996 7.93816 21.978 7.90216 21.942C7.86616 21.906 7.84816 21.87 7.84816 21.834V18.09C7.84816 18.054 7.86616 18.021 7.90216 17.991C7.93816 17.961 7.97416 17.946 8.01016 17.946H11.7542C11.7902 17.946 11.8232 17.961 11.8532 17.991C11.8832 18.021 11.8982 18.054 11.8982 18.09V21.834Z" fill="#111827"/>
</g>
<g clip-path="url(#clip1_6314_4918)">
<path d="M44.7542 8.56799H41.0102C40.6262 8.56799 40.3052 8.68799 40.0472 8.92799C39.7892 9.16799 39.6602 9.47399 39.6602 9.84599V13.59C39.6602 13.962 39.7922 14.28 40.0562 14.544C40.3202 14.808 40.6382 14.94 41.0102 14.94H44.7542C45.1382 14.94 45.4592 14.808 45.7172 14.544C45.9752 14.28 46.1042 13.962 46.1042 13.59V9.84599C46.1042 9.47399 45.9752 9.16799 45.7172 8.92799C45.4592 8.68799 45.1382 8.56799 44.7542 8.56799ZM44.8982 13.59C44.8982 13.626 44.8832 13.659 44.8532 13.689C44.8232 13.719 44.7902 13.734 44.7542 13.734H41.0102C40.9742 13.77 40.9382 13.767 40.9022 13.725C40.8662 13.683 40.8482 13.638 40.8482 13.59V9.84599C40.8482 9.79799 40.8662 9.75899 40.9022 9.72899C40.9382 9.69899 40.9742 9.68399 41.0102 9.68399H44.7542C44.7902 9.68399 44.8232 9.69899 44.8532 9.72899C44.8832 9.75899 44.8982 9.79799 44.8982 9.84599V13.59ZM44.7542 16.812H41.0102C40.6382 16.812 40.3202 16.941 40.0562 17.199C39.7922 17.457 39.6602 17.778 39.6602 18.162V21.906C39.6602 22.29 39.7922 22.614 40.0562 22.878C40.3202 23.142 40.6382 23.274 41.0102 23.274H44.7542C45.1262 23.274 45.4442 23.142 45.7082 22.878C45.9722 22.614 46.1042 22.29 46.1042 21.906V18.162C46.1042 17.754 45.9752 17.427 45.7172 17.181C45.4592 16.935 45.1382 16.812 44.7542 16.812ZM44.8982 21.834C44.8982 21.87 44.8832 21.906 44.8532 21.942C44.8232 21.978 44.7902 21.996 44.7542 21.996H41.0102C40.9742 21.996 40.9382 21.978 40.9022 21.942C40.8662 21.906 40.8482 21.87 40.8482 21.834V18.09C40.8482 18.054 40.8662 18.021 40.9022 17.991C40.9382 17.961 40.9742 17.946 41.0102 17.946H44.7542C44.7902 17.946 44.8232 17.961 44.8532 17.991C44.8832 18.021 44.8982 18.054 44.8982 18.09V21.834ZM48.4982 10.44H53.7542C53.9102 10.44 54.0482 10.383 54.1682 10.269C54.2882 10.155 54.3482 10.014 54.3482 9.84599C54.3482 9.67799 54.2912 9.54599 54.1772 9.44999C54.0632 9.35399 53.9222 9.30599 53.7542 9.30599H48.4982C48.3422 9.30599 48.2042 9.36299 48.0842 9.47699C47.9642 9.59099 47.9042 9.73799 47.9042 9.91799C47.9042 10.098 47.9612 10.23 48.0752 10.314C48.1892 10.398 48.3302 10.44 48.4982 10.44ZM53.7542 13.068H48.4982C48.3422 13.068 48.2042 13.122 48.0842 13.23C47.9642 13.338 47.9042 13.485 47.9042 13.671C47.9042 13.857 47.9582 14.001 48.0662 14.103C48.1742 14.205 48.3182 14.256 48.4982 14.256H53.7542C53.9102 14.256 54.0482 14.202 54.1682 14.094C54.2882 13.986 54.3482 13.842 54.3482 13.662C54.3482 13.482 54.2882 13.338 54.1682 13.23C54.0482 13.122 53.9102 13.068 53.7542 13.068ZM53.7542 17.568H48.4982C48.3422 17.568 48.2042 17.622 48.0842 17.73C47.9642 17.838 47.9042 17.985 47.9042 18.171C47.9042 18.357 47.9582 18.501 48.0662 18.603C48.1742 18.705 48.3182 18.756 48.4982 18.756H53.7542C53.9102 18.756 54.0482 18.702 54.1682 18.594C54.2882 18.486 54.3482 18.342 54.3482 18.162C54.3482 17.982 54.2882 17.838 54.1682 17.73C54.0482 17.622 53.9102 17.568 53.7542 17.568ZM53.7542 21.312H48.4982C48.3422 21.312 48.2042 21.369 48.0842 21.483C47.9642 21.597 47.9042 21.741 47.9042 21.915C47.9042 22.089 47.9582 22.233 48.0662 22.347C48.1742 22.461 48.3182 22.518 48.4982 22.518H53.7542C53.9102 22.518 54.0482 22.461 54.1682 22.347C54.2882 22.233 54.3482 22.086 54.3482 21.906C54.3482 21.726 54.2882 21.582 54.1682 21.474C54.0482 21.366 53.9102 21.312 53.7542 21.312Z" fill="#6B7280"/>
</g>
<defs>
<clipPath id="clip0_6314_4918">
<rect width="18" height="18" fill="white" transform="matrix(1 0 0 -1 6.5 24.84)"/>
</clipPath>
<clipPath id="clip1_6314_4918">
<rect width="18" height="18" fill="white" transform="matrix(1 0 0 -1 39.5 24.84)"/>
</clipPath>
</defs>
</svg>
