<svg width="36" height="47" viewBox="0 0 36 47" fill="none" xmlns="http://www.w3.org/2000/svg">
<g clip-path="url(#clip0_6314_7053)">
<path d="M20.1492 22.6971H15.7462V18.2261C15.7462 18.0788 15.6952 17.9484 15.5932 17.8351C15.4912 17.7218 15.3552 17.6651 15.1852 17.6651C15.0152 17.6651 14.8792 17.7218 14.7772 17.8351C14.6752 17.9484 14.6242 18.0788 14.6242 18.2261V22.6291H10.2212C10.0738 22.6291 9.94349 22.6801 9.83016 22.7821C9.71682 22.8841 9.66016 23.0229 9.66016 23.1986C9.66016 23.3743 9.71116 23.5103 9.81316 23.6066C9.91516 23.7029 10.0512 23.7511 10.2212 23.7511H14.6242V28.1541C14.6242 28.3014 14.6752 28.4318 14.7772 28.5451C14.8792 28.6584 15.018 28.7151 15.1937 28.7151C15.3693 28.7151 15.5053 28.6641 15.6017 28.5621C15.698 28.4601 15.7462 28.3241 15.7462 28.1541V23.7511H20.1492C20.2965 23.7511 20.4268 23.7001 20.5402 23.5981C20.6535 23.4961 20.7102 23.3601 20.7102 23.1901C20.7102 23.0201 20.6563 22.8954 20.5487 22.8161C20.441 22.7368 20.3078 22.6971 20.1492 22.6971Z" fill="#030712"/>
</g>
<defs>
<clipPath id="clip0_6314_7053">
<rect width="17" height="17" fill="white" transform="matrix(1 0 0 -1 9.5 31.6901)"/>
</clipPath>
</defs>
</svg>
