<svg width="36" height="47" viewBox="0 0 36 47" fill="none" xmlns="http://www.w3.org/2000/svg">
<g clip-path="url(#clip0_6314_7047)">
<path d="M20.1492 22.6971H10.2212C10.0738 22.6971 9.94349 22.7481 9.83016 22.8501C9.71682 22.9521 9.66016 23.0909 9.66016 23.2666C9.66016 23.4423 9.71116 23.5783 9.81316 23.6746C9.91516 23.7709 10.0512 23.8191 10.2212 23.8191H20.1492C20.2965 23.8191 20.4268 23.7681 20.5402 23.6661C20.6535 23.5641 20.7102 23.4281 20.7102 23.2581C20.7102 23.0881 20.6535 22.9521 20.5402 22.8501C20.4268 22.7481 20.2965 22.6971 20.1492 22.6971Z" fill="#030712"/>
</g>
<defs>
<clipPath id="clip0_6314_7047">
<rect width="17" height="17" fill="white" transform="matrix(1 0 0 -1 9.5 31.6901)"/>
</clipPath>
</defs>
</svg>
