<svg width="19" height="19" viewBox="0 0 19 19" fill="none" xmlns="http://www.w3.org/2000/svg">
<g clip-path="url(#clip0_6391_461)">
<path d="M7.356 1.27199C6.168 1.27199 5.064 1.57199 4.044 2.17199C3.048 2.74799 2.256 3.53399 1.668 4.52999C1.056 5.56199 0.75 6.67799 0.75 7.87799C0.75 9.16199 1.188 10.524 2.064 11.964C2.724 13.056 3.606 14.16 4.71 15.276C5.31 15.876 5.994 16.5 6.762 17.148L6.978 17.328C7.014 17.364 7.068 17.397 7.14 17.427C7.212 17.457 7.287 17.472 7.365 17.472C7.443 17.472 7.509 17.463 7.563 17.445C7.617 17.427 7.674 17.388 7.734 17.328L7.95 17.148C8.718 16.5 9.402 15.876 10.002 15.276C11.106 14.16 11.988 13.056 12.648 11.964C13.524 10.524 13.962 9.16199 13.962 7.87799C13.962 6.67799 13.656 5.56199 13.044 4.52999C12.456 3.53399 11.664 2.74799 10.668 2.17199C9.648 1.57199 8.544 1.27199 7.356 1.27199ZM7.356 16.05C6.72 15.534 6.072 14.94 5.412 14.268C4.44 13.248 3.666 12.252 3.09 11.28C2.334 10.02 1.956 8.86199 1.956 7.80599C1.956 6.82199 2.202 5.90999 2.694 5.06999C3.162 4.25399 3.804 3.61199 4.62 3.14399C5.46 2.65199 6.372 2.40599 7.356 2.40599C8.34 2.40599 9.252 2.65799 10.092 3.16199C10.908 3.64199 11.556 4.29599 12.036 5.12399C12.516 5.95199 12.756 6.84599 12.756 7.80599C12.756 8.89799 12.378 10.074 11.622 11.334C11.046 12.294 10.272 13.278 9.3 14.286C8.664 14.934 8.016 15.522 7.356 16.05ZM7.356 5.01599C6.84 5.01599 6.366 5.14499 5.934 5.40299C5.502 5.66098 5.157 6.00899 4.899 6.44699C4.641 6.88498 4.512 7.36199 4.512 7.87799C4.512 8.39398 4.641 8.87099 4.899 9.30898C5.157 9.74699 5.502 10.092 5.934 10.344C6.366 10.596 6.84 10.722 7.356 10.722C7.872 10.722 8.349 10.593 8.787 10.335C9.225 10.077 9.57 9.73199 9.822 9.29998C10.074 8.86798 10.2 8.39398 10.2 7.87799C10.2 7.36199 10.074 6.88498 9.822 6.44699C9.57 6.00899 9.225 5.66098 8.787 5.40299C8.349 5.14499 7.872 5.01599 7.356 5.01599ZM7.356 9.51599C6.9 9.51599 6.51 9.35398 6.186 9.02999C5.862 8.70599 5.7 8.32199 5.7 7.87799C5.7 7.57799 5.775 7.30199 5.925 7.04998C6.075 6.79799 6.276 6.59698 6.528 6.44699C6.78 6.29699 7.056 6.22199 7.356 6.22199C7.656 6.22199 7.932 6.29699 8.184 6.44699C8.436 6.59698 8.637 6.79799 8.787 7.04998C8.937 7.30199 9.012 7.57799 9.012 7.87799C9.012 8.32199 8.85 8.70599 8.526 9.02999C8.202 9.35398 7.812 9.51599 7.356 9.51599Z" fill="#030712"/>
</g>
<defs>
<clipPath id="clip0_6391_461">
<rect width="18" height="18" fill="white" transform="matrix(1 0 0 -1 0.589844 18.3)"/>
</clipPath>
</defs>
</svg>
