<svg width="31" height="36" viewBox="0 0 31 36" fill="none" xmlns="http://www.w3.org/2000/svg">
<g clip-path="url(#clip0_6314_2703)">
<path d="M19.9508 17.362H5.29878C5.09345 17.362 4.91745 17.428 4.77078 17.56C4.62411 17.692 4.55078 17.8717 4.55078 18.099C4.55078 18.3263 4.61678 18.5023 4.74878 18.627C4.88078 18.7517 5.06411 18.814 5.29878 18.814H19.9508C20.1561 18.814 20.3321 18.748 20.4788 18.616C20.6255 18.484 20.6988 18.308 20.6988 18.088C20.6988 17.868 20.6255 17.692 20.4788 17.56C20.3321 17.428 20.1561 17.362 19.9508 17.362ZM5.29878 13.226H19.9508C20.1561 13.226 20.3321 13.16 20.4788 13.028C20.6255 12.896 20.6988 12.72 20.6988 12.5C20.6988 12.28 20.6255 12.1187 20.4788 12.016C20.3321 11.9133 20.1561 11.862 19.9508 11.862H5.29878C5.10811 11.862 4.93578 11.9243 4.78178 12.049C4.62778 12.1737 4.55078 12.3277 4.55078 12.511C4.55078 12.6943 4.62778 12.8593 4.78178 13.006C4.93578 13.1527 5.10811 13.226 5.29878 13.226ZM19.9508 22.862H5.29878C5.09345 22.862 4.91745 22.928 4.77078 23.06C4.62411 23.192 4.55078 23.3717 4.55078 23.599C4.55078 23.8263 4.61678 24.0023 4.74878 24.127C4.88078 24.2517 5.06411 24.314 5.29878 24.314H19.9508C20.1561 24.314 20.3321 24.248 20.4788 24.116C20.6255 23.984 20.6988 23.808 20.6988 23.588C20.6988 23.368 20.6255 23.192 20.4788 23.06C20.3321 22.928 20.1561 22.862 19.9508 22.862Z" fill="#030712"/>
</g>
<defs>
<clipPath id="clip0_6314_2703">
<rect width="22" height="22" fill="white" transform="matrix(1 0 0 -1 4.39062 29)"/>
</clipPath>
</defs>
</svg>
