<svg width="23" height="17" viewBox="0 0 23 17" fill="none" xmlns="http://www.w3.org/2000/svg">
<g clip-path="url(#clip0_6314_1709)">
<path d="M13.8095 8.32587H9.6655V4.11787C9.6655 3.9792 9.6175 3.85653 9.5215 3.74987C9.4255 3.6432 9.2975 3.58987 9.1375 3.58987C8.9775 3.58987 8.8495 3.6432 8.7535 3.74987C8.6575 3.85653 8.6095 3.9792 8.6095 4.11787V8.26187H4.4655C4.32683 8.26187 4.20417 8.30987 4.0975 8.40587C3.99083 8.50187 3.9375 8.63253 3.9375 8.79787C3.9375 8.9632 3.9855 9.0912 4.0815 9.18187C4.1775 9.27253 4.3055 9.31787 4.4655 9.31787H8.6095V13.4619C8.6095 13.6005 8.6575 13.7232 8.7535 13.8299C8.8495 13.9365 8.98017 13.9899 9.1455 13.9899C9.31083 13.9899 9.43883 13.9419 9.5295 13.8459C9.62017 13.7499 9.6655 13.6219 9.6655 13.4619V9.31787H13.8095C13.9482 9.31787 14.0708 9.26987 14.1775 9.17387C14.2842 9.07787 14.3375 8.94987 14.3375 8.78987C14.3375 8.62987 14.2868 8.51253 14.1855 8.43787C14.0842 8.3632 13.9588 8.32587 13.8095 8.32587Z" fill="#634C9F"/>
</g>
<defs>
<clipPath id="clip0_6314_1709">
<rect width="16" height="16" fill="white" transform="matrix(1 0 0 -1 3.80859 16.7899)"/>
</clipPath>
</defs>
</svg>
