<svg width="21" height="14" viewBox="0 0 21 14" fill="none" xmlns="http://www.w3.org/2000/svg">
<g clip-path="url(#clip0_6314_1624)">
<path d="M16.3956 6.81796C16.3956 6.78996 16.3839 6.76429 16.3606 6.74096C16.3372 6.71762 16.3116 6.70596 16.2836 6.70596L13.9456 4.36796C13.8522 4.28396 13.7449 4.24196 13.6236 4.24196C13.5022 4.24196 13.3949 4.28396 13.3016 4.36796C13.2082 4.45196 13.1639 4.55929 13.1686 4.68996C13.1732 4.82062 13.2176 4.92796 13.3016 5.01196L14.8836 6.59396H4.31356C4.19223 6.59396 4.0849 6.63596 3.99156 6.71996C3.89823 6.80396 3.85156 6.91829 3.85156 7.06296C3.85156 7.20762 3.89356 7.31962 3.97756 7.39896C4.06156 7.47829 4.17356 7.51796 4.31356 7.51796H14.9396L13.3576 9.09996C13.2736 9.18396 13.2316 9.28896 13.2316 9.41496C13.2316 9.54096 13.2736 9.65062 13.3576 9.74396C13.3856 9.77196 13.4276 9.79762 13.4836 9.82096C13.5396 9.84429 13.5956 9.85596 13.6516 9.85596C13.7076 9.85596 13.7636 9.84429 13.8196 9.82096C13.8756 9.79762 13.9176 9.77196 13.9456 9.74396L16.2836 7.40596C16.3022 7.38729 16.3209 7.36396 16.3396 7.33596C16.3582 7.30796 16.3769 7.29396 16.3956 7.29396C16.4236 7.17262 16.4376 7.07929 16.4376 7.01396C16.4376 6.94862 16.4236 6.88329 16.3956 6.81796Z" fill="#212529"/>
</g>
<defs>
<clipPath id="clip0_6314_1624">
<rect width="14" height="14" fill="white" transform="matrix(1 0 0 -1 3.73047 14)"/>
</clipPath>
</defs>
</svg>
