<svg width="20" height="15" viewBox="0 0 20 15" fill="none" xmlns="http://www.w3.org/2000/svg">
<g clip-path="url(#clip0_6314_1937)">
<path d="M15.8565 7.58798C15.8565 7.55998 15.8448 7.53431 15.8215 7.51098C15.7982 7.48764 15.7725 7.47598 15.7445 7.47598L13.4065 5.13798C13.3132 5.05398 13.2058 5.01198 13.0845 5.01198C12.9632 5.01198 12.8558 5.05398 12.7625 5.13798C12.6692 5.22198 12.6248 5.32931 12.6295 5.45998C12.6342 5.59064 12.6785 5.69798 12.7625 5.78198L14.3445 7.36398H3.7745C3.65317 7.36398 3.54583 7.40598 3.4525 7.48998C3.35917 7.57398 3.3125 7.68831 3.3125 7.83298C3.3125 7.97764 3.3545 8.08964 3.4385 8.16898C3.5225 8.24831 3.6345 8.28798 3.7745 8.28798H14.4005L12.8185 9.86998C12.7345 9.95398 12.6925 10.059 12.6925 10.185C12.6925 10.311 12.7345 10.4206 12.8185 10.514C12.8465 10.542 12.8885 10.5676 12.9445 10.591C13.0005 10.6143 13.0565 10.626 13.1125 10.626C13.1685 10.626 13.2245 10.6143 13.2805 10.591C13.3365 10.5676 13.3785 10.542 13.4065 10.514L15.7445 8.17598C15.7632 8.15731 15.7818 8.13398 15.8005 8.10598C15.8192 8.07798 15.8378 8.06398 15.8565 8.06398C15.8845 7.94264 15.8985 7.84931 15.8985 7.78398C15.8985 7.71864 15.8845 7.65331 15.8565 7.58798Z" fill="#212529"/>
</g>
<defs>
<clipPath id="clip0_6314_1937">
<rect width="14" height="14" fill="white" transform="matrix(1 0 0 -1 3.19141 14.77)"/>
</clipPath>
</defs>
</svg>
