<svg width="68" height="12" viewBox="0 0 68 12" fill="none" xmlns="http://www.w3.org/2000/svg">
<g clip-path="url(#clip0_6314_2123)">
<g clip-path="url(#clip1_6314_2123)">
<path d="M6.65284 0.84496C6.59417 0.727627 6.50984 0.634127 6.39984 0.56446C6.28984 0.494793 6.16884 0.45996 6.03684 0.45996C5.90484 0.45996 5.782 0.494793 5.66834 0.56446C5.55467 0.634127 5.4685 0.727627 5.40984 0.84496L4.03484 3.69396L0.943837 4.14496C0.81917 4.15963 0.705503 4.20913 0.602837 4.29346C0.50017 4.37779 0.430503 4.48229 0.393837 4.60696C0.35717 4.73163 0.353503 4.85813 0.382837 4.98646C0.41217 5.11479 0.474503 5.22296 0.569837 5.31096L2.80284 7.53296L2.27484 10.657C2.25284 10.789 2.2675 10.9136 2.31884 11.031C2.37017 11.1483 2.44717 11.2473 2.54984 11.328C2.6525 11.4086 2.76984 11.4526 2.90184 11.46C3.03384 11.4673 3.1585 11.4416 3.27584 11.383L6.03684 9.90896L8.79784 11.383C8.91517 11.4416 9.038 11.4673 9.16634 11.46C9.29467 11.4526 9.41384 11.4105 9.52384 11.3335C9.63384 11.2565 9.71267 11.1575 9.76034 11.0365C9.808 10.9155 9.82084 10.789 9.79884 10.657L9.25984 7.53296L11.5038 5.31096C11.5992 5.22296 11.6615 5.11479 11.6908 4.98646C11.7202 4.85813 11.7128 4.73163 11.6688 4.60696C11.6248 4.48229 11.5552 4.37779 11.4598 4.29346C11.3645 4.20913 11.2508 4.15963 11.1188 4.14496L8.03884 3.69396L6.65284 0.84496Z" fill="#D1D5DB"/>
<path d="M20.0278 0.84496C19.9692 0.727627 19.8848 0.634127 19.7748 0.56446C19.6648 0.494793 19.5438 0.45996 19.4118 0.45996C19.2798 0.45996 19.157 0.494793 19.0433 0.56446C18.9297 0.634127 18.8435 0.727627 18.7848 0.84496L17.4098 3.69396L14.3188 4.14496C14.1942 4.15963 14.0805 4.20913 13.9778 4.29346C13.8752 4.37779 13.8055 4.48229 13.7688 4.60696C13.7322 4.73163 13.7285 4.85813 13.7578 4.98646C13.7872 5.11479 13.8495 5.22296 13.9448 5.31096L16.1778 7.53296L15.6498 10.657C15.6278 10.789 15.6425 10.9136 15.6938 11.031C15.7452 11.1483 15.8222 11.2473 15.9248 11.328C16.0275 11.4086 16.1448 11.4526 16.2768 11.46C16.4088 11.4673 16.5335 11.4416 16.6508 11.383L19.4118 9.90896L22.1728 11.383C22.2902 11.4416 22.413 11.4673 22.5413 11.46C22.6697 11.4526 22.7888 11.4105 22.8988 11.3335C23.0088 11.2565 23.0877 11.1575 23.1353 11.0365C23.183 10.9155 23.1958 10.789 23.1738 10.657L22.6348 7.53296L24.8788 5.31096C24.9742 5.22296 25.0365 5.11479 25.0658 4.98646C25.0952 4.85813 25.0878 4.73163 25.0438 4.60696C24.9998 4.48229 24.9302 4.37779 24.8348 4.29346C24.7395 4.20913 24.6258 4.15963 24.4938 4.14496L21.4138 3.69396L20.0278 0.84496Z" fill="#D1D5DB"/>
<path d="M33.4028 0.84496C33.3442 0.727627 33.2598 0.634127 33.1498 0.56446C33.0398 0.494793 32.9188 0.45996 32.7868 0.45996C32.6548 0.45996 32.532 0.494793 32.4183 0.56446C32.3047 0.634127 32.2185 0.727627 32.1598 0.84496L30.7848 3.69396L27.6938 4.14496C27.5692 4.15963 27.4555 4.20913 27.3528 4.29346C27.2502 4.37779 27.1805 4.48229 27.1438 4.60696C27.1072 4.73163 27.1035 4.85813 27.1328 4.98646C27.1622 5.11479 27.2245 5.22296 27.3198 5.31096L29.5528 7.53296L29.0248 10.657C29.0028 10.789 29.0175 10.9136 29.0688 11.031C29.1202 11.1483 29.1972 11.2473 29.2998 11.328C29.4025 11.4086 29.5198 11.4526 29.6518 11.46C29.7838 11.4673 29.9085 11.4416 30.0258 11.383L32.7868 9.90896L35.5478 11.383C35.6652 11.4416 35.788 11.4673 35.9163 11.46C36.0447 11.4526 36.1638 11.4105 36.2738 11.3335C36.3838 11.2565 36.4627 11.1575 36.5103 11.0365C36.558 10.9155 36.5708 10.789 36.5488 10.657L36.0098 7.53296L38.2538 5.31096C38.3492 5.22296 38.4115 5.11479 38.4408 4.98646C38.4702 4.85813 38.4628 4.73163 38.4188 4.60696C38.3748 4.48229 38.3052 4.37779 38.2098 4.29346C38.1145 4.20913 38.0008 4.15963 37.8688 4.14496L34.7888 3.69396L33.4028 0.84496Z" fill="#D1D5DB"/>
<path d="M46.7778 0.84496C46.7192 0.727627 46.6348 0.634127 46.5248 0.56446C46.4148 0.494793 46.2938 0.45996 46.1618 0.45996C46.0298 0.45996 45.907 0.494793 45.7933 0.56446C45.6797 0.634127 45.5935 0.727627 45.5348 0.84496L44.1598 3.69396L41.0688 4.14496C40.9442 4.15963 40.8305 4.20913 40.7278 4.29346C40.6252 4.37779 40.5555 4.48229 40.5188 4.60696C40.4822 4.73163 40.4785 4.85813 40.5078 4.98646C40.5372 5.11479 40.5995 5.22296 40.6948 5.31096L42.9278 7.53296L42.3998 10.657C42.3778 10.789 42.3925 10.9136 42.4438 11.031C42.4952 11.1483 42.5722 11.2473 42.6748 11.328C42.7775 11.4086 42.8948 11.4526 43.0268 11.46C43.1588 11.4673 43.2835 11.4416 43.4008 11.383L46.1618 9.90896L48.9228 11.383C49.0402 11.4416 49.163 11.4673 49.2913 11.46C49.4197 11.4526 49.5388 11.4105 49.6488 11.3335C49.7588 11.2565 49.8377 11.1575 49.8853 11.0365C49.933 10.9155 49.9458 10.789 49.9238 10.657L49.3848 7.53296L51.6288 5.31096C51.7242 5.22296 51.7865 5.11479 51.8158 4.98646C51.8452 4.85813 51.8378 4.73163 51.7938 4.60696C51.7498 4.48229 51.6802 4.37779 51.5848 4.29346C51.4895 4.20913 51.3758 4.15963 51.2438 4.14496L48.1638 3.69396L46.7778 0.84496Z" fill="#D1D5DB"/>
<path d="M60.1528 0.84496C60.0942 0.727627 60.0098 0.634127 59.8998 0.56446C59.7898 0.494793 59.6688 0.45996 59.5368 0.45996C59.4048 0.45996 59.282 0.494793 59.1683 0.56446C59.0547 0.634127 58.9685 0.727627 58.9098 0.84496L57.5348 3.69396L54.4438 4.14496C54.3192 4.15963 54.2055 4.20913 54.1028 4.29346C54.0002 4.37779 53.9305 4.48229 53.8938 4.60696C53.8572 4.73163 53.8535 4.85813 53.8828 4.98646C53.9122 5.11479 53.9745 5.22296 54.0698 5.31096L56.3028 7.53296L55.7748 10.657C55.7528 10.789 55.7675 10.9136 55.8188 11.031C55.8702 11.1483 55.9472 11.2473 56.0498 11.328C56.1525 11.4086 56.2698 11.4526 56.4018 11.46C56.5338 11.4673 56.6585 11.4416 56.7758 11.383L59.5368 9.90896L62.2978 11.383C62.4152 11.4416 62.538 11.4673 62.6663 11.46C62.7947 11.4526 62.9138 11.4105 63.0238 11.3335C63.1338 11.2565 63.2127 11.1575 63.2603 11.0365C63.308 10.9155 63.3208 10.789 63.2988 10.657L62.7598 7.53296L65.0038 5.31096C65.0992 5.22296 65.1615 5.11479 65.1908 4.98646C65.2202 4.85813 65.2128 4.73163 65.1688 4.60696C65.1248 4.48229 65.0552 4.37779 64.9598 4.29346C64.8645 4.20913 64.7508 4.15963 64.6188 4.14496L61.5388 3.69396L60.1528 0.84496Z" fill="#D1D5DB"/>
</g>
<g clip-path="url(#clip2_6314_2123)">
<g clip-path="url(#clip3_6314_2123)">
<path d="M6.65284 0.84496C6.59417 0.727627 6.50984 0.634127 6.39984 0.56446C6.28984 0.494793 6.16884 0.45996 6.03684 0.45996C5.90484 0.45996 5.782 0.494793 5.66834 0.56446C5.55467 0.634127 5.4685 0.727627 5.40984 0.84496L4.03484 3.69396L0.943837 4.14496C0.81917 4.15963 0.705503 4.20913 0.602837 4.29346C0.50017 4.37779 0.430503 4.48229 0.393837 4.60696C0.35717 4.73163 0.353503 4.85813 0.382837 4.98646C0.41217 5.11479 0.474503 5.22296 0.569837 5.31096L2.80284 7.53296L2.27484 10.657C2.25284 10.789 2.2675 10.9136 2.31884 11.031C2.37017 11.1483 2.44717 11.2473 2.54984 11.328C2.6525 11.4086 2.76984 11.4526 2.90184 11.46C3.03384 11.4673 3.1585 11.4416 3.27584 11.383L6.03684 9.90896L8.79784 11.383C8.91517 11.4416 9.038 11.4673 9.16634 11.46C9.29467 11.4526 9.41384 11.4105 9.52384 11.3335C9.63384 11.2565 9.71267 11.1575 9.76034 11.0365C9.808 10.9155 9.82084 10.789 9.79884 10.657L9.25984 7.53296L11.5038 5.31096C11.5992 5.22296 11.6615 5.11479 11.6908 4.98646C11.7202 4.85813 11.7128 4.73163 11.6688 4.60696C11.6248 4.48229 11.5552 4.37779 11.4598 4.29346C11.3645 4.20913 11.2508 4.15963 11.1188 4.14496L8.03884 3.69396L6.65284 0.84496Z" fill="#FACC15"/>
<path d="M20.0278 0.84496C19.9692 0.727627 19.8848 0.634127 19.7748 0.56446C19.6648 0.494793 19.5438 0.45996 19.4118 0.45996C19.2798 0.45996 19.157 0.494793 19.0433 0.56446C18.9297 0.634127 18.8435 0.727627 18.7848 0.84496L17.4098 3.69396L14.3188 4.14496C14.1942 4.15963 14.0805 4.20913 13.9778 4.29346C13.8752 4.37779 13.8055 4.48229 13.7688 4.60696C13.7322 4.73163 13.7285 4.85813 13.7578 4.98646C13.7872 5.11479 13.8495 5.22296 13.9448 5.31096L16.1778 7.53296L15.6498 10.657C15.6278 10.789 15.6425 10.9136 15.6938 11.031C15.7452 11.1483 15.8222 11.2473 15.9248 11.328C16.0275 11.4086 16.1448 11.4526 16.2768 11.46C16.4088 11.4673 16.5335 11.4416 16.6508 11.383L19.4118 9.90896L22.1728 11.383C22.2902 11.4416 22.413 11.4673 22.5413 11.46C22.6697 11.4526 22.7888 11.4105 22.8988 11.3335C23.0088 11.2565 23.0877 11.1575 23.1353 11.0365C23.183 10.9155 23.1958 10.789 23.1738 10.657L22.6348 7.53296L24.8788 5.31096C24.9742 5.22296 25.0365 5.11479 25.0658 4.98646C25.0952 4.85813 25.0878 4.73163 25.0438 4.60696C24.9998 4.48229 24.9302 4.37779 24.8348 4.29346C24.7395 4.20913 24.6258 4.15963 24.4938 4.14496L21.4138 3.69396L20.0278 0.84496Z" fill="#FACC15"/>
<path d="M33.4028 0.84496C33.3442 0.727627 33.2598 0.634127 33.1498 0.56446C33.0398 0.494793 32.9188 0.45996 32.7868 0.45996C32.6548 0.45996 32.532 0.494793 32.4183 0.56446C32.3047 0.634127 32.2185 0.727627 32.1598 0.84496L30.7848 3.69396L27.6938 4.14496C27.5692 4.15963 27.4555 4.20913 27.3528 4.29346C27.2502 4.37779 27.1805 4.48229 27.1438 4.60696C27.1072 4.73163 27.1035 4.85813 27.1328 4.98646C27.1622 5.11479 27.2245 5.22296 27.3198 5.31096L29.5528 7.53296L29.0248 10.657C29.0028 10.789 29.0175 10.9136 29.0688 11.031C29.1202 11.1483 29.1972 11.2473 29.2998 11.328C29.4025 11.4086 29.5198 11.4526 29.6518 11.46C29.7838 11.4673 29.9085 11.4416 30.0258 11.383L32.7868 9.90896L35.5478 11.383C35.6652 11.4416 35.788 11.4673 35.9163 11.46C36.0447 11.4526 36.1638 11.4105 36.2738 11.3335C36.3838 11.2565 36.4627 11.1575 36.5103 11.0365C36.558 10.9155 36.5708 10.789 36.5488 10.657L36.0098 7.53296L38.2538 5.31096C38.3492 5.22296 38.4115 5.11479 38.4408 4.98646C38.4702 4.85813 38.4628 4.73163 38.4188 4.60696C38.3748 4.48229 38.3052 4.37779 38.2098 4.29346C38.1145 4.20913 38.0008 4.15963 37.8688 4.14496L34.7888 3.69396L33.4028 0.84496Z" fill="#FACC15"/>
<path d="M46.7778 0.84496C46.7192 0.727627 46.6348 0.634127 46.5248 0.56446C46.4148 0.494793 46.2938 0.45996 46.1618 0.45996C46.0298 0.45996 45.907 0.494793 45.7933 0.56446C45.6797 0.634127 45.5935 0.727627 45.5348 0.84496L44.1598 3.69396L41.0688 4.14496C40.9442 4.15963 40.8305 4.20913 40.7278 4.29346C40.6252 4.37779 40.5555 4.48229 40.5188 4.60696C40.4822 4.73163 40.4785 4.85813 40.5078 4.98646C40.5372 5.11479 40.5995 5.22296 40.6948 5.31096L42.9278 7.53296L42.3998 10.657C42.3778 10.789 42.3925 10.9136 42.4438 11.031C42.4952 11.1483 42.5722 11.2473 42.6748 11.328C42.7775 11.4086 42.8948 11.4526 43.0268 11.46C43.1588 11.4673 43.2835 11.4416 43.4008 11.383L46.1618 9.90896L48.9228 11.383C49.0402 11.4416 49.163 11.4673 49.2913 11.46C49.4197 11.4526 49.5388 11.4105 49.6488 11.3335C49.7588 11.2565 49.8377 11.1575 49.8853 11.0365C49.933 10.9155 49.9458 10.789 49.9238 10.657L49.3848 7.53296L51.6288 5.31096C51.7242 5.22296 51.7865 5.11479 51.8158 4.98646C51.8452 4.85813 51.8378 4.73163 51.7938 4.60696C51.7498 4.48229 51.6802 4.37779 51.5848 4.29346C51.4895 4.20913 51.3758 4.15963 51.2438 4.14496L48.1638 3.69396L46.7778 0.84496Z" fill="#FACC15"/>
</g>
</g>
</g>
<defs>
<clipPath id="clip0_6314_2123">
<rect width="66.88" height="11" fill="white" transform="translate(0.359375 0.459961)"/>
</clipPath>
<clipPath id="clip1_6314_2123">
<rect width="66.88" height="11" fill="white" transform="matrix(1 0 0 -1 0.359375 11.46)"/>
</clipPath>
<clipPath id="clip2_6314_2123">
<rect width="46.81" height="11" fill="white" transform="translate(0.359375 0.459961)"/>
</clipPath>
<clipPath id="clip3_6314_2123">
<rect width="66.88" height="11" fill="white" transform="matrix(1 0 0 -1 0.359375 11.46)"/>
</clipPath>
</defs>
</svg>
