<svg width="67" height="12" viewBox="0 0 67 12" fill="none" xmlns="http://www.w3.org/2000/svg">
<g clip-path="url(#clip0_6314_4462)">
<g clip-path="url(#clip1_6314_4462)">
<path d="M6.29346 0.945058C6.2348 0.827724 6.15046 0.734224 6.04046 0.664557C5.93046 0.594891 5.80946 0.560058 5.67746 0.560058C5.54546 0.560058 5.42263 0.594891 5.30896 0.664557C5.19529 0.734224 5.10913 0.827724 5.05046 0.945058L3.67546 3.79406L0.584462 4.24506C0.459795 4.25972 0.346128 4.30922 0.243462 4.39356C0.140795 4.47789 0.0711285 4.58239 0.0344618 4.70706C-0.00220486 4.83172 -0.00587153 4.95822 0.0234618 5.08656C0.0527951 5.21489 0.115128 5.32306 0.210462 5.41106L2.44346 7.63306L1.91546 10.7571C1.89346 10.8891 1.90813 11.0137 1.95946 11.1311C2.0108 11.2484 2.0878 11.3474 2.19046 11.4281C2.29313 11.5087 2.41046 11.5527 2.54246 11.5601C2.67446 11.5674 2.79913 11.5417 2.91646 11.4831L5.67746 10.0091L8.43846 11.4831C8.55579 11.5417 8.67863 11.5674 8.80696 11.5601C8.9353 11.5527 9.05446 11.5106 9.16446 11.4336C9.27446 11.3566 9.3533 11.2576 9.40096 11.1366C9.44863 11.0156 9.46146 10.8891 9.43946 10.7571L8.90046 7.63306L11.1445 5.41106C11.2398 5.32306 11.3021 5.21489 11.3315 5.08656C11.3608 4.95822 11.3535 4.83172 11.3095 4.70706C11.2655 4.58239 11.1958 4.47789 11.1005 4.39356C11.0051 4.30922 10.8915 4.25972 10.7595 4.24506L7.67946 3.79406L6.29346 0.945058Z" fill="#D1D5DB"/>
<path d="M19.6685 0.945058C19.6098 0.827724 19.5255 0.734224 19.4155 0.664557C19.3055 0.594891 19.1845 0.560058 19.0525 0.560058C18.9205 0.560058 18.7976 0.594891 18.684 0.664557C18.5703 0.734224 18.4841 0.827724 18.4255 0.945058L17.0505 3.79406L13.9595 4.24506C13.8348 4.25972 13.7211 4.30922 13.6185 4.39356C13.5158 4.47789 13.4461 4.58239 13.4095 4.70706C13.3728 4.83172 13.3691 4.95822 13.3985 5.08656C13.4278 5.21489 13.4901 5.32306 13.5855 5.41106L15.8185 7.63306L15.2905 10.7571C15.2685 10.8891 15.2831 11.0137 15.3345 11.1311C15.3858 11.2484 15.4628 11.3474 15.5655 11.4281C15.6681 11.5087 15.7855 11.5527 15.9175 11.5601C16.0495 11.5674 16.1741 11.5417 16.2915 11.4831L19.0525 10.0091L21.8135 11.4831C21.9308 11.5417 22.0536 11.5674 22.182 11.5601C22.3103 11.5527 22.4295 11.5106 22.5395 11.4336C22.6495 11.3566 22.7283 11.2576 22.776 11.1366C22.8236 11.0156 22.8365 10.8891 22.8145 10.7571L22.2755 7.63306L24.5195 5.41106C24.6148 5.32306 24.6771 5.21489 24.7065 5.08656C24.7358 4.95822 24.7285 4.83172 24.6845 4.70706C24.6405 4.58239 24.5708 4.47789 24.4755 4.39356C24.3801 4.30922 24.2665 4.25972 24.1345 4.24506L21.0545 3.79406L19.6685 0.945058Z" fill="#D1D5DB"/>
<path d="M33.0435 0.945058C32.9848 0.827724 32.9005 0.734224 32.7905 0.664557C32.6805 0.594891 32.5595 0.560058 32.4275 0.560058C32.2955 0.560058 32.1726 0.594891 32.059 0.664557C31.9453 0.734224 31.8591 0.827724 31.8005 0.945058L30.4255 3.79406L27.3345 4.24506C27.2098 4.25972 27.0961 4.30922 26.9935 4.39356C26.8908 4.47789 26.8211 4.58239 26.7845 4.70706C26.7478 4.83172 26.7441 4.95822 26.7735 5.08656C26.8028 5.21489 26.8651 5.32306 26.9605 5.41106L29.1935 7.63306L28.6655 10.7571C28.6435 10.8891 28.6581 11.0137 28.7095 11.1311C28.7608 11.2484 28.8378 11.3474 28.9405 11.4281C29.0431 11.5087 29.1605 11.5527 29.2925 11.5601C29.4245 11.5674 29.5491 11.5417 29.6665 11.4831L32.4275 10.0091L35.1885 11.4831C35.3058 11.5417 35.4286 11.5674 35.557 11.5601C35.6853 11.5527 35.8045 11.5106 35.9145 11.4336C36.0245 11.3566 36.1033 11.2576 36.151 11.1366C36.1986 11.0156 36.2115 10.8891 36.1895 10.7571L35.6505 7.63306L37.8945 5.41106C37.9898 5.32306 38.0521 5.21489 38.0815 5.08656C38.1108 4.95822 38.1035 4.83172 38.0595 4.70706C38.0155 4.58239 37.9458 4.47789 37.8505 4.39356C37.7551 4.30922 37.6415 4.25972 37.5095 4.24506L34.4295 3.79406L33.0435 0.945058Z" fill="#D1D5DB"/>
<path d="M46.4185 0.945058C46.3598 0.827724 46.2755 0.734224 46.1655 0.664557C46.0555 0.594891 45.9345 0.560058 45.8025 0.560058C45.6705 0.560058 45.5476 0.594891 45.434 0.664557C45.3203 0.734224 45.2341 0.827724 45.1755 0.945058L43.8005 3.79406L40.7095 4.24506C40.5848 4.25972 40.4711 4.30922 40.3685 4.39356C40.2658 4.47789 40.1961 4.58239 40.1595 4.70706C40.1228 4.83172 40.1191 4.95822 40.1485 5.08656C40.1778 5.21489 40.2401 5.32306 40.3355 5.41106L42.5685 7.63306L42.0405 10.7571C42.0185 10.8891 42.0331 11.0137 42.0845 11.1311C42.1358 11.2484 42.2128 11.3474 42.3155 11.4281C42.4181 11.5087 42.5355 11.5527 42.6675 11.5601C42.7995 11.5674 42.9241 11.5417 43.0415 11.4831L45.8025 10.0091L48.5635 11.4831C48.6808 11.5417 48.8036 11.5674 48.932 11.5601C49.0603 11.5527 49.1795 11.5106 49.2895 11.4336C49.3995 11.3566 49.4783 11.2576 49.526 11.1366C49.5736 11.0156 49.5865 10.8891 49.5645 10.7571L49.0255 7.63306L51.2695 5.41106C51.3648 5.32306 51.4271 5.21489 51.4565 5.08656C51.4858 4.95822 51.4785 4.83172 51.4345 4.70706C51.3905 4.58239 51.3208 4.47789 51.2255 4.39356C51.1301 4.30922 51.0165 4.25972 50.8845 4.24506L47.8045 3.79406L46.4185 0.945058Z" fill="#D1D5DB"/>
<path d="M59.7935 0.945058C59.7348 0.827724 59.6505 0.734224 59.5405 0.664557C59.4305 0.594891 59.3095 0.560058 59.1775 0.560058C59.0455 0.560058 58.9226 0.594891 58.809 0.664557C58.6953 0.734224 58.6091 0.827724 58.5505 0.945058L57.1755 3.79406L54.0845 4.24506C53.9598 4.25972 53.8461 4.30922 53.7435 4.39356C53.6408 4.47789 53.5711 4.58239 53.5345 4.70706C53.4978 4.83172 53.4941 4.95822 53.5235 5.08656C53.5528 5.21489 53.6151 5.32306 53.7105 5.41106L55.9435 7.63306L55.4155 10.7571C55.3935 10.8891 55.4081 11.0137 55.4595 11.1311C55.5108 11.2484 55.5878 11.3474 55.6905 11.4281C55.7931 11.5087 55.9105 11.5527 56.0425 11.5601C56.1745 11.5674 56.2991 11.5417 56.4165 11.4831L59.1775 10.0091L61.9385 11.4831C62.0558 11.5417 62.1786 11.5674 62.307 11.5601C62.4353 11.5527 62.5545 11.5106 62.6645 11.4336C62.7745 11.3566 62.8533 11.2576 62.901 11.1366C62.9486 11.0156 62.9615 10.8891 62.9395 10.7571L62.4005 7.63306L64.6445 5.41106C64.7398 5.32306 64.8021 5.21489 64.8315 5.08656C64.8608 4.95822 64.8535 4.83172 64.8095 4.70706C64.7655 4.58239 64.6958 4.47789 64.6005 4.39356C64.5051 4.30922 64.3915 4.25972 64.2595 4.24506L61.1795 3.79406L59.7935 0.945058Z" fill="#D1D5DB"/>
</g>
<g clip-path="url(#clip2_6314_4462)">
<g clip-path="url(#clip3_6314_4462)">
<path d="M6.29346 0.945058C6.2348 0.827724 6.15046 0.734224 6.04046 0.664557C5.93046 0.594891 5.80946 0.560058 5.67746 0.560058C5.54546 0.560058 5.42263 0.594891 5.30896 0.664557C5.19529 0.734224 5.10913 0.827724 5.05046 0.945058L3.67546 3.79406L0.584462 4.24506C0.459795 4.25972 0.346128 4.30922 0.243462 4.39356C0.140795 4.47789 0.0711285 4.58239 0.0344618 4.70706C-0.00220486 4.83172 -0.00587153 4.95822 0.0234618 5.08656C0.0527951 5.21489 0.115128 5.32306 0.210462 5.41106L2.44346 7.63306L1.91546 10.7571C1.89346 10.8891 1.90813 11.0137 1.95946 11.1311C2.0108 11.2484 2.0878 11.3474 2.19046 11.4281C2.29313 11.5087 2.41046 11.5527 2.54246 11.5601C2.67446 11.5674 2.79913 11.5417 2.91646 11.4831L5.67746 10.0091L8.43846 11.4831C8.55579 11.5417 8.67863 11.5674 8.80696 11.5601C8.9353 11.5527 9.05446 11.5106 9.16446 11.4336C9.27446 11.3566 9.3533 11.2576 9.40096 11.1366C9.44863 11.0156 9.46146 10.8891 9.43946 10.7571L8.90046 7.63306L11.1445 5.41106C11.2398 5.32306 11.3021 5.21489 11.3315 5.08656C11.3608 4.95822 11.3535 4.83172 11.3095 4.70706C11.2655 4.58239 11.1958 4.47789 11.1005 4.39356C11.0051 4.30922 10.8915 4.25972 10.7595 4.24506L7.67946 3.79406L6.29346 0.945058Z" fill="#FACC15"/>
<path d="M19.6685 0.945058C19.6098 0.827724 19.5255 0.734224 19.4155 0.664557C19.3055 0.594891 19.1845 0.560058 19.0525 0.560058C18.9205 0.560058 18.7976 0.594891 18.684 0.664557C18.5703 0.734224 18.4841 0.827724 18.4255 0.945058L17.0505 3.79406L13.9595 4.24506C13.8348 4.25972 13.7211 4.30922 13.6185 4.39356C13.5158 4.47789 13.4461 4.58239 13.4095 4.70706C13.3728 4.83172 13.3691 4.95822 13.3985 5.08656C13.4278 5.21489 13.4901 5.32306 13.5855 5.41106L15.8185 7.63306L15.2905 10.7571C15.2685 10.8891 15.2831 11.0137 15.3345 11.1311C15.3858 11.2484 15.4628 11.3474 15.5655 11.4281C15.6681 11.5087 15.7855 11.5527 15.9175 11.5601C16.0495 11.5674 16.1741 11.5417 16.2915 11.4831L19.0525 10.0091L21.8135 11.4831C21.9308 11.5417 22.0536 11.5674 22.182 11.5601C22.3103 11.5527 22.4295 11.5106 22.5395 11.4336C22.6495 11.3566 22.7283 11.2576 22.776 11.1366C22.8236 11.0156 22.8365 10.8891 22.8145 10.7571L22.2755 7.63306L24.5195 5.41106C24.6148 5.32306 24.6771 5.21489 24.7065 5.08656C24.7358 4.95822 24.7285 4.83172 24.6845 4.70706C24.6405 4.58239 24.5708 4.47789 24.4755 4.39356C24.3801 4.30922 24.2665 4.25972 24.1345 4.24506L21.0545 3.79406L19.6685 0.945058Z" fill="#FACC15"/>
<path d="M33.0435 0.945058C32.9848 0.827724 32.9005 0.734224 32.7905 0.664557C32.6805 0.594891 32.5595 0.560058 32.4275 0.560058C32.2955 0.560058 32.1726 0.594891 32.059 0.664557C31.9453 0.734224 31.8591 0.827724 31.8005 0.945058L30.4255 3.79406L27.3345 4.24506C27.2098 4.25972 27.0961 4.30922 26.9935 4.39356C26.8908 4.47789 26.8211 4.58239 26.7845 4.70706C26.7478 4.83172 26.7441 4.95822 26.7735 5.08656C26.8028 5.21489 26.8651 5.32306 26.9605 5.41106L29.1935 7.63306L28.6655 10.7571C28.6435 10.8891 28.6581 11.0137 28.7095 11.1311C28.7608 11.2484 28.8378 11.3474 28.9405 11.4281C29.0431 11.5087 29.1605 11.5527 29.2925 11.5601C29.4245 11.5674 29.5491 11.5417 29.6665 11.4831L32.4275 10.0091L35.1885 11.4831C35.3058 11.5417 35.4286 11.5674 35.557 11.5601C35.6853 11.5527 35.8045 11.5106 35.9145 11.4336C36.0245 11.3566 36.1033 11.2576 36.151 11.1366C36.1986 11.0156 36.2115 10.8891 36.1895 10.7571L35.6505 7.63306L37.8945 5.41106C37.9898 5.32306 38.0521 5.21489 38.0815 5.08656C38.1108 4.95822 38.1035 4.83172 38.0595 4.70706C38.0155 4.58239 37.9458 4.47789 37.8505 4.39356C37.7551 4.30922 37.6415 4.25972 37.5095 4.24506L34.4295 3.79406L33.0435 0.945058Z" fill="#FACC15"/>
</g>
</g>
</g>
<defs>
<clipPath id="clip0_6314_4462">
<rect width="66.88" height="11" fill="white" transform="translate(0 0.560059)"/>
</clipPath>
<clipPath id="clip1_6314_4462">
<rect width="66.88" height="11" fill="white" transform="matrix(1 0 0 -1 0 11.5601)"/>
</clipPath>
<clipPath id="clip2_6314_4462">
<rect width="31.16" height="11" fill="white" transform="translate(0 0.560059)"/>
</clipPath>
<clipPath id="clip3_6314_4462">
<rect width="66.88" height="11" fill="white" transform="matrix(1 0 0 -1 0 11.5601)"/>
</clipPath>
</defs>
</svg>
