<svg width="68" height="12" viewBox="0 0 68 12" fill="none" xmlns="http://www.w3.org/2000/svg">
<g clip-path="url(#clip0_6314_2004)">
<g clip-path="url(#clip1_6314_2004)">
<path d="M6.96534 0.84496C6.90667 0.727627 6.82234 0.634127 6.71234 0.56446C6.60234 0.494793 6.48134 0.45996 6.34934 0.45996C6.21734 0.45996 6.0945 0.494793 5.98084 0.56446C5.86717 0.634127 5.781 0.727627 5.72234 0.84496L4.34734 3.69396L1.25634 4.14496C1.13167 4.15963 1.018 4.20913 0.915337 4.29346C0.81267 4.37779 0.743003 4.48229 0.706337 4.60696C0.66967 4.73163 0.666003 4.85813 0.695337 4.98646C0.72467 5.11479 0.787003 5.22296 0.882337 5.31096L3.11534 7.53296L2.58734 10.657C2.56534 10.789 2.58 10.9136 2.63134 11.031C2.68267 11.1483 2.75967 11.2473 2.86234 11.328C2.965 11.4086 3.08234 11.4526 3.21434 11.46C3.34634 11.4673 3.471 11.4416 3.58834 11.383L6.34934 9.90896L9.11034 11.383C9.22767 11.4416 9.3505 11.4673 9.47884 11.46C9.60717 11.4526 9.72634 11.4105 9.83634 11.3335C9.94634 11.2565 10.0252 11.1575 10.0728 11.0365C10.1205 10.9155 10.1333 10.789 10.1113 10.657L9.57234 7.53296L11.8163 5.31096C11.9117 5.22296 11.974 5.11479 12.0033 4.98646C12.0327 4.85813 12.0253 4.73163 11.9813 4.60696C11.9373 4.48229 11.8677 4.37779 11.7723 4.29346C11.677 4.20913 11.5633 4.15963 11.4313 4.14496L8.35134 3.69396L6.96534 0.84496Z" fill="#D1D5DB"/>
<path d="M20.3403 0.84496C20.2817 0.727627 20.1973 0.634127 20.0873 0.56446C19.9773 0.494793 19.8563 0.45996 19.7243 0.45996C19.5923 0.45996 19.4695 0.494793 19.3558 0.56446C19.2422 0.634127 19.156 0.727627 19.0973 0.84496L17.7223 3.69396L14.6313 4.14496C14.5067 4.15963 14.393 4.20913 14.2903 4.29346C14.1877 4.37779 14.118 4.48229 14.0813 4.60696C14.0447 4.73163 14.041 4.85813 14.0703 4.98646C14.0997 5.11479 14.162 5.22296 14.2573 5.31096L16.4903 7.53296L15.9623 10.657C15.9403 10.789 15.955 10.9136 16.0063 11.031C16.0577 11.1483 16.1347 11.2473 16.2373 11.328C16.34 11.4086 16.4573 11.4526 16.5893 11.46C16.7213 11.4673 16.846 11.4416 16.9633 11.383L19.7243 9.90896L22.4853 11.383C22.6027 11.4416 22.7255 11.4673 22.8538 11.46C22.9822 11.4526 23.1013 11.4105 23.2113 11.3335C23.3213 11.2565 23.4002 11.1575 23.4478 11.0365C23.4955 10.9155 23.5083 10.789 23.4863 10.657L22.9473 7.53296L25.1913 5.31096C25.2867 5.22296 25.349 5.11479 25.3783 4.98646C25.4077 4.85813 25.4003 4.73163 25.3563 4.60696C25.3123 4.48229 25.2427 4.37779 25.1473 4.29346C25.052 4.20913 24.9383 4.15963 24.8063 4.14496L21.7263 3.69396L20.3403 0.84496Z" fill="#D1D5DB"/>
<path d="M33.7153 0.84496C33.6567 0.727627 33.5723 0.634127 33.4623 0.56446C33.3523 0.494793 33.2313 0.45996 33.0993 0.45996C32.9673 0.45996 32.8445 0.494793 32.7308 0.56446C32.6172 0.634127 32.531 0.727627 32.4723 0.84496L31.0973 3.69396L28.0063 4.14496C27.8817 4.15963 27.768 4.20913 27.6653 4.29346C27.5627 4.37779 27.493 4.48229 27.4563 4.60696C27.4197 4.73163 27.416 4.85813 27.4453 4.98646C27.4747 5.11479 27.537 5.22296 27.6323 5.31096L29.8653 7.53296L29.3373 10.657C29.3153 10.789 29.33 10.9136 29.3813 11.031C29.4327 11.1483 29.5097 11.2473 29.6123 11.328C29.715 11.4086 29.8323 11.4526 29.9643 11.46C30.0963 11.4673 30.221 11.4416 30.3383 11.383L33.0993 9.90896L35.8603 11.383C35.9777 11.4416 36.1005 11.4673 36.2288 11.46C36.3572 11.4526 36.4763 11.4105 36.5863 11.3335C36.6963 11.2565 36.7752 11.1575 36.8228 11.0365C36.8705 10.9155 36.8833 10.789 36.8613 10.657L36.3223 7.53296L38.5663 5.31096C38.6617 5.22296 38.724 5.11479 38.7533 4.98646C38.7827 4.85813 38.7753 4.73163 38.7313 4.60696C38.6873 4.48229 38.6177 4.37779 38.5223 4.29346C38.427 4.20913 38.3133 4.15963 38.1813 4.14496L35.1013 3.69396L33.7153 0.84496Z" fill="#D1D5DB"/>
<path d="M47.0903 0.84496C47.0317 0.727627 46.9473 0.634127 46.8373 0.56446C46.7273 0.494793 46.6063 0.45996 46.4743 0.45996C46.3423 0.45996 46.2195 0.494793 46.1058 0.56446C45.9922 0.634127 45.906 0.727627 45.8473 0.84496L44.4723 3.69396L41.3813 4.14496C41.2567 4.15963 41.143 4.20913 41.0403 4.29346C40.9377 4.37779 40.868 4.48229 40.8313 4.60696C40.7947 4.73163 40.791 4.85813 40.8203 4.98646C40.8497 5.11479 40.912 5.22296 41.0073 5.31096L43.2403 7.53296L42.7123 10.657C42.6903 10.789 42.705 10.9136 42.7563 11.031C42.8077 11.1483 42.8847 11.2473 42.9873 11.328C43.09 11.4086 43.2073 11.4526 43.3393 11.46C43.4713 11.4673 43.596 11.4416 43.7133 11.383L46.4743 9.90896L49.2353 11.383C49.3527 11.4416 49.4755 11.4673 49.6038 11.46C49.7322 11.4526 49.8513 11.4105 49.9613 11.3335C50.0713 11.2565 50.1502 11.1575 50.1978 11.0365C50.2455 10.9155 50.2583 10.789 50.2363 10.657L49.6973 7.53296L51.9413 5.31096C52.0367 5.22296 52.099 5.11479 52.1283 4.98646C52.1577 4.85813 52.1503 4.73163 52.1063 4.60696C52.0623 4.48229 51.9927 4.37779 51.8973 4.29346C51.802 4.20913 51.6883 4.15963 51.5563 4.14496L48.4763 3.69396L47.0903 0.84496Z" fill="#D1D5DB"/>
<path d="M60.4653 0.84496C60.4067 0.727627 60.3223 0.634127 60.2123 0.56446C60.1023 0.494793 59.9813 0.45996 59.8493 0.45996C59.7173 0.45996 59.5945 0.494793 59.4808 0.56446C59.3672 0.634127 59.281 0.727627 59.2223 0.84496L57.8473 3.69396L54.7563 4.14496C54.6317 4.15963 54.518 4.20913 54.4153 4.29346C54.3127 4.37779 54.243 4.48229 54.2063 4.60696C54.1697 4.73163 54.166 4.85813 54.1953 4.98646C54.2247 5.11479 54.287 5.22296 54.3823 5.31096L56.6153 7.53296L56.0873 10.657C56.0653 10.789 56.08 10.9136 56.1313 11.031C56.1827 11.1483 56.2597 11.2473 56.3623 11.328C56.465 11.4086 56.5823 11.4526 56.7143 11.46C56.8463 11.4673 56.971 11.4416 57.0883 11.383L59.8493 9.90896L62.6103 11.383C62.7277 11.4416 62.8505 11.4673 62.9788 11.46C63.1072 11.4526 63.2263 11.4105 63.3363 11.3335C63.4463 11.2565 63.5252 11.1575 63.5728 11.0365C63.6205 10.9155 63.6333 10.789 63.6113 10.657L63.0723 7.53296L65.3163 5.31096C65.4117 5.22296 65.474 5.11479 65.5033 4.98646C65.5327 4.85813 65.5253 4.73163 65.4813 4.60696C65.4373 4.48229 65.3677 4.37779 65.2723 4.29346C65.177 4.20913 65.0633 4.15963 64.9313 4.14496L61.8513 3.69396L60.4653 0.84496Z" fill="#D1D5DB"/>
</g>
<g clip-path="url(#clip2_6314_2004)">
<g clip-path="url(#clip3_6314_2004)">
<path d="M6.96534 0.84496C6.90667 0.727627 6.82234 0.634127 6.71234 0.56446C6.60234 0.494793 6.48134 0.45996 6.34934 0.45996C6.21734 0.45996 6.0945 0.494793 5.98084 0.56446C5.86717 0.634127 5.781 0.727627 5.72234 0.84496L4.34734 3.69396L1.25634 4.14496C1.13167 4.15963 1.018 4.20913 0.915337 4.29346C0.81267 4.37779 0.743003 4.48229 0.706337 4.60696C0.66967 4.73163 0.666003 4.85813 0.695337 4.98646C0.72467 5.11479 0.787003 5.22296 0.882337 5.31096L3.11534 7.53296L2.58734 10.657C2.56534 10.789 2.58 10.9136 2.63134 11.031C2.68267 11.1483 2.75967 11.2473 2.86234 11.328C2.965 11.4086 3.08234 11.4526 3.21434 11.46C3.34634 11.4673 3.471 11.4416 3.58834 11.383L6.34934 9.90896L9.11034 11.383C9.22767 11.4416 9.3505 11.4673 9.47884 11.46C9.60717 11.4526 9.72634 11.4105 9.83634 11.3335C9.94634 11.2565 10.0252 11.1575 10.0728 11.0365C10.1205 10.9155 10.1333 10.789 10.1113 10.657L9.57234 7.53296L11.8163 5.31096C11.9117 5.22296 11.974 5.11479 12.0033 4.98646C12.0327 4.85813 12.0253 4.73163 11.9813 4.60696C11.9373 4.48229 11.8677 4.37779 11.7723 4.29346C11.677 4.20913 11.5633 4.15963 11.4313 4.14496L8.35134 3.69396L6.96534 0.84496Z" fill="#FACC15"/>
<path d="M20.3403 0.84496C20.2817 0.727627 20.1973 0.634127 20.0873 0.56446C19.9773 0.494793 19.8563 0.45996 19.7243 0.45996C19.5923 0.45996 19.4695 0.494793 19.3558 0.56446C19.2422 0.634127 19.156 0.727627 19.0973 0.84496L17.7223 3.69396L14.6313 4.14496C14.5067 4.15963 14.393 4.20913 14.2903 4.29346C14.1877 4.37779 14.118 4.48229 14.0813 4.60696C14.0447 4.73163 14.041 4.85813 14.0703 4.98646C14.0997 5.11479 14.162 5.22296 14.2573 5.31096L16.4903 7.53296L15.9623 10.657C15.9403 10.789 15.955 10.9136 16.0063 11.031C16.0577 11.1483 16.1347 11.2473 16.2373 11.328C16.34 11.4086 16.4573 11.4526 16.5893 11.46C16.7213 11.4673 16.846 11.4416 16.9633 11.383L19.7243 9.90896L22.4853 11.383C22.6027 11.4416 22.7255 11.4673 22.8538 11.46C22.9822 11.4526 23.1013 11.4105 23.2113 11.3335C23.3213 11.2565 23.4002 11.1575 23.4478 11.0365C23.4955 10.9155 23.5083 10.789 23.4863 10.657L22.9473 7.53296L25.1913 5.31096C25.2867 5.22296 25.349 5.11479 25.3783 4.98646C25.4077 4.85813 25.4003 4.73163 25.3563 4.60696C25.3123 4.48229 25.2427 4.37779 25.1473 4.29346C25.052 4.20913 24.9383 4.15963 24.8063 4.14496L21.7263 3.69396L20.3403 0.84496Z" fill="#FACC15"/>
<path d="M33.7153 0.84496C33.6567 0.727627 33.5723 0.634127 33.4623 0.56446C33.3523 0.494793 33.2313 0.45996 33.0993 0.45996C32.9673 0.45996 32.8445 0.494793 32.7308 0.56446C32.6172 0.634127 32.531 0.727627 32.4723 0.84496L31.0973 3.69396L28.0063 4.14496C27.8817 4.15963 27.768 4.20913 27.6653 4.29346C27.5627 4.37779 27.493 4.48229 27.4563 4.60696C27.4197 4.73163 27.416 4.85813 27.4453 4.98646C27.4747 5.11479 27.537 5.22296 27.6323 5.31096L29.8653 7.53296L29.3373 10.657C29.3153 10.789 29.33 10.9136 29.3813 11.031C29.4327 11.1483 29.5097 11.2473 29.6123 11.328C29.715 11.4086 29.8323 11.4526 29.9643 11.46C30.0963 11.4673 30.221 11.4416 30.3383 11.383L33.0993 9.90896L35.8603 11.383C35.9777 11.4416 36.1005 11.4673 36.2288 11.46C36.3572 11.4526 36.4763 11.4105 36.5863 11.3335C36.6963 11.2565 36.7752 11.1575 36.8228 11.0365C36.8705 10.9155 36.8833 10.789 36.8613 10.657L36.3223 7.53296L38.5663 5.31096C38.6617 5.22296 38.724 5.11479 38.7533 4.98646C38.7827 4.85813 38.7753 4.73163 38.7313 4.60696C38.6873 4.48229 38.6177 4.37779 38.5223 4.29346C38.427 4.20913 38.3133 4.15963 38.1813 4.14496L35.1013 3.69396L33.7153 0.84496Z" fill="#FACC15"/>
</g>
</g>
</g>
<defs>
<clipPath id="clip0_6314_2004">
<rect width="66.88" height="11" fill="white" transform="translate(0.671875 0.459961)"/>
</clipPath>
<clipPath id="clip1_6314_2004">
<rect width="66.88" height="11" fill="white" transform="matrix(1 0 0 -1 0.671875 11.46)"/>
</clipPath>
<clipPath id="clip2_6314_2004">
<rect width="31.16" height="11" fill="white" transform="translate(0.671875 0.459961)"/>
</clipPath>
<clipPath id="clip3_6314_2004">
<rect width="66.88" height="11" fill="white" transform="matrix(1 0 0 -1 0.671875 11.46)"/>
</clipPath>
</defs>
</svg>
