<svg width="67" height="12" viewBox="0 0 67 12" fill="none" xmlns="http://www.w3.org/2000/svg">
<g clip-path="url(#clip0_6314_1967)">
<g clip-path="url(#clip1_6314_1967)">
<path d="M6.29346 0.84496C6.2348 0.727627 6.15046 0.634127 6.04046 0.56446C5.93046 0.494793 5.80946 0.45996 5.67746 0.45996C5.54546 0.45996 5.42263 0.494793 5.30896 0.56446C5.19529 0.634127 5.10913 0.727627 5.05046 0.84496L3.67546 3.69396L0.584462 4.14496C0.459795 4.15963 0.346128 4.20913 0.243462 4.29346C0.140795 4.37779 0.0711285 4.48229 0.0344618 4.60696C-0.00220486 4.73163 -0.00587153 4.85813 0.0234618 4.98646C0.0527951 5.11479 0.115128 5.22296 0.210462 5.31096L2.44346 7.53296L1.91546 10.657C1.89346 10.789 1.90813 10.9136 1.95946 11.031C2.0108 11.1483 2.0878 11.2473 2.19046 11.328C2.29313 11.4086 2.41046 11.4526 2.54246 11.46C2.67446 11.4673 2.79913 11.4416 2.91646 11.383L5.67746 9.90896L8.43846 11.383C8.55579 11.4416 8.67863 11.4673 8.80696 11.46C8.9353 11.4526 9.05446 11.4105 9.16446 11.3335C9.27446 11.2565 9.3533 11.1575 9.40096 11.0365C9.44863 10.9155 9.46146 10.789 9.43946 10.657L8.90046 7.53296L11.1445 5.31096C11.2398 5.22296 11.3021 5.11479 11.3315 4.98646C11.3608 4.85813 11.3535 4.73163 11.3095 4.60696C11.2655 4.48229 11.1958 4.37779 11.1005 4.29346C11.0051 4.20913 10.8915 4.15963 10.7595 4.14496L7.67946 3.69396L6.29346 0.84496Z" fill="#D1D5DB"/>
<path d="M19.6685 0.84496C19.6098 0.727627 19.5255 0.634127 19.4155 0.56446C19.3055 0.494793 19.1845 0.45996 19.0525 0.45996C18.9205 0.45996 18.7976 0.494793 18.684 0.56446C18.5703 0.634127 18.4841 0.727627 18.4255 0.84496L17.0505 3.69396L13.9595 4.14496C13.8348 4.15963 13.7211 4.20913 13.6185 4.29346C13.5158 4.37779 13.4461 4.48229 13.4095 4.60696C13.3728 4.73163 13.3691 4.85813 13.3985 4.98646C13.4278 5.11479 13.4901 5.22296 13.5855 5.31096L15.8185 7.53296L15.2905 10.657C15.2685 10.789 15.2831 10.9136 15.3345 11.031C15.3858 11.1483 15.4628 11.2473 15.5655 11.328C15.6681 11.4086 15.7855 11.4526 15.9175 11.46C16.0495 11.4673 16.1741 11.4416 16.2915 11.383L19.0525 9.90896L21.8135 11.383C21.9308 11.4416 22.0536 11.4673 22.182 11.46C22.3103 11.4526 22.4295 11.4105 22.5395 11.3335C22.6495 11.2565 22.7283 11.1575 22.776 11.0365C22.8236 10.9155 22.8365 10.789 22.8145 10.657L22.2755 7.53296L24.5195 5.31096C24.6148 5.22296 24.6771 5.11479 24.7065 4.98646C24.7358 4.85813 24.7285 4.73163 24.6845 4.60696C24.6405 4.48229 24.5708 4.37779 24.4755 4.29346C24.3801 4.20913 24.2665 4.15963 24.1345 4.14496L21.0545 3.69396L19.6685 0.84496Z" fill="#D1D5DB"/>
<path d="M33.0435 0.84496C32.9848 0.727627 32.9005 0.634127 32.7905 0.56446C32.6805 0.494793 32.5595 0.45996 32.4275 0.45996C32.2955 0.45996 32.1726 0.494793 32.059 0.56446C31.9453 0.634127 31.8591 0.727627 31.8005 0.84496L30.4255 3.69396L27.3345 4.14496C27.2098 4.15963 27.0961 4.20913 26.9935 4.29346C26.8908 4.37779 26.8211 4.48229 26.7845 4.60696C26.7478 4.73163 26.7441 4.85813 26.7735 4.98646C26.8028 5.11479 26.8651 5.22296 26.9605 5.31096L29.1935 7.53296L28.6655 10.657C28.6435 10.789 28.6581 10.9136 28.7095 11.031C28.7608 11.1483 28.8378 11.2473 28.9405 11.328C29.0431 11.4086 29.1605 11.4526 29.2925 11.46C29.4245 11.4673 29.5491 11.4416 29.6665 11.383L32.4275 9.90896L35.1885 11.383C35.3058 11.4416 35.4286 11.4673 35.557 11.46C35.6853 11.4526 35.8045 11.4105 35.9145 11.3335C36.0245 11.2565 36.1033 11.1575 36.151 11.0365C36.1986 10.9155 36.2115 10.789 36.1895 10.657L35.6505 7.53296L37.8945 5.31096C37.9898 5.22296 38.0521 5.11479 38.0815 4.98646C38.1108 4.85813 38.1035 4.73163 38.0595 4.60696C38.0155 4.48229 37.9458 4.37779 37.8505 4.29346C37.7551 4.20913 37.6415 4.15963 37.5095 4.14496L34.4295 3.69396L33.0435 0.84496Z" fill="#D1D5DB"/>
<path d="M46.4185 0.84496C46.3598 0.727627 46.2755 0.634127 46.1655 0.56446C46.0555 0.494793 45.9345 0.45996 45.8025 0.45996C45.6705 0.45996 45.5476 0.494793 45.434 0.56446C45.3203 0.634127 45.2341 0.727627 45.1755 0.84496L43.8005 3.69396L40.7095 4.14496C40.5848 4.15963 40.4711 4.20913 40.3685 4.29346C40.2658 4.37779 40.1961 4.48229 40.1595 4.60696C40.1228 4.73163 40.1191 4.85813 40.1485 4.98646C40.1778 5.11479 40.2401 5.22296 40.3355 5.31096L42.5685 7.53296L42.0405 10.657C42.0185 10.789 42.0331 10.9136 42.0845 11.031C42.1358 11.1483 42.2128 11.2473 42.3155 11.328C42.4181 11.4086 42.5355 11.4526 42.6675 11.46C42.7995 11.4673 42.9241 11.4416 43.0415 11.383L45.8025 9.90896L48.5635 11.383C48.6808 11.4416 48.8036 11.4673 48.932 11.46C49.0603 11.4526 49.1795 11.4105 49.2895 11.3335C49.3995 11.2565 49.4783 11.1575 49.526 11.0365C49.5736 10.9155 49.5865 10.789 49.5645 10.657L49.0255 7.53296L51.2695 5.31096C51.3648 5.22296 51.4271 5.11479 51.4565 4.98646C51.4858 4.85813 51.4785 4.73163 51.4345 4.60696C51.3905 4.48229 51.3208 4.37779 51.2255 4.29346C51.1301 4.20913 51.0165 4.15963 50.8845 4.14496L47.8045 3.69396L46.4185 0.84496Z" fill="#D1D5DB"/>
<path d="M59.7935 0.84496C59.7348 0.727627 59.6505 0.634127 59.5405 0.56446C59.4305 0.494793 59.3095 0.45996 59.1775 0.45996C59.0455 0.45996 58.9226 0.494793 58.809 0.56446C58.6953 0.634127 58.6091 0.727627 58.5505 0.84496L57.1755 3.69396L54.0845 4.14496C53.9598 4.15963 53.8461 4.20913 53.7435 4.29346C53.6408 4.37779 53.5711 4.48229 53.5345 4.60696C53.4978 4.73163 53.4941 4.85813 53.5235 4.98646C53.5528 5.11479 53.6151 5.22296 53.7105 5.31096L55.9435 7.53296L55.4155 10.657C55.3935 10.789 55.4081 10.9136 55.4595 11.031C55.5108 11.1483 55.5878 11.2473 55.6905 11.328C55.7931 11.4086 55.9105 11.4526 56.0425 11.46C56.1745 11.4673 56.2991 11.4416 56.4165 11.383L59.1775 9.90896L61.9385 11.383C62.0558 11.4416 62.1786 11.4673 62.307 11.46C62.4353 11.4526 62.5545 11.4105 62.6645 11.3335C62.7745 11.2565 62.8533 11.1575 62.901 11.0365C62.9486 10.9155 62.9615 10.789 62.9395 10.657L62.4005 7.53296L64.6445 5.31096C64.7398 5.22296 64.8021 5.11479 64.8315 4.98646C64.8608 4.85813 64.8535 4.73163 64.8095 4.60696C64.7655 4.48229 64.6958 4.37779 64.6005 4.29346C64.5051 4.20913 64.3915 4.15963 64.2595 4.14496L61.1795 3.69396L59.7935 0.84496Z" fill="#D1D5DB"/>
</g>
<g clip-path="url(#clip2_6314_1967)">
<g clip-path="url(#clip3_6314_1967)">
<path d="M6.29346 0.84496C6.2348 0.727627 6.15046 0.634127 6.04046 0.56446C5.93046 0.494793 5.80946 0.45996 5.67746 0.45996C5.54546 0.45996 5.42263 0.494793 5.30896 0.56446C5.19529 0.634127 5.10913 0.727627 5.05046 0.84496L3.67546 3.69396L0.584462 4.14496C0.459795 4.15963 0.346128 4.20913 0.243462 4.29346C0.140795 4.37779 0.0711285 4.48229 0.0344618 4.60696C-0.00220486 4.73163 -0.00587153 4.85813 0.0234618 4.98646C0.0527951 5.11479 0.115128 5.22296 0.210462 5.31096L2.44346 7.53296L1.91546 10.657C1.89346 10.789 1.90813 10.9136 1.95946 11.031C2.0108 11.1483 2.0878 11.2473 2.19046 11.328C2.29313 11.4086 2.41046 11.4526 2.54246 11.46C2.67446 11.4673 2.79913 11.4416 2.91646 11.383L5.67746 9.90896L8.43846 11.383C8.55579 11.4416 8.67863 11.4673 8.80696 11.46C8.9353 11.4526 9.05446 11.4105 9.16446 11.3335C9.27446 11.2565 9.3533 11.1575 9.40096 11.0365C9.44863 10.9155 9.46146 10.789 9.43946 10.657L8.90046 7.53296L11.1445 5.31096C11.2398 5.22296 11.3021 5.11479 11.3315 4.98646C11.3608 4.85813 11.3535 4.73163 11.3095 4.60696C11.2655 4.48229 11.1958 4.37779 11.1005 4.29346C11.0051 4.20913 10.8915 4.15963 10.7595 4.14496L7.67946 3.69396L6.29346 0.84496Z" fill="#FACC15"/>
<path d="M19.6685 0.84496C19.6098 0.727627 19.5255 0.634127 19.4155 0.56446C19.3055 0.494793 19.1845 0.45996 19.0525 0.45996C18.9205 0.45996 18.7976 0.494793 18.684 0.56446C18.5703 0.634127 18.4841 0.727627 18.4255 0.84496L17.0505 3.69396L13.9595 4.14496C13.8348 4.15963 13.7211 4.20913 13.6185 4.29346C13.5158 4.37779 13.4461 4.48229 13.4095 4.60696C13.3728 4.73163 13.3691 4.85813 13.3985 4.98646C13.4278 5.11479 13.4901 5.22296 13.5855 5.31096L15.8185 7.53296L15.2905 10.657C15.2685 10.789 15.2831 10.9136 15.3345 11.031C15.3858 11.1483 15.4628 11.2473 15.5655 11.328C15.6681 11.4086 15.7855 11.4526 15.9175 11.46C16.0495 11.4673 16.1741 11.4416 16.2915 11.383L19.0525 9.90896L21.8135 11.383C21.9308 11.4416 22.0536 11.4673 22.182 11.46C22.3103 11.4526 22.4295 11.4105 22.5395 11.3335C22.6495 11.2565 22.7283 11.1575 22.776 11.0365C22.8236 10.9155 22.8365 10.789 22.8145 10.657L22.2755 7.53296L24.5195 5.31096C24.6148 5.22296 24.6771 5.11479 24.7065 4.98646C24.7358 4.85813 24.7285 4.73163 24.6845 4.60696C24.6405 4.48229 24.5708 4.37779 24.4755 4.29346C24.3801 4.20913 24.2665 4.15963 24.1345 4.14496L21.0545 3.69396L19.6685 0.84496Z" fill="#FACC15"/>
<path d="M33.0435 0.84496C32.9848 0.727627 32.9005 0.634127 32.7905 0.56446C32.6805 0.494793 32.5595 0.45996 32.4275 0.45996C32.2955 0.45996 32.1726 0.494793 32.059 0.56446C31.9453 0.634127 31.8591 0.727627 31.8005 0.84496L30.4255 3.69396L27.3345 4.14496C27.2098 4.15963 27.0961 4.20913 26.9935 4.29346C26.8908 4.37779 26.8211 4.48229 26.7845 4.60696C26.7478 4.73163 26.7441 4.85813 26.7735 4.98646C26.8028 5.11479 26.8651 5.22296 26.9605 5.31096L29.1935 7.53296L28.6655 10.657C28.6435 10.789 28.6581 10.9136 28.7095 11.031C28.7608 11.1483 28.8378 11.2473 28.9405 11.328C29.0431 11.4086 29.1605 11.4526 29.2925 11.46C29.4245 11.4673 29.5491 11.4416 29.6665 11.383L32.4275 9.90896L35.1885 11.383C35.3058 11.4416 35.4286 11.4673 35.557 11.46C35.6853 11.4526 35.8045 11.4105 35.9145 11.3335C36.0245 11.2565 36.1033 11.1575 36.151 11.0365C36.1986 10.9155 36.2115 10.789 36.1895 10.657L35.6505 7.53296L37.8945 5.31096C37.9898 5.22296 38.0521 5.11479 38.0815 4.98646C38.1108 4.85813 38.1035 4.73163 38.0595 4.60696C38.0155 4.48229 37.9458 4.37779 37.8505 4.29346C37.7551 4.20913 37.6415 4.15963 37.5095 4.14496L34.4295 3.69396L33.0435 0.84496Z" fill="#FACC15"/>
<path d="M46.4185 0.84496C46.3598 0.727627 46.2755 0.634127 46.1655 0.56446C46.0555 0.494793 45.9345 0.45996 45.8025 0.45996C45.6705 0.45996 45.5476 0.494793 45.434 0.56446C45.3203 0.634127 45.2341 0.727627 45.1755 0.84496L43.8005 3.69396L40.7095 4.14496C40.5848 4.15963 40.4711 4.20913 40.3685 4.29346C40.2658 4.37779 40.1961 4.48229 40.1595 4.60696C40.1228 4.73163 40.1191 4.85813 40.1485 4.98646C40.1778 5.11479 40.2401 5.22296 40.3355 5.31096L42.5685 7.53296L42.0405 10.657C42.0185 10.789 42.0331 10.9136 42.0845 11.031C42.1358 11.1483 42.2128 11.2473 42.3155 11.328C42.4181 11.4086 42.5355 11.4526 42.6675 11.46C42.7995 11.4673 42.9241 11.4416 43.0415 11.383L45.8025 9.90896L48.5635 11.383C48.6808 11.4416 48.8036 11.4673 48.932 11.46C49.0603 11.4526 49.1795 11.4105 49.2895 11.3335C49.3995 11.2565 49.4783 11.1575 49.526 11.0365C49.5736 10.9155 49.5865 10.789 49.5645 10.657L49.0255 7.53296L51.2695 5.31096C51.3648 5.22296 51.4271 5.11479 51.4565 4.98646C51.4858 4.85813 51.4785 4.73163 51.4345 4.60696C51.3905 4.48229 51.3208 4.37779 51.2255 4.29346C51.1301 4.20913 51.0165 4.15963 50.8845 4.14496L47.8045 3.69396L46.4185 0.84496Z" fill="#FACC15"/>
<path d="M59.7935 0.84496C59.7348 0.727627 59.6505 0.634127 59.5405 0.56446C59.4305 0.494793 59.3095 0.45996 59.1775 0.45996C59.0455 0.45996 58.9226 0.494793 58.809 0.56446C58.6953 0.634127 58.6091 0.727627 58.5505 0.84496L57.1755 3.69396L54.0845 4.14496C53.9598 4.15963 53.8461 4.20913 53.7435 4.29346C53.6408 4.37779 53.5711 4.48229 53.5345 4.60696C53.4978 4.73163 53.4941 4.85813 53.5235 4.98646C53.5528 5.11479 53.6151 5.22296 53.7105 5.31096L55.9435 7.53296L55.4155 10.657C55.3935 10.789 55.4081 10.9136 55.4595 11.031C55.5108 11.1483 55.5878 11.2473 55.6905 11.328C55.7931 11.4086 55.9105 11.4526 56.0425 11.46C56.1745 11.4673 56.2991 11.4416 56.4165 11.383L59.1775 9.90896L61.9385 11.383C62.0558 11.4416 62.1786 11.4673 62.307 11.46C62.4353 11.4526 62.5545 11.4105 62.6645 11.3335C62.7745 11.2565 62.8533 11.1575 62.901 11.0365C62.9486 10.9155 62.9615 10.789 62.9395 10.657L62.4005 7.53296L64.6445 5.31096C64.7398 5.22296 64.8021 5.11479 64.8315 4.98646C64.8608 4.85813 64.8535 4.73163 64.8095 4.60696C64.7655 4.48229 64.6958 4.37779 64.6005 4.29346C64.5051 4.20913 64.3915 4.15963 64.2595 4.14496L61.1795 3.69396L59.7935 0.84496Z" fill="#FACC15"/>
</g>
</g>
</g>
<defs>
<clipPath id="clip0_6314_1967">
<rect width="66.88" height="11" fill="white" transform="translate(0 0.459961)"/>
</clipPath>
<clipPath id="clip1_6314_1967">
<rect width="66.88" height="11" fill="white" transform="matrix(1 0 0 -1 0 11.46)"/>
</clipPath>
<clipPath id="clip2_6314_1967">
<rect width="53.5" height="11" fill="white" transform="translate(0 0.459961)"/>
</clipPath>
<clipPath id="clip3_6314_1967">
<rect width="66.88" height="11" fill="white" transform="matrix(1 0 0 -1 0 11.46)"/>
</clipPath>
</defs>
</svg>
