<svg width="67" height="12" viewBox="0 0 67 12" fill="none" xmlns="http://www.w3.org/2000/svg">
<g clip-path="url(#clip0_6314_1648)">
<g clip-path="url(#clip1_6314_1648)">
<path d="M6.29346 0.884999C6.2348 0.767666 6.15046 0.674166 6.04046 0.604499C5.93046 0.534832 5.80946 0.499999 5.67746 0.499999C5.54546 0.499999 5.42263 0.534832 5.30896 0.604499C5.19529 0.674166 5.10913 0.767666 5.05046 0.884999L3.67546 3.734L0.584462 4.185C0.459795 4.19967 0.346128 4.24917 0.243462 4.3335C0.140795 4.41783 0.0711285 4.52233 0.0344618 4.647C-0.00220486 4.77167 -0.00587153 4.89817 0.0234618 5.0265C0.0527951 5.15483 0.115128 5.263 0.210462 5.351L2.44346 7.573L1.91546 10.697C1.89346 10.829 1.90813 10.9537 1.95946 11.071C2.0108 11.1883 2.0878 11.2873 2.19046 11.368C2.29313 11.4487 2.41046 11.4927 2.54246 11.5C2.67446 11.5073 2.79913 11.4817 2.91646 11.423L5.67746 9.949L8.43846 11.423C8.55579 11.4817 8.67863 11.5073 8.80696 11.5C8.9353 11.4927 9.05446 11.4505 9.16446 11.3735C9.27446 11.2965 9.3533 11.1975 9.40096 11.0765C9.44863 10.9555 9.46146 10.829 9.43946 10.697L8.90046 7.573L11.1445 5.351C11.2398 5.263 11.3021 5.15483 11.3315 5.0265C11.3608 4.89817 11.3535 4.77167 11.3095 4.647C11.2655 4.52233 11.1958 4.41783 11.1005 4.3335C11.0051 4.24917 10.8915 4.19967 10.7595 4.185L7.67946 3.734L6.29346 0.884999Z" fill="#D1D5DB"/>
<path d="M19.6685 0.884999C19.6098 0.767666 19.5255 0.674166 19.4155 0.604499C19.3055 0.534832 19.1845 0.499999 19.0525 0.499999C18.9205 0.499999 18.7976 0.534832 18.684 0.604499C18.5703 0.674166 18.4841 0.767666 18.4255 0.884999L17.0505 3.734L13.9595 4.185C13.8348 4.19967 13.7211 4.24917 13.6185 4.3335C13.5158 4.41783 13.4461 4.52233 13.4095 4.647C13.3728 4.77167 13.3691 4.89817 13.3985 5.0265C13.4278 5.15483 13.4901 5.263 13.5855 5.351L15.8185 7.573L15.2905 10.697C15.2685 10.829 15.2831 10.9537 15.3345 11.071C15.3858 11.1883 15.4628 11.2873 15.5655 11.368C15.6681 11.4487 15.7855 11.4927 15.9175 11.5C16.0495 11.5073 16.1741 11.4817 16.2915 11.423L19.0525 9.949L21.8135 11.423C21.9308 11.4817 22.0536 11.5073 22.182 11.5C22.3103 11.4927 22.4295 11.4505 22.5395 11.3735C22.6495 11.2965 22.7283 11.1975 22.776 11.0765C22.8236 10.9555 22.8365 10.829 22.8145 10.697L22.2755 7.573L24.5195 5.351C24.6148 5.263 24.6771 5.15483 24.7065 5.0265C24.7358 4.89817 24.7285 4.77167 24.6845 4.647C24.6405 4.52233 24.5708 4.41783 24.4755 4.3335C24.3801 4.24917 24.2665 4.19967 24.1345 4.185L21.0545 3.734L19.6685 0.884999Z" fill="#D1D5DB"/>
<path d="M33.0435 0.884999C32.9848 0.767666 32.9005 0.674166 32.7905 0.604499C32.6805 0.534832 32.5595 0.499999 32.4275 0.499999C32.2955 0.499999 32.1726 0.534832 32.059 0.604499C31.9453 0.674166 31.8591 0.767666 31.8005 0.884999L30.4255 3.734L27.3345 4.185C27.2098 4.19967 27.0961 4.24917 26.9935 4.3335C26.8908 4.41783 26.8211 4.52233 26.7845 4.647C26.7478 4.77167 26.7441 4.89817 26.7735 5.0265C26.8028 5.15483 26.8651 5.263 26.9605 5.351L29.1935 7.573L28.6655 10.697C28.6435 10.829 28.6581 10.9537 28.7095 11.071C28.7608 11.1883 28.8378 11.2873 28.9405 11.368C29.0431 11.4487 29.1605 11.4927 29.2925 11.5C29.4245 11.5073 29.5491 11.4817 29.6665 11.423L32.4275 9.949L35.1885 11.423C35.3058 11.4817 35.4286 11.5073 35.557 11.5C35.6853 11.4927 35.8045 11.4505 35.9145 11.3735C36.0245 11.2965 36.1033 11.1975 36.151 11.0765C36.1986 10.9555 36.2115 10.829 36.1895 10.697L35.6505 7.573L37.8945 5.351C37.9898 5.263 38.0521 5.15483 38.0815 5.0265C38.1108 4.89817 38.1035 4.77167 38.0595 4.647C38.0155 4.52233 37.9458 4.41783 37.8505 4.3335C37.7551 4.24917 37.6415 4.19967 37.5095 4.185L34.4295 3.734L33.0435 0.884999Z" fill="#D1D5DB"/>
<path d="M46.4185 0.884999C46.3598 0.767666 46.2755 0.674166 46.1655 0.604499C46.0555 0.534832 45.9345 0.499999 45.8025 0.499999C45.6705 0.499999 45.5476 0.534832 45.434 0.604499C45.3203 0.674166 45.2341 0.767666 45.1755 0.884999L43.8005 3.734L40.7095 4.185C40.5848 4.19967 40.4711 4.24917 40.3685 4.3335C40.2658 4.41783 40.1961 4.52233 40.1595 4.647C40.1228 4.77167 40.1191 4.89817 40.1485 5.0265C40.1778 5.15483 40.2401 5.263 40.3355 5.351L42.5685 7.573L42.0405 10.697C42.0185 10.829 42.0331 10.9537 42.0845 11.071C42.1358 11.1883 42.2128 11.2873 42.3155 11.368C42.4181 11.4487 42.5355 11.4927 42.6675 11.5C42.7995 11.5073 42.9241 11.4817 43.0415 11.423L45.8025 9.949L48.5635 11.423C48.6808 11.4817 48.8036 11.5073 48.932 11.5C49.0603 11.4927 49.1795 11.4505 49.2895 11.3735C49.3995 11.2965 49.4783 11.1975 49.526 11.0765C49.5736 10.9555 49.5865 10.829 49.5645 10.697L49.0255 7.573L51.2695 5.351C51.3648 5.263 51.4271 5.15483 51.4565 5.0265C51.4858 4.89817 51.4785 4.77167 51.4345 4.647C51.3905 4.52233 51.3208 4.41783 51.2255 4.3335C51.1301 4.24917 51.0165 4.19967 50.8845 4.185L47.8045 3.734L46.4185 0.884999Z" fill="#D1D5DB"/>
<path d="M59.7935 0.884999C59.7348 0.767666 59.6505 0.674166 59.5405 0.604499C59.4305 0.534832 59.3095 0.499999 59.1775 0.499999C59.0455 0.499999 58.9226 0.534832 58.809 0.604499C58.6953 0.674166 58.6091 0.767666 58.5505 0.884999L57.1755 3.734L54.0845 4.185C53.9598 4.19967 53.8461 4.24917 53.7435 4.3335C53.6408 4.41783 53.5711 4.52233 53.5345 4.647C53.4978 4.77167 53.4941 4.89817 53.5235 5.0265C53.5528 5.15483 53.6151 5.263 53.7105 5.351L55.9435 7.573L55.4155 10.697C55.3935 10.829 55.4081 10.9537 55.4595 11.071C55.5108 11.1883 55.5878 11.2873 55.6905 11.368C55.7931 11.4487 55.9105 11.4927 56.0425 11.5C56.1745 11.5073 56.2991 11.4817 56.4165 11.423L59.1775 9.949L61.9385 11.423C62.0558 11.4817 62.1786 11.5073 62.307 11.5C62.4353 11.4927 62.5545 11.4505 62.6645 11.3735C62.7745 11.2965 62.8533 11.1975 62.901 11.0765C62.9486 10.9555 62.9615 10.829 62.9395 10.697L62.4005 7.573L64.6445 5.351C64.7398 5.263 64.8021 5.15483 64.8315 5.0265C64.8608 4.89817 64.8535 4.77167 64.8095 4.647C64.7655 4.52233 64.6958 4.41783 64.6005 4.3335C64.5051 4.24917 64.3915 4.19967 64.2595 4.185L61.1795 3.734L59.7935 0.884999Z" fill="#D1D5DB"/>
</g>
<g clip-path="url(#clip2_6314_1648)">
<g clip-path="url(#clip3_6314_1648)">
<path d="M6.29346 0.884999C6.2348 0.767666 6.15046 0.674166 6.04046 0.604499C5.93046 0.534832 5.80946 0.499999 5.67746 0.499999C5.54546 0.499999 5.42263 0.534832 5.30896 0.604499C5.19529 0.674166 5.10913 0.767666 5.05046 0.884999L3.67546 3.734L0.584462 4.185C0.459795 4.19967 0.346128 4.24917 0.243462 4.3335C0.140795 4.41783 0.0711285 4.52233 0.0344618 4.647C-0.00220486 4.77167 -0.00587153 4.89817 0.0234618 5.0265C0.0527951 5.15483 0.115128 5.263 0.210462 5.351L2.44346 7.573L1.91546 10.697C1.89346 10.829 1.90813 10.9537 1.95946 11.071C2.0108 11.1883 2.0878 11.2873 2.19046 11.368C2.29313 11.4487 2.41046 11.4927 2.54246 11.5C2.67446 11.5073 2.79913 11.4817 2.91646 11.423L5.67746 9.949L8.43846 11.423C8.55579 11.4817 8.67863 11.5073 8.80696 11.5C8.9353 11.4927 9.05446 11.4505 9.16446 11.3735C9.27446 11.2965 9.3533 11.1975 9.40096 11.0765C9.44863 10.9555 9.46146 10.829 9.43946 10.697L8.90046 7.573L11.1445 5.351C11.2398 5.263 11.3021 5.15483 11.3315 5.0265C11.3608 4.89817 11.3535 4.77167 11.3095 4.647C11.2655 4.52233 11.1958 4.41783 11.1005 4.3335C11.0051 4.24917 10.8915 4.19967 10.7595 4.185L7.67946 3.734L6.29346 0.884999Z" fill="#FACC15"/>
<path d="M19.6685 0.884999C19.6098 0.767666 19.5255 0.674166 19.4155 0.604499C19.3055 0.534832 19.1845 0.499999 19.0525 0.499999C18.9205 0.499999 18.7976 0.534832 18.684 0.604499C18.5703 0.674166 18.4841 0.767666 18.4255 0.884999L17.0505 3.734L13.9595 4.185C13.8348 4.19967 13.7211 4.24917 13.6185 4.3335C13.5158 4.41783 13.4461 4.52233 13.4095 4.647C13.3728 4.77167 13.3691 4.89817 13.3985 5.0265C13.4278 5.15483 13.4901 5.263 13.5855 5.351L15.8185 7.573L15.2905 10.697C15.2685 10.829 15.2831 10.9537 15.3345 11.071C15.3858 11.1883 15.4628 11.2873 15.5655 11.368C15.6681 11.4487 15.7855 11.4927 15.9175 11.5C16.0495 11.5073 16.1741 11.4817 16.2915 11.423L19.0525 9.949L21.8135 11.423C21.9308 11.4817 22.0536 11.5073 22.182 11.5C22.3103 11.4927 22.4295 11.4505 22.5395 11.3735C22.6495 11.2965 22.7283 11.1975 22.776 11.0765C22.8236 10.9555 22.8365 10.829 22.8145 10.697L22.2755 7.573L24.5195 5.351C24.6148 5.263 24.6771 5.15483 24.7065 5.0265C24.7358 4.89817 24.7285 4.77167 24.6845 4.647C24.6405 4.52233 24.5708 4.41783 24.4755 4.3335C24.3801 4.24917 24.2665 4.19967 24.1345 4.185L21.0545 3.734L19.6685 0.884999Z" fill="#FACC15"/>
<path d="M33.0435 0.884999C32.9848 0.767666 32.9005 0.674166 32.7905 0.604499C32.6805 0.534832 32.5595 0.499999 32.4275 0.499999C32.2955 0.499999 32.1726 0.534832 32.059 0.604499C31.9453 0.674166 31.8591 0.767666 31.8005 0.884999L30.4255 3.734L27.3345 4.185C27.2098 4.19967 27.0961 4.24917 26.9935 4.3335C26.8908 4.41783 26.8211 4.52233 26.7845 4.647C26.7478 4.77167 26.7441 4.89817 26.7735 5.0265C26.8028 5.15483 26.8651 5.263 26.9605 5.351L29.1935 7.573L28.6655 10.697C28.6435 10.829 28.6581 10.9537 28.7095 11.071C28.7608 11.1883 28.8378 11.2873 28.9405 11.368C29.0431 11.4487 29.1605 11.4927 29.2925 11.5C29.4245 11.5073 29.5491 11.4817 29.6665 11.423L32.4275 9.949L35.1885 11.423C35.3058 11.4817 35.4286 11.5073 35.557 11.5C35.6853 11.4927 35.8045 11.4505 35.9145 11.3735C36.0245 11.2965 36.1033 11.1975 36.151 11.0765C36.1986 10.9555 36.2115 10.829 36.1895 10.697L35.6505 7.573L37.8945 5.351C37.9898 5.263 38.0521 5.15483 38.0815 5.0265C38.1108 4.89817 38.1035 4.77167 38.0595 4.647C38.0155 4.52233 37.9458 4.41783 37.8505 4.3335C37.7551 4.24917 37.6415 4.19967 37.5095 4.185L34.4295 3.734L33.0435 0.884999Z" fill="#FACC15"/>
<path d="M46.4185 0.884999C46.3598 0.767666 46.2755 0.674166 46.1655 0.604499C46.0555 0.534832 45.9345 0.499999 45.8025 0.499999C45.6705 0.499999 45.5476 0.534832 45.434 0.604499C45.3203 0.674166 45.2341 0.767666 45.1755 0.884999L43.8005 3.734L40.7095 4.185C40.5848 4.19967 40.4711 4.24917 40.3685 4.3335C40.2658 4.41783 40.1961 4.52233 40.1595 4.647C40.1228 4.77167 40.1191 4.89817 40.1485 5.0265C40.1778 5.15483 40.2401 5.263 40.3355 5.351L42.5685 7.573L42.0405 10.697C42.0185 10.829 42.0331 10.9537 42.0845 11.071C42.1358 11.1883 42.2128 11.2873 42.3155 11.368C42.4181 11.4487 42.5355 11.4927 42.6675 11.5C42.7995 11.5073 42.9241 11.4817 43.0415 11.423L45.8025 9.949L48.5635 11.423C48.6808 11.4817 48.8036 11.5073 48.932 11.5C49.0603 11.4927 49.1795 11.4505 49.2895 11.3735C49.3995 11.2965 49.4783 11.1975 49.526 11.0765C49.5736 10.9555 49.5865 10.829 49.5645 10.697L49.0255 7.573L51.2695 5.351C51.3648 5.263 51.4271 5.15483 51.4565 5.0265C51.4858 4.89817 51.4785 4.77167 51.4345 4.647C51.3905 4.52233 51.3208 4.41783 51.2255 4.3335C51.1301 4.24917 51.0165 4.19967 50.8845 4.185L47.8045 3.734L46.4185 0.884999Z" fill="#FACC15"/>
<path d="M59.7935 0.884999C59.7348 0.767666 59.6505 0.674166 59.5405 0.604499C59.4305 0.534832 59.3095 0.499999 59.1775 0.499999C59.0455 0.499999 58.9226 0.534832 58.809 0.604499C58.6953 0.674166 58.6091 0.767666 58.5505 0.884999L57.1755 3.734L54.0845 4.185C53.9598 4.19967 53.8461 4.24917 53.7435 4.3335C53.6408 4.41783 53.5711 4.52233 53.5345 4.647C53.4978 4.77167 53.4941 4.89817 53.5235 5.0265C53.5528 5.15483 53.6151 5.263 53.7105 5.351L55.9435 7.573L55.4155 10.697C55.3935 10.829 55.4081 10.9537 55.4595 11.071C55.5108 11.1883 55.5878 11.2873 55.6905 11.368C55.7931 11.4487 55.9105 11.4927 56.0425 11.5C56.1745 11.5073 56.2991 11.4817 56.4165 11.423L59.1775 9.949L61.9385 11.423C62.0558 11.4817 62.1786 11.5073 62.307 11.5C62.4353 11.4927 62.5545 11.4505 62.6645 11.3735C62.7745 11.2965 62.8533 11.1975 62.901 11.0765C62.9486 10.9555 62.9615 10.829 62.9395 10.697L62.4005 7.573L64.6445 5.351C64.7398 5.263 64.8021 5.15483 64.8315 5.0265C64.8608 4.89817 64.8535 4.77167 64.8095 4.647C64.7655 4.52233 64.6958 4.41783 64.6005 4.3335C64.5051 4.24917 64.3915 4.19967 64.2595 4.185L61.1795 3.734L59.7935 0.884999Z" fill="#FACC15"/>
</g>
</g>
</g>
<defs>
<clipPath id="clip0_6314_1648">
<rect width="66.88" height="11" fill="white" transform="translate(0 0.5)"/>
</clipPath>
<clipPath id="clip1_6314_1648">
<rect width="66.88" height="11" fill="white" transform="matrix(1 0 0 -1 0 11.5)"/>
</clipPath>
<clipPath id="clip2_6314_1648">
<rect width="53.5" height="11" fill="white" transform="translate(0 0.5)"/>
</clipPath>
<clipPath id="clip3_6314_1648">
<rect width="66.88" height="11" fill="white" transform="matrix(1 0 0 -1 0 11.5)"/>
</clipPath>
</defs>
</svg>
