<svg width="67" height="12" viewBox="0 0 67 12" fill="none" xmlns="http://www.w3.org/2000/svg">
<g clip-path="url(#clip0_6314_7097)">
<g clip-path="url(#clip1_6314_7097)">
<path d="M6.29346 1.33495C6.2348 1.21762 6.15046 1.12412 6.04046 1.05445C5.93046 0.984783 5.80946 0.94995 5.67746 0.94995C5.54546 0.94995 5.42263 0.984783 5.30896 1.05445C5.19529 1.12412 5.10913 1.21762 5.05046 1.33495L3.67546 4.18395L0.584462 4.63495C0.459795 4.64962 0.346128 4.69912 0.243462 4.78345C0.140795 4.86778 0.0711285 4.97228 0.0344618 5.09695C-0.00220486 5.22162 -0.00587153 5.34812 0.0234618 5.47645C0.0527951 5.60478 0.115128 5.71295 0.210462 5.80095L2.44346 8.02295L1.91546 11.1469C1.89346 11.2789 1.90813 11.4036 1.95946 11.5209C2.0108 11.6383 2.0878 11.7373 2.19046 11.8179C2.29313 11.8986 2.41046 11.9426 2.54246 11.9499C2.67446 11.9573 2.79913 11.9316 2.91646 11.8729L5.67746 10.3989L8.43846 11.8729C8.55579 11.9316 8.67863 11.9573 8.80696 11.9499C8.9353 11.9426 9.05446 11.9004 9.16446 11.8234C9.27446 11.7464 9.3533 11.6474 9.40096 11.5264C9.44863 11.4054 9.46146 11.2789 9.43946 11.1469L8.90046 8.02295L11.1445 5.80095C11.2398 5.71295 11.3021 5.60478 11.3315 5.47645C11.3608 5.34812 11.3535 5.22162 11.3095 5.09695C11.2655 4.97228 11.1958 4.86778 11.1005 4.78345C11.0051 4.69912 10.8915 4.64962 10.7595 4.63495L7.67946 4.18395L6.29346 1.33495Z" fill="#D1D5DB"/>
<path d="M19.6685 1.33495C19.6098 1.21762 19.5255 1.12412 19.4155 1.05445C19.3055 0.984783 19.1845 0.94995 19.0525 0.94995C18.9205 0.94995 18.7976 0.984783 18.684 1.05445C18.5703 1.12412 18.4841 1.21762 18.4255 1.33495L17.0505 4.18395L13.9595 4.63495C13.8348 4.64962 13.7211 4.69912 13.6185 4.78345C13.5158 4.86778 13.4461 4.97228 13.4095 5.09695C13.3728 5.22162 13.3691 5.34812 13.3985 5.47645C13.4278 5.60478 13.4901 5.71295 13.5855 5.80095L15.8185 8.02295L15.2905 11.1469C15.2685 11.2789 15.2831 11.4036 15.3345 11.5209C15.3858 11.6383 15.4628 11.7373 15.5655 11.8179C15.6681 11.8986 15.7855 11.9426 15.9175 11.9499C16.0495 11.9573 16.1741 11.9316 16.2915 11.8729L19.0525 10.3989L21.8135 11.8729C21.9308 11.9316 22.0536 11.9573 22.182 11.9499C22.3103 11.9426 22.4295 11.9004 22.5395 11.8234C22.6495 11.7464 22.7283 11.6474 22.776 11.5264C22.8236 11.4054 22.8365 11.2789 22.8145 11.1469L22.2755 8.02295L24.5195 5.80095C24.6148 5.71295 24.6771 5.60478 24.7065 5.47645C24.7358 5.34812 24.7285 5.22162 24.6845 5.09695C24.6405 4.97228 24.5708 4.86778 24.4755 4.78345C24.3801 4.69912 24.2665 4.64962 24.1345 4.63495L21.0545 4.18395L19.6685 1.33495Z" fill="#D1D5DB"/>
<path d="M33.0435 1.33495C32.9848 1.21762 32.9005 1.12412 32.7905 1.05445C32.6805 0.984783 32.5595 0.94995 32.4275 0.94995C32.2955 0.94995 32.1726 0.984783 32.059 1.05445C31.9453 1.12412 31.8591 1.21762 31.8005 1.33495L30.4255 4.18395L27.3345 4.63495C27.2098 4.64962 27.0961 4.69912 26.9935 4.78345C26.8908 4.86778 26.8211 4.97228 26.7845 5.09695C26.7478 5.22162 26.7441 5.34812 26.7735 5.47645C26.8028 5.60478 26.8651 5.71295 26.9605 5.80095L29.1935 8.02295L28.6655 11.1469C28.6435 11.2789 28.6581 11.4036 28.7095 11.5209C28.7608 11.6383 28.8378 11.7373 28.9405 11.8179C29.0431 11.8986 29.1605 11.9426 29.2925 11.9499C29.4245 11.9573 29.5491 11.9316 29.6665 11.8729L32.4275 10.3989L35.1885 11.8729C35.3058 11.9316 35.4286 11.9573 35.557 11.9499C35.6853 11.9426 35.8045 11.9004 35.9145 11.8234C36.0245 11.7464 36.1033 11.6474 36.151 11.5264C36.1986 11.4054 36.2115 11.2789 36.1895 11.1469L35.6505 8.02295L37.8945 5.80095C37.9898 5.71295 38.0521 5.60478 38.0815 5.47645C38.1108 5.34812 38.1035 5.22162 38.0595 5.09695C38.0155 4.97228 37.9458 4.86778 37.8505 4.78345C37.7551 4.69912 37.6415 4.64962 37.5095 4.63495L34.4295 4.18395L33.0435 1.33495Z" fill="#D1D5DB"/>
<path d="M46.4185 1.33495C46.3598 1.21762 46.2755 1.12412 46.1655 1.05445C46.0555 0.984783 45.9345 0.94995 45.8025 0.94995C45.6705 0.94995 45.5476 0.984783 45.434 1.05445C45.3203 1.12412 45.2341 1.21762 45.1755 1.33495L43.8005 4.18395L40.7095 4.63495C40.5848 4.64962 40.4711 4.69912 40.3685 4.78345C40.2658 4.86778 40.1961 4.97228 40.1595 5.09695C40.1228 5.22162 40.1191 5.34812 40.1485 5.47645C40.1778 5.60478 40.2401 5.71295 40.3355 5.80095L42.5685 8.02295L42.0405 11.1469C42.0185 11.2789 42.0331 11.4036 42.0845 11.5209C42.1358 11.6383 42.2128 11.7373 42.3155 11.8179C42.4181 11.8986 42.5355 11.9426 42.6675 11.9499C42.7995 11.9573 42.9241 11.9316 43.0415 11.8729L45.8025 10.3989L48.5635 11.8729C48.6808 11.9316 48.8036 11.9573 48.932 11.9499C49.0603 11.9426 49.1795 11.9004 49.2895 11.8234C49.3995 11.7464 49.4783 11.6474 49.526 11.5264C49.5736 11.4054 49.5865 11.2789 49.5645 11.1469L49.0255 8.02295L51.2695 5.80095C51.3648 5.71295 51.4271 5.60478 51.4565 5.47645C51.4858 5.34812 51.4785 5.22162 51.4345 5.09695C51.3905 4.97228 51.3208 4.86778 51.2255 4.78345C51.1301 4.69912 51.0165 4.64962 50.8845 4.63495L47.8045 4.18395L46.4185 1.33495Z" fill="#D1D5DB"/>
<path d="M59.7935 1.33495C59.7348 1.21762 59.6505 1.12412 59.5405 1.05445C59.4305 0.984783 59.3095 0.94995 59.1775 0.94995C59.0455 0.94995 58.9226 0.984783 58.809 1.05445C58.6953 1.12412 58.6091 1.21762 58.5505 1.33495L57.1755 4.18395L54.0845 4.63495C53.9598 4.64962 53.8461 4.69912 53.7435 4.78345C53.6408 4.86778 53.5711 4.97228 53.5345 5.09695C53.4978 5.22162 53.4941 5.34812 53.5235 5.47645C53.5528 5.60478 53.6151 5.71295 53.7105 5.80095L55.9435 8.02295L55.4155 11.1469C55.3935 11.2789 55.4081 11.4036 55.4595 11.5209C55.5108 11.6383 55.5878 11.7373 55.6905 11.8179C55.7931 11.8986 55.9105 11.9426 56.0425 11.9499C56.1745 11.9573 56.2991 11.9316 56.4165 11.8729L59.1775 10.3989L61.9385 11.8729C62.0558 11.9316 62.1786 11.9573 62.307 11.9499C62.4353 11.9426 62.5545 11.9004 62.6645 11.8234C62.7745 11.7464 62.8533 11.6474 62.901 11.5264C62.9486 11.4054 62.9615 11.2789 62.9395 11.1469L62.4005 8.02295L64.6445 5.80095C64.7398 5.71295 64.8021 5.60478 64.8315 5.47645C64.8608 5.34812 64.8535 5.22162 64.8095 5.09695C64.7655 4.97228 64.6958 4.86778 64.6005 4.78345C64.5051 4.69912 64.3915 4.64962 64.2595 4.63495L61.1795 4.18395L59.7935 1.33495Z" fill="#D1D5DB"/>
</g>
<g clip-path="url(#clip2_6314_7097)">
<g clip-path="url(#clip3_6314_7097)">
<path d="M6.29346 1.33495C6.2348 1.21762 6.15046 1.12412 6.04046 1.05445C5.93046 0.984783 5.80946 0.94995 5.67746 0.94995C5.54546 0.94995 5.42263 0.984783 5.30896 1.05445C5.19529 1.12412 5.10913 1.21762 5.05046 1.33495L3.67546 4.18395L0.584462 4.63495C0.459795 4.64962 0.346128 4.69912 0.243462 4.78345C0.140795 4.86778 0.0711285 4.97228 0.0344618 5.09695C-0.00220486 5.22162 -0.00587153 5.34812 0.0234618 5.47645C0.0527951 5.60478 0.115128 5.71295 0.210462 5.80095L2.44346 8.02295L1.91546 11.1469C1.89346 11.2789 1.90813 11.4036 1.95946 11.5209C2.0108 11.6383 2.0878 11.7373 2.19046 11.8179C2.29313 11.8986 2.41046 11.9426 2.54246 11.9499C2.67446 11.9573 2.79913 11.9316 2.91646 11.8729L5.67746 10.3989L8.43846 11.8729C8.55579 11.9316 8.67863 11.9573 8.80696 11.9499C8.9353 11.9426 9.05446 11.9004 9.16446 11.8234C9.27446 11.7464 9.3533 11.6474 9.40096 11.5264C9.44863 11.4054 9.46146 11.2789 9.43946 11.1469L8.90046 8.02295L11.1445 5.80095C11.2398 5.71295 11.3021 5.60478 11.3315 5.47645C11.3608 5.34812 11.3535 5.22162 11.3095 5.09695C11.2655 4.97228 11.1958 4.86778 11.1005 4.78345C11.0051 4.69912 10.8915 4.64962 10.7595 4.63495L7.67946 4.18395L6.29346 1.33495Z" fill="#FACC15"/>
<path d="M19.6685 1.33495C19.6098 1.21762 19.5255 1.12412 19.4155 1.05445C19.3055 0.984783 19.1845 0.94995 19.0525 0.94995C18.9205 0.94995 18.7976 0.984783 18.684 1.05445C18.5703 1.12412 18.4841 1.21762 18.4255 1.33495L17.0505 4.18395L13.9595 4.63495C13.8348 4.64962 13.7211 4.69912 13.6185 4.78345C13.5158 4.86778 13.4461 4.97228 13.4095 5.09695C13.3728 5.22162 13.3691 5.34812 13.3985 5.47645C13.4278 5.60478 13.4901 5.71295 13.5855 5.80095L15.8185 8.02295L15.2905 11.1469C15.2685 11.2789 15.2831 11.4036 15.3345 11.5209C15.3858 11.6383 15.4628 11.7373 15.5655 11.8179C15.6681 11.8986 15.7855 11.9426 15.9175 11.9499C16.0495 11.9573 16.1741 11.9316 16.2915 11.8729L19.0525 10.3989L21.8135 11.8729C21.9308 11.9316 22.0536 11.9573 22.182 11.9499C22.3103 11.9426 22.4295 11.9004 22.5395 11.8234C22.6495 11.7464 22.7283 11.6474 22.776 11.5264C22.8236 11.4054 22.8365 11.2789 22.8145 11.1469L22.2755 8.02295L24.5195 5.80095C24.6148 5.71295 24.6771 5.60478 24.7065 5.47645C24.7358 5.34812 24.7285 5.22162 24.6845 5.09695C24.6405 4.97228 24.5708 4.86778 24.4755 4.78345C24.3801 4.69912 24.2665 4.64962 24.1345 4.63495L21.0545 4.18395L19.6685 1.33495Z" fill="#FACC15"/>
<path d="M33.0435 1.33495C32.9848 1.21762 32.9005 1.12412 32.7905 1.05445C32.6805 0.984783 32.5595 0.94995 32.4275 0.94995C32.2955 0.94995 32.1726 0.984783 32.059 1.05445C31.9453 1.12412 31.8591 1.21762 31.8005 1.33495L30.4255 4.18395L27.3345 4.63495C27.2098 4.64962 27.0961 4.69912 26.9935 4.78345C26.8908 4.86778 26.8211 4.97228 26.7845 5.09695C26.7478 5.22162 26.7441 5.34812 26.7735 5.47645C26.8028 5.60478 26.8651 5.71295 26.9605 5.80095L29.1935 8.02295L28.6655 11.1469C28.6435 11.2789 28.6581 11.4036 28.7095 11.5209C28.7608 11.6383 28.8378 11.7373 28.9405 11.8179C29.0431 11.8986 29.1605 11.9426 29.2925 11.9499C29.4245 11.9573 29.5491 11.9316 29.6665 11.8729L32.4275 10.3989L35.1885 11.8729C35.3058 11.9316 35.4286 11.9573 35.557 11.9499C35.6853 11.9426 35.8045 11.9004 35.9145 11.8234C36.0245 11.7464 36.1033 11.6474 36.151 11.5264C36.1986 11.4054 36.2115 11.2789 36.1895 11.1469L35.6505 8.02295L37.8945 5.80095C37.9898 5.71295 38.0521 5.60478 38.0815 5.47645C38.1108 5.34812 38.1035 5.22162 38.0595 5.09695C38.0155 4.97228 37.9458 4.86778 37.8505 4.78345C37.7551 4.69912 37.6415 4.64962 37.5095 4.63495L34.4295 4.18395L33.0435 1.33495Z" fill="#FACC15"/>
<path d="M46.4185 1.33495C46.3598 1.21762 46.2755 1.12412 46.1655 1.05445C46.0555 0.984783 45.9345 0.94995 45.8025 0.94995C45.6705 0.94995 45.5476 0.984783 45.434 1.05445C45.3203 1.12412 45.2341 1.21762 45.1755 1.33495L43.8005 4.18395L40.7095 4.63495C40.5848 4.64962 40.4711 4.69912 40.3685 4.78345C40.2658 4.86778 40.1961 4.97228 40.1595 5.09695C40.1228 5.22162 40.1191 5.34812 40.1485 5.47645C40.1778 5.60478 40.2401 5.71295 40.3355 5.80095L42.5685 8.02295L42.0405 11.1469C42.0185 11.2789 42.0331 11.4036 42.0845 11.5209C42.1358 11.6383 42.2128 11.7373 42.3155 11.8179C42.4181 11.8986 42.5355 11.9426 42.6675 11.9499C42.7995 11.9573 42.9241 11.9316 43.0415 11.8729L45.8025 10.3989L48.5635 11.8729C48.6808 11.9316 48.8036 11.9573 48.932 11.9499C49.0603 11.9426 49.1795 11.9004 49.2895 11.8234C49.3995 11.7464 49.4783 11.6474 49.526 11.5264C49.5736 11.4054 49.5865 11.2789 49.5645 11.1469L49.0255 8.02295L51.2695 5.80095C51.3648 5.71295 51.4271 5.60478 51.4565 5.47645C51.4858 5.34812 51.4785 5.22162 51.4345 5.09695C51.3905 4.97228 51.3208 4.86778 51.2255 4.78345C51.1301 4.69912 51.0165 4.64962 50.8845 4.63495L47.8045 4.18395L46.4185 1.33495Z" fill="#FACC15"/>
</g>
</g>
</g>
<defs>
<clipPath id="clip0_6314_7097">
<rect width="66.88" height="11" fill="white" transform="translate(0 0.949951)"/>
</clipPath>
<clipPath id="clip1_6314_7097">
<rect width="66.88" height="11" fill="white" transform="matrix(1 0 0 -1 0 11.95)"/>
</clipPath>
<clipPath id="clip2_6314_7097">
<rect width="49.08" height="11" fill="white" transform="translate(0 0.949951)"/>
</clipPath>
<clipPath id="clip3_6314_7097">
<rect width="66.88" height="11" fill="white" transform="matrix(1 0 0 -1 0 11.95)"/>
</clipPath>
</defs>
</svg>
