<svg width="32" height="32" viewBox="0 0 32 32" fill="none" xmlns="http://www.w3.org/2000/svg">
<rect width="32" height="32" rx="16" fill="white"/>
<g clip-path="url(#clip0_6314_1641)">
<path d="M17.9901 7.75C17.2274 7.75 16.4977 7.915 15.8011 8.245C15.1044 8.575 14.5214 9.01867 14.0521 9.576C13.5974 8.98933 13.0254 8.53833 12.3361 8.223C11.6467 7.90767 10.9061 7.75 10.1141 7.75C9.2194 7.75 8.3834 7.97 7.60606 8.41C6.85806 8.83533 6.26406 9.41467 5.82406 10.148C5.38406 10.8813 5.16406 11.6733 5.16406 12.524C5.16406 14.1227 5.59673 15.6993 6.46206 17.254C7.1514 18.5007 8.11206 19.7107 9.34406 20.884C10.2241 21.7347 11.2067 22.5193 12.2921 23.238C12.9667 23.7073 13.4654 24.0153 13.7881 24.162C13.8467 24.2207 13.9347 24.25 14.0521 24.25C14.1694 24.25 14.2941 24.2207 14.4261 24.162C14.7781 23.986 15.2767 23.678 15.9221 23.238C16.9927 22.5193 17.9754 21.7347 18.8701 20.884C20.0874 19.7107 21.0407 18.5007 21.7301 17.254C22.5954 15.6993 23.0281 14.1227 23.0281 12.524C23.0281 11.6733 22.8007 10.8813 22.3461 10.148C21.8914 9.41467 21.2754 8.83167 20.4981 8.399C19.7207 7.96633 18.8847 7.75 17.9901 7.75ZM14.0521 22.776C13.1134 22.204 12.2481 21.5953 11.4561 20.95C10.0627 19.8207 8.96273 18.6547 8.15606 17.452C7.07073 15.8533 6.52806 14.24 6.52806 12.612C6.52806 11.9813 6.69306 11.3983 7.02306 10.863C7.35306 10.3277 7.79306 9.90233 8.34306 9.587C8.89306 9.27167 9.4834 9.114 10.1141 9.114C10.8474 9.114 11.5111 9.30467 12.1051 9.686C12.6991 10.0673 13.1354 10.5807 13.4141 11.226C13.4727 11.3727 13.5864 11.4753 13.7551 11.534C13.9237 11.5927 14.0997 11.5927 14.2831 11.534C14.4664 11.4753 14.6021 11.3727 14.6901 11.226C14.9687 10.5807 15.4087 10.0673 16.0101 9.686C16.6114 9.30467 17.2714 9.114 17.9901 9.114C18.6501 9.114 19.2551 9.27167 19.8051 9.587C20.3551 9.90233 20.7877 10.3277 21.1031 10.863C21.4184 11.3983 21.5761 11.9813 21.5761 12.612C21.5761 14.2107 21.0334 15.8093 19.9481 17.408C19.1267 18.6107 18.0267 19.784 16.6481 20.928C15.8267 21.6027 14.9614 22.2187 14.0521 22.776Z" fill="#030712"/>
</g>
<defs>
<clipPath id="clip0_6314_1641">
<rect width="21.69" height="22" fill="white" transform="matrix(1 0 0 -1 5.16016 27)"/>
</clipPath>
</defs>
</svg>
