<svg width="37" height="35" viewBox="0 0 37 35" fill="none" xmlns="http://www.w3.org/2000/svg">
<rect x="0.359375" y="0.959961" width="36" height="34" rx="8" fill="#16A34A"/>
<g clip-path="url(#clip0_6314_2139)">
<path d="M25.2994 10.46H9.05937C8.85938 10.4866 8.69271 10.58 8.55937 10.74C8.42604 10.9 8.35938 11.08 8.35938 11.28C8.35938 11.48 8.42604 11.6633 8.55937 11.83C8.69271 11.9966 8.85938 12.0933 9.05937 12.12H12.2794L11.6994 19.5V19.64C11.6994 20.0933 11.8627 20.4833 12.1894 20.81C12.516 21.1366 12.906 21.3 13.3594 21.3H23.5794C23.9794 21.3 24.3294 21.1766 24.6294 20.93C24.9294 20.6833 25.1194 20.38 25.1994 20.02L26.9194 12.5C26.946 12.34 26.9594 12.2133 26.9594 12.12C26.9594 11.6533 26.7994 11.26 26.4794 10.94C26.1594 10.62 25.766 10.46 25.2994 10.46ZM23.5794 19.62H13.3594L13.9394 12.12H25.2994L23.5794 19.62ZM14.8994 25.46C15.366 25.46 15.7627 25.2966 16.0894 24.97C16.416 24.6433 16.5794 24.2466 16.5794 23.78C16.5794 23.3133 16.416 22.92 16.0894 22.6C15.7627 22.28 15.366 22.12 14.8994 22.12C14.446 22.12 14.056 22.28 13.7294 22.6C13.4027 22.92 13.2394 23.3133 13.2394 23.78C13.2394 24.2466 13.4027 24.6433 13.7294 24.97C14.056 25.2966 14.446 25.46 14.8994 25.46ZM22.3994 25.46C22.866 25.46 23.2627 25.2966 23.5894 24.97C23.916 24.6433 24.0794 24.2466 24.0794 23.78C24.0794 23.3133 23.916 22.92 23.5894 22.6C23.2627 22.28 22.866 22.12 22.3994 22.12C21.946 22.12 21.556 22.28 21.2294 22.6C20.9027 22.92 20.7394 23.3133 20.7394 23.78C20.7394 24.2466 20.9027 24.6433 21.2294 24.97C21.556 25.2966 21.946 25.46 22.3994 25.46Z" fill="white"/>
</g>
<defs>
<clipPath id="clip0_6314_2139">
<rect width="20" height="20" fill="white" transform="matrix(1 0 0 -1 8.35938 27.96)"/>
</clipPath>
</defs>
</svg>
