<svg width="37" height="35" viewBox="0 0 37 35" fill="none" xmlns="http://www.w3.org/2000/svg">
<rect x="0.671875" y="0.560059" width="36" height="34" rx="8" fill="#16A34A"/>
<g clip-path="url(#clip0_6314_7148)">
<path d="M25.6119 10.0601H9.37187C9.17188 10.0867 9.00521 10.1801 8.87187 10.3401C8.73854 10.5001 8.67188 10.6801 8.67188 10.8801C8.67188 11.0801 8.73854 11.2634 8.87187 11.4301C9.00521 11.5967 9.17188 11.6934 9.37187 11.7201H12.5919L12.0119 19.1001V19.2401C12.0119 19.6934 12.1752 20.0834 12.5019 20.4101C12.8285 20.7367 13.2185 20.9001 13.6719 20.9001H23.8919C24.2919 20.9001 24.6419 20.7767 24.9419 20.5301C25.2419 20.2834 25.4319 19.9801 25.5119 19.6201L27.2319 12.1001C27.2585 11.9401 27.2719 11.8134 27.2719 11.7201C27.2719 11.2534 27.1119 10.8601 26.7919 10.5401C26.4719 10.2201 26.0785 10.0601 25.6119 10.0601ZM23.8919 19.2201H13.6719L14.2519 11.7201H25.6119L23.8919 19.2201ZM15.2119 25.0601C15.6785 25.0601 16.0752 24.8967 16.4019 24.5701C16.7285 24.2434 16.8919 23.8467 16.8919 23.3801C16.8919 22.9134 16.7285 22.5201 16.4019 22.2001C16.0752 21.8801 15.6785 21.7201 15.2119 21.7201C14.7585 21.7201 14.3685 21.8801 14.0419 22.2001C13.7152 22.5201 13.5519 22.9134 13.5519 23.3801C13.5519 23.8467 13.7152 24.2434 14.0419 24.5701C14.3685 24.8967 14.7585 25.0601 15.2119 25.0601ZM22.7119 25.0601C23.1785 25.0601 23.5752 24.8967 23.9019 24.5701C24.2285 24.2434 24.3919 23.8467 24.3919 23.3801C24.3919 22.9134 24.2285 22.5201 23.9019 22.2001C23.5752 21.8801 23.1785 21.7201 22.7119 21.7201C22.2585 21.7201 21.8685 21.8801 21.5419 22.2001C21.2152 22.5201 21.0519 22.9134 21.0519 23.3801C21.0519 23.8467 21.2152 24.2434 21.5419 24.5701C21.8685 24.8967 22.2585 25.0601 22.7119 25.0601Z" fill="white"/>
</g>
<defs>
<clipPath id="clip0_6314_7148">
<rect width="20" height="20" fill="white" transform="matrix(1 0 0 -1 8.67188 27.5601)"/>
</clipPath>
</defs>
</svg>
