<svg width="33" height="33" viewBox="0 0 33 33" fill="none" xmlns="http://www.w3.org/2000/svg">
<rect x="0.03125" y="0.5" width="32" height="32" rx="16" fill="white"/>
<g clip-path="url(#clip0_6314_2117)">
<path d="M18.0213 8.25C17.2586 8.25 16.529 8.415 15.8323 8.745C15.1356 9.075 14.5526 9.51867 14.0833 10.076C13.6286 9.48933 13.0566 9.03833 12.3673 8.723C11.678 8.40767 10.9373 8.25 10.1453 8.25C9.25065 8.25 8.41465 8.47 7.63731 8.91C6.88931 9.33533 6.29531 9.91467 5.85531 10.648C5.41531 11.3813 5.19531 12.1733 5.19531 13.024C5.19531 14.6227 5.62798 16.1993 6.49331 17.754C7.18265 19.0007 8.14331 20.2107 9.37531 21.384C10.2553 22.2347 11.238 23.0193 12.3233 23.738C12.998 24.2073 13.4966 24.5153 13.8193 24.662C13.878 24.7207 13.966 24.75 14.0833 24.75C14.2006 24.75 14.3253 24.7207 14.4573 24.662C14.8093 24.486 15.308 24.178 15.9533 23.738C17.024 23.0193 18.0066 22.2347 18.9013 21.384C20.1186 20.2107 21.072 19.0007 21.7613 17.754C22.6266 16.1993 23.0593 14.6227 23.0593 13.024C23.0593 12.1733 22.832 11.3813 22.3773 10.648C21.9226 9.91467 21.3066 9.33167 20.5293 8.899C19.752 8.46633 18.916 8.25 18.0213 8.25ZM14.0833 23.276C13.1446 22.704 12.2793 22.0953 11.4873 21.45C10.094 20.3207 8.99398 19.1547 8.18731 17.952C7.10198 16.3533 6.55931 14.74 6.55931 13.112C6.55931 12.4813 6.72431 11.8983 7.05431 11.363C7.38431 10.8277 7.82431 10.4023 8.37431 10.087C8.92431 9.77167 9.51465 9.614 10.1453 9.614C10.8786 9.614 11.5423 9.80467 12.1363 10.186C12.7303 10.5673 13.1666 11.0807 13.4453 11.726C13.504 11.8727 13.6176 11.9753 13.7863 12.034C13.955 12.0927 14.131 12.0927 14.3143 12.034C14.4976 11.9753 14.6333 11.8727 14.7213 11.726C15 11.0807 15.44 10.5673 16.0413 10.186C16.6426 9.80467 17.3026 9.614 18.0213 9.614C18.6813 9.614 19.2863 9.77167 19.8363 10.087C20.3863 10.4023 20.819 10.8277 21.1343 11.363C21.4496 11.8983 21.6073 12.4813 21.6073 13.112C21.6073 14.7107 21.0646 16.3093 19.9793 17.908C19.158 19.1107 18.058 20.284 16.6793 21.428C15.858 22.1027 14.9926 22.7187 14.0833 23.276Z" fill="#030712"/>
</g>
<defs>
<clipPath id="clip0_6314_2117">
<rect width="21.69" height="22" fill="white" transform="matrix(1 0 0 -1 5.19141 27.5)"/>
</clipPath>
</defs>
</svg>
