<svg width="32" height="32" viewBox="0 0 32 32" fill="none" xmlns="http://www.w3.org/2000/svg">
<rect width="32" height="32" rx="16" fill="#634C9F"/>
<path d="M20.872 15.536H16.728V11.328C16.728 11.1893 16.68 11.0666 16.584 10.96C16.488 10.8533 16.36 10.8 16.2 10.8C16.04 10.8 15.912 10.8533 15.816 10.96C15.72 11.0666 15.672 11.1893 15.672 11.328V15.472H11.528C11.3893 15.472 11.2667 15.52 11.16 15.616C11.0533 15.712 11 15.8426 11 16.008C11 16.1733 11.048 16.3013 11.144 16.392C11.24 16.4826 11.368 16.528 11.528 16.528H15.672V20.672C15.672 20.8106 15.72 20.9333 15.816 21.04C15.912 21.1466 16.0427 21.2 16.208 21.2C16.3733 21.2 16.5013 21.152 16.592 21.056C16.6827 20.96 16.728 20.832 16.728 20.672V16.528H20.872C21.0107 16.528 21.1333 16.48 21.24 16.384C21.3467 16.288 21.4 16.16 21.4 16C21.4 15.84 21.3493 15.7226 21.248 15.648C21.1467 15.5733 21.0213 15.536 20.872 15.536Z" fill="white"/>
</svg>
