<svg width="48" height="33" viewBox="0 0 48 33" fill="none" xmlns="http://www.w3.org/2000/svg">
<rect x="0.5" y="0.77002" width="32" height="32" rx="16" fill="white"/>
<g clip-path="url(#clip0_6314_4355)">
<path d="M38.4901 8.52002C37.7274 8.52002 36.9977 8.68502 36.3011 9.01502C35.6044 9.34502 35.0214 9.78869 34.5521 10.346C34.0974 9.75935 33.5254 9.30835 32.8361 8.99302C32.1467 8.67769 31.4061 8.52002 30.6141 8.52002C29.7194 8.52002 28.8834 8.74002 28.1061 9.18002C27.3581 9.60535 26.7641 10.1847 26.3241 10.918C25.8841 11.6514 25.6641 12.4434 25.6641 13.294C25.6641 14.8927 26.0967 16.4694 26.9621 18.024C27.6514 19.2707 28.6121 20.4807 29.8441 21.654C30.7241 22.5047 31.7067 23.2894 32.7921 24.008C33.4667 24.4774 33.9654 24.7854 34.2881 24.932C34.3467 24.9907 34.4347 25.02 34.5521 25.02C34.6694 25.02 34.7941 24.9907 34.9261 24.932C35.2781 24.756 35.7767 24.448 36.4221 24.008C37.4927 23.2894 38.4754 22.5047 39.3701 21.654C40.5874 20.4807 41.5407 19.2707 42.2301 18.024C43.0954 16.4694 43.5281 14.8927 43.5281 13.294C43.5281 12.4434 43.3007 11.6514 42.8461 10.918C42.3914 10.1847 41.7754 9.60169 40.9981 9.16902C40.2207 8.73635 39.3847 8.52002 38.4901 8.52002ZM34.5521 23.546C33.6134 22.974 32.7481 22.3654 31.9561 21.72C30.5627 20.5907 29.4627 19.4247 28.6561 18.222C27.5707 16.6234 27.0281 15.01 27.0281 13.382C27.0281 12.7514 27.1931 12.1684 27.5231 11.633C27.8531 11.0977 28.2931 10.6724 28.8431 10.357C29.3931 10.0417 29.9834 9.88402 30.6141 9.88402C31.3474 9.88402 32.0111 10.0747 32.6051 10.456C33.1991 10.8374 33.6354 11.3507 33.9141 11.996C33.9727 12.1427 34.0864 12.2454 34.2551 12.304C34.4237 12.3627 34.5997 12.3627 34.7831 12.304C34.9664 12.2454 35.1021 12.1427 35.1901 11.996C35.4687 11.3507 35.9087 10.8374 36.5101 10.456C37.1114 10.0747 37.7714 9.88402 38.4901 9.88402C39.1501 9.88402 39.7551 10.0417 40.3051 10.357C40.8551 10.6724 41.2877 11.0977 41.6031 11.633C41.9184 12.1684 42.0761 12.7514 42.0761 13.382C42.0761 14.9807 41.5334 16.5794 40.4481 18.178C39.6267 19.3807 38.5267 20.554 37.1481 21.698C36.3267 22.3727 35.4614 22.9887 34.5521 23.546Z" fill="#030712"/>
</g>
<defs>
<clipPath id="clip0_6314_4355">
<rect width="21.69" height="22" fill="white" transform="matrix(1 0 0 -1 25.6602 27.77)"/>
</clipPath>
</defs>
</svg>
