<svg width="36" height="35" viewBox="0 0 36 35" fill="none" xmlns="http://www.w3.org/2000/svg">
<rect y="0.0600586" width="36" height="34" rx="8" fill="#16A34A"/>
<path d="M24.94 9.56006H8.7C8.5 9.58673 8.33333 9.68006 8.2 9.84006C8.06667 10.0001 8 10.1801 8 10.3801C8 10.5801 8.06667 10.7634 8.2 10.9301C8.33333 11.0967 8.5 11.1934 8.7 11.2201H11.92L11.34 18.6001V18.7401C11.34 19.1934 11.5033 19.5834 11.83 19.9101C12.1567 20.2367 12.5467 20.4001 13 20.4001H23.22C23.62 20.4001 23.97 20.2767 24.27 20.0301C24.57 19.7834 24.76 19.4801 24.84 19.1201L26.56 11.6001C26.5867 11.4401 26.6 11.3134 26.6 11.2201C26.6 10.7534 26.44 10.3601 26.12 10.0401C25.8 9.72006 25.4067 9.56006 24.94 9.56006ZM23.22 18.7201H13L13.58 11.2201H24.94L23.22 18.7201ZM14.54 24.5601C15.0067 24.5601 15.4033 24.3967 15.73 24.0701C16.0567 23.7434 16.22 23.3467 16.22 22.8801C16.22 22.4134 16.0567 22.0201 15.73 21.7001C15.4033 21.3801 15.0067 21.2201 14.54 21.2201C14.0867 21.2201 13.6967 21.3801 13.37 21.7001C13.0433 22.0201 12.88 22.4134 12.88 22.8801C12.88 23.3467 13.0433 23.7434 13.37 24.0701C13.6967 24.3967 14.0867 24.5601 14.54 24.5601ZM22.04 24.5601C22.5067 24.5601 22.9033 24.3967 23.23 24.0701C23.5567 23.7434 23.72 23.3467 23.72 22.8801C23.72 22.4134 23.5567 22.0201 23.23 21.7001C22.9033 21.3801 22.5067 21.2201 22.04 21.2201C21.5867 21.2201 21.1967 21.3801 20.87 21.7001C20.5433 22.0201 20.38 22.4134 20.38 22.8801C20.38 23.3467 20.5433 23.7434 20.87 24.0701C21.1967 24.3967 21.5867 24.5601 22.04 24.5601Z" fill="white"/>
</svg>
