<svg width="27" height="26" viewBox="0 0 27 26" fill="none" xmlns="http://www.w3.org/2000/svg">
<g clip-path="url(#clip0_6557_770)">
<path d="M6.78906 5.4078C6.00906 5.4078 5.2854 5.6028 4.61806 5.9928C3.95073 6.3828 3.42206 6.91146 3.03206 7.5788C2.64206 8.24613 2.44706 8.9698 2.44706 9.7498C2.44706 11.5351 2.9584 13.2338 3.98106 14.8458C4.81306 16.1978 5.9744 17.4631 7.46506 18.6418C8.79973 19.7338 10.3337 20.6958 12.0671 21.5278L12.1971 21.5798C13.9824 20.7305 15.5771 19.7425 16.9811 18.6158L16.9291 18.6418C18.4197 17.4631 19.5811 16.1978 20.4131 14.8458C21.4357 13.2338 21.9471 11.5351 21.9471 9.7498C21.9471 8.9698 21.7521 8.24613 21.3621 7.5788C20.9721 6.91146 20.4434 6.3828 19.7761 5.9928C19.1087 5.6028 18.3851 5.4078 17.6051 5.4078C16.9117 5.4078 16.2574 5.55946 15.6421 5.8628C15.0267 6.16613 14.5067 6.58213 14.0821 7.1108C13.6574 7.63946 13.3844 8.23313 13.2631 8.8918C13.2111 9.13446 13.0854 9.33813 12.8861 9.5028C12.6867 9.66746 12.4571 9.7498 12.1971 9.7498C11.9371 9.7498 11.7074 9.66746 11.5081 9.5028C11.3087 9.33813 11.1831 9.13446 11.1311 8.8918C11.0097 8.23313 10.7367 7.63946 10.3121 7.1108C9.8874 6.58213 9.3674 6.16613 8.75206 5.8628C8.13673 5.55946 7.4824 5.4078 6.78906 5.4078ZM12.1971 23.8418C12.0411 23.8245 11.8851 23.7898 11.7291 23.7378C11.6424 23.7031 11.4951 23.6338 11.2871 23.5298C9.3804 22.6285 7.6384 21.5451 6.06106 20.2798L6.11306 20.3318C4.43173 19.0145 3.10573 17.5758 2.13506 16.0158C0.904396 14.0398 0.289062 11.9511 0.289062 9.7498C0.289062 8.57113 0.579396 7.48346 1.16006 6.4868C1.74073 5.49013 2.5294 4.70146 3.52606 4.1208C4.52273 3.54013 5.6104 3.2498 6.78906 3.2498C7.88106 3.2498 8.8994 3.4968 9.84406 3.9908C10.7887 4.4848 11.5731 5.15646 12.1971 6.0058V6.0318C12.8211 5.16513 13.6054 4.4848 14.5501 3.9908C15.4947 3.4968 16.5131 3.2498 17.6051 3.2498C18.7837 3.2498 19.8714 3.54013 20.8681 4.1208C21.8647 4.70146 22.6534 5.49013 23.2341 6.4868C23.8147 7.48346 24.1051 8.57113 24.1051 9.7498C24.1051 11.9511 23.4897 14.0398 22.2591 16.0158C21.2884 17.5758 19.9624 19.0145 18.2811 20.3318C16.7384 21.5451 15.0657 22.5938 13.2631 23.4778L13.1071 23.5298C12.6911 23.7378 12.3877 23.8418 12.1971 23.8418Z" fill="#030712"/>
</g>
<defs>
<clipPath id="clip0_6557_770">
<rect width="26" height="26" fill="white" transform="matrix(1 0 0 -1 0.128906 26)"/>
</clipPath>
</defs>
</svg>
