<svg width="33" height="33" viewBox="0 0 33 33" fill="none" xmlns="http://www.w3.org/2000/svg">
<rect x="0.0195312" y="0.5" width="32" height="32" rx="16" fill="white"/>
<g clip-path="url(#clip0_6314_2028)">
<path d="M17.9979 8.25C17.2352 8.25 16.5055 8.415 15.8089 8.745C15.1122 9.075 14.5292 9.51867 14.0599 10.076C13.6052 9.48933 13.0332 9.03833 12.3439 8.723C11.6545 8.40767 10.9139 8.25 10.1219 8.25C9.22721 8.25 8.39121 8.47 7.61387 8.91C6.86588 9.33533 6.27188 9.91467 5.83187 10.648C5.39187 11.3813 5.17188 12.1733 5.17188 13.024C5.17188 14.6227 5.60454 16.1993 6.46987 17.754C7.15921 19.0007 8.11987 20.2107 9.35187 21.384C10.2319 22.2347 11.2145 23.0193 12.2999 23.738C12.9745 24.2073 13.4732 24.5153 13.7959 24.662C13.8545 24.7207 13.9425 24.75 14.0599 24.75C14.1772 24.75 14.3019 24.7207 14.4339 24.662C14.7859 24.486 15.2845 24.178 15.9299 23.738C17.0005 23.0193 17.9832 22.2347 18.8779 21.384C20.0952 20.2107 21.0485 19.0007 21.7379 17.754C22.6032 16.1993 23.0359 14.6227 23.0359 13.024C23.0359 12.1733 22.8085 11.3813 22.3539 10.648C21.8992 9.91467 21.2832 9.33167 20.5059 8.899C19.7285 8.46633 18.8925 8.25 17.9979 8.25ZM14.0599 23.276C13.1212 22.704 12.2559 22.0953 11.4639 21.45C10.0705 20.3207 8.97054 19.1547 8.16388 17.952C7.07854 16.3533 6.53587 14.74 6.53587 13.112C6.53587 12.4813 6.70088 11.8983 7.03087 11.363C7.36087 10.8277 7.80087 10.4023 8.35087 10.087C8.90088 9.77167 9.49121 9.614 10.1219 9.614C10.8552 9.614 11.5189 9.80467 12.1129 10.186C12.7069 10.5673 13.1432 11.0807 13.4219 11.726C13.4805 11.8727 13.5942 11.9753 13.7629 12.034C13.9315 12.0927 14.1075 12.0927 14.2909 12.034C14.4742 11.9753 14.6099 11.8727 14.6979 11.726C14.9765 11.0807 15.4165 10.5673 16.0179 10.186C16.6192 9.80467 17.2792 9.614 17.9979 9.614C18.6579 9.614 19.2629 9.77167 19.8129 10.087C20.3629 10.4023 20.7955 10.8277 21.1109 11.363C21.4262 11.8983 21.5839 12.4813 21.5839 13.112C21.5839 14.7107 21.0412 16.3093 19.9559 17.908C19.1345 19.1107 18.0345 20.284 16.6559 21.428C15.8345 22.1027 14.9692 22.7187 14.0599 23.276Z" fill="#030712"/>
</g>
<defs>
<clipPath id="clip0_6314_2028">
<rect width="21.69" height="22" fill="white" transform="matrix(1 0 0 -1 5.16797 27.5)"/>
</clipPath>
</defs>
</svg>
