<svg width="27" height="26" viewBox="0 0 27 26" fill="none" xmlns="http://www.w3.org/2000/svg">
<g clip-path="url(#clip0_6314_7938)">
<path d="M13.0556 11.102C12.2236 11.6393 11.3222 11.908 10.3516 11.908C9.71023 11.908 9.09056 11.7823 8.49256 11.531C7.89456 11.2797 7.3659 10.9287 6.90656 10.478C6.44723 10.0273 6.09623 9.50301 5.85356 8.90501C5.6109 8.30701 5.48956 7.68735 5.48956 7.04601C5.48956 6.04068 5.76256 5.13068 6.30856 4.31601C6.85456 3.50134 7.5739 2.90768 8.46656 2.53501C9.35923 2.16235 10.3082 2.07134 11.3136 2.26201C12.2496 2.43534 13.0729 2.87301 13.7836 3.57501C14.4942 4.27701 14.9406 5.10901 15.1226 6.07101C15.3046 7.03301 15.2136 7.97334 14.8496 8.89201C14.4856 9.81068 13.8876 10.5473 13.0556 11.102ZM11.8596 4.78401C11.4089 4.48935 10.9062 4.34201 10.3516 4.34201C9.62356 4.34201 8.98223 4.60201 8.42756 5.12201C7.90756 5.67668 7.64756 6.31801 7.64756 7.04601C7.64756 7.60068 7.79923 8.10334 8.10256 8.55401C8.4059 9.00468 8.8089 9.33401 9.31156 9.54201C9.81423 9.75001 10.3342 9.80201 10.8716 9.69801C11.4089 9.59401 11.8726 9.34701 12.2626 8.95701C12.6526 8.56701 12.8996 8.10334 13.0036 7.56601C13.1076 7.02868 13.0556 6.50868 12.8476 6.00601C12.6396 5.50335 12.3102 5.09601 11.8596 4.78401ZM3.46156 15.86C4.3629 14.9413 5.41156 14.235 6.60756 13.741C7.80356 13.247 9.05156 13 10.3516 13C11.6516 13 12.8996 13.247 14.0956 13.741C15.2916 14.235 16.3446 14.937 17.2546 15.847C18.1646 16.757 18.8666 17.81 19.3606 19.006C19.8546 20.202 20.1016 21.45 20.1016 22.75C20.1016 23.062 19.9889 23.322 19.7636 23.53C19.5382 23.738 19.2869 23.842 19.0096 23.842H13.6016C13.3069 23.842 13.0512 23.7337 12.8346 23.517C12.6179 23.3003 12.5096 23.0447 12.5096 22.75C12.5096 22.4553 12.6179 22.1997 12.8346 21.983C13.0512 21.7663 13.3069 21.658 13.6016 21.658H17.8656C17.7269 20.7567 17.4409 19.903 17.0076 19.097C16.5742 18.291 16.0109 17.5933 15.3176 17.004C14.6242 16.4147 13.8529 15.9597 13.0036 15.639C12.1542 15.3183 11.2702 15.158 10.3516 15.158C9.4329 15.158 8.5489 15.3183 7.69956 15.639C6.85023 15.9597 6.0789 16.4147 5.38556 17.004C4.69223 17.5933 4.1289 18.291 3.69556 19.097C3.26223 19.903 2.97623 20.7567 2.83756 21.658H7.10156C7.3789 21.658 7.6389 21.762 7.88156 21.97C8.08956 22.2127 8.19356 22.4727 8.19356 22.75C8.19356 23.0273 8.08956 23.2873 7.88156 23.53C7.6389 23.738 7.3789 23.842 7.10156 23.842H1.69356C1.41623 23.842 1.1649 23.738 0.939562 23.53C0.714229 23.322 0.601562 23.062 0.601562 22.75C0.601562 21.45 0.848563 20.2063 1.34256 19.019C1.83656 17.8317 2.5429 16.7787 3.46156 15.86Z" fill="#030712"/>
</g>
<defs>
<clipPath id="clip0_6314_7938">
<rect width="26" height="26" fill="white" transform="matrix(1 0 0 -1 0.441406 26)"/>
</clipPath>
</defs>
</svg>
