<svg width="33" height="33" viewBox="0 0 33 33" fill="none" xmlns="http://www.w3.org/2000/svg">
<rect x="0.519531" y="0.300049" width="32" height="32" rx="6" fill="#1DA1F2"/>
<g clip-path="url(#clip0_6391_480)">
<path d="M22.8748 13.0412C22.885 13.1833 22.885 13.3255 22.885 13.4676C22.885 17.8026 19.5855 22.7975 13.5551 22.7975C11.6972 22.7975 9.97131 22.2594 8.51953 21.3255C8.7835 21.3559 9.03728 21.366 9.31141 21.366C10.8444 21.366 12.2556 20.8483 13.3825 19.965C11.9408 19.9346 10.7327 18.9904 10.3165 17.6909C10.5195 17.7214 10.7226 17.7417 10.9358 17.7417C11.2302 17.7417 11.5246 17.701 11.7987 17.63C10.2962 17.3254 9.16925 16.0056 9.16925 14.4117V14.3711C9.60578 14.6148 10.1134 14.7671 10.6515 14.7874C9.76822 14.1985 9.18956 13.1935 9.18956 12.0564C9.18956 11.4473 9.35197 10.8889 9.63625 10.4016C11.2505 12.3914 13.6769 13.6909 16.3977 13.833C16.3469 13.5894 16.3164 13.3356 16.3164 13.0818C16.3164 11.2747 17.7784 9.80261 19.5956 9.80261C20.5398 9.80261 21.3926 10.1985 21.9916 10.8381C22.7327 10.696 23.4433 10.4219 24.0728 10.0463C23.8291 10.8077 23.3113 11.4473 22.6312 11.8534C23.2911 11.7823 23.9307 11.5995 24.5195 11.3458C24.0728 11.9955 23.5144 12.5741 22.8748 13.0412Z" fill="white"/>
</g>
<defs>
<clipPath id="clip0_6391_480">
<rect width="16" height="16" fill="white" transform="translate(8.51953 8.30005)"/>
</clipPath>
</defs>
</svg>
