<svg width="33" height="33" viewBox="0 0 33 33" fill="none" xmlns="http://www.w3.org/2000/svg">
<rect x="0.890625" y="0.300049" width="32" height="32" rx="6" fill="#0077B5"/>
<path d="M22.8906 9.30005H10.8875C10.3375 9.30005 9.89062 9.75317 9.89062 10.3094V22.2907C9.89062 22.8469 10.3375 23.3 10.8875 23.3H22.8906C23.4406 23.3 23.8906 22.8469 23.8906 22.2907V10.3094C23.8906 9.75317 23.4406 9.30005 22.8906 9.30005ZM14.1219 21.3H12.0469V14.6188H14.125V21.3H14.1219ZM13.0844 13.7063C12.4187 13.7063 11.8813 13.1657 11.8813 12.5032C11.8813 11.8407 12.4187 11.3 13.0844 11.3C13.7469 11.3 14.2875 11.8407 14.2875 12.5032C14.2875 13.1688 13.75 13.7063 13.0844 13.7063ZM21.9 21.3H19.825V18.05C19.825 17.275 19.8094 16.2782 18.7469 16.2782C17.6656 16.2782 17.5 17.1219 17.5 17.9938V21.3H15.425V14.6188H17.4156V15.5313H17.4437C17.7219 15.0063 18.4 14.4532 19.4094 14.4532C21.5094 14.4532 21.9 15.8375 21.9 17.6375V21.3Z" fill="white"/>
</svg>
