<svg width="27" height="26" viewBox="0 0 27 26" fill="none" xmlns="http://www.w3.org/2000/svg">
<g clip-path="url(#clip0_6314_2715)">
<path d="M22.6509 3.25H1.53891C1.27891 3.28467 1.06224 3.406 0.888906 3.614C0.715573 3.822 0.628906 4.056 0.628906 4.316C0.628906 4.576 0.715573 4.81433 0.888906 5.031C1.06224 5.24767 1.27891 5.37333 1.53891 5.408H5.72491L4.97091 15.002V15.184C4.97091 15.7733 5.18324 16.2803 5.60791 16.705C6.03257 17.1297 6.53957 17.342 7.12891 17.342H20.4149C20.9349 17.342 21.3899 17.1817 21.7799 16.861C22.1699 16.5403 22.4169 16.146 22.5209 15.678L24.7569 5.902C24.7916 5.694 24.8089 5.52933 24.8089 5.408C24.8089 4.80133 24.6009 4.29 24.1849 3.874C23.7689 3.458 23.2576 3.25 22.6509 3.25ZM20.4149 15.158H7.12891L7.88291 5.408H22.6509L20.4149 15.158ZM9.13091 22.75C9.73757 22.75 10.2532 22.5377 10.6779 22.113C11.1026 21.6883 11.3149 21.1727 11.3149 20.566C11.3149 19.9593 11.1026 19.448 10.6779 19.032C10.2532 18.616 9.73757 18.408 9.13091 18.408C8.54157 18.408 8.03457 18.616 7.60991 19.032C7.18524 19.448 6.97291 19.9593 6.97291 20.566C6.97291 21.1727 7.18524 21.6883 7.60991 22.113C8.03457 22.5377 8.54157 22.75 9.13091 22.75ZM18.8809 22.75C19.4876 22.75 20.0032 22.5377 20.4279 22.113C20.8526 21.6883 21.0649 21.1727 21.0649 20.566C21.0649 19.9593 20.8526 19.448 20.4279 19.032C20.0032 18.616 19.4876 18.408 18.8809 18.408C18.2916 18.408 17.7846 18.616 17.3599 19.032C16.9352 19.448 16.7229 19.9593 16.7229 20.566C16.7229 21.1727 16.9352 21.6883 17.3599 22.113C17.7846 22.5377 18.2916 22.75 18.8809 22.75Z" fill="#030712"/>
</g>
<defs>
<clipPath id="clip0_6314_2715">
<rect width="26" height="26" fill="white" transform="matrix(1 0 0 -1 0.46875 26)"/>
</clipPath>
</defs>
</svg>
