<svg width="36" height="35" viewBox="0 0 36 35" fill="none" xmlns="http://www.w3.org/2000/svg">
<rect y="0.959961" width="36" height="34" rx="8" fill="#16A34A"/>
<path d="M24.94 10.46H8.7C8.5 10.4866 8.33333 10.58 8.2 10.74C8.06667 10.9 8 11.08 8 11.28C8 11.48 8.06667 11.6633 8.2 11.83C8.33333 11.9966 8.5 12.0933 8.7 12.12H11.92L11.34 19.5V19.64C11.34 20.0933 11.5033 20.4833 11.83 20.81C12.1567 21.1366 12.5467 21.3 13 21.3H23.22C23.62 21.3 23.97 21.1766 24.27 20.93C24.57 20.6833 24.76 20.38 24.84 20.02L26.56 12.5C26.5867 12.34 26.6 12.2133 26.6 12.12C26.6 11.6533 26.44 11.26 26.12 10.94C25.8 10.62 25.4067 10.46 24.94 10.46ZM23.22 19.62H13L13.58 12.12H24.94L23.22 19.62ZM14.54 25.46C15.0067 25.46 15.4033 25.2966 15.73 24.97C16.0567 24.6433 16.22 24.2466 16.22 23.78C16.22 23.3133 16.0567 22.92 15.73 22.6C15.4033 22.28 15.0067 22.12 14.54 22.12C14.0867 22.12 13.6967 22.28 13.37 22.6C13.0433 22.92 12.88 23.3133 12.88 23.78C12.88 24.2466 13.0433 24.6433 13.37 24.97C13.6967 25.2966 14.0867 25.46 14.54 25.46ZM22.04 25.46C22.5067 25.46 22.9033 25.2966 23.23 24.97C23.5567 24.6433 23.72 24.2466 23.72 23.78C23.72 23.3133 23.5567 22.92 23.23 22.6C22.9033 22.28 22.5067 22.12 22.04 22.12C21.5867 22.12 21.1967 22.28 20.87 22.6C20.5433 22.92 20.38 23.3133 20.38 23.78C20.38 24.2466 20.5433 24.6433 20.87 24.97C21.1967 25.2966 21.5867 25.46 22.04 25.46Z" fill="white"/>
</svg>
