<svg width="33" height="33" viewBox="0 0 33 33" fill="none" xmlns="http://www.w3.org/2000/svg">
<rect x="0.199219" y="0.300049" width="32" height="32" rx="6" fill="#262626"/>
<path d="M16.2008 12.7063C14.2133 12.7063 12.6102 14.3094 12.6102 16.2969C12.6102 18.2844 14.2133 19.8875 16.2008 19.8875C18.1883 19.8875 19.7914 18.2844 19.7914 16.2969C19.7914 14.3094 18.1883 12.7063 16.2008 12.7063ZM16.2008 18.6313C14.9164 18.6313 13.8664 17.5844 13.8664 16.2969C13.8664 15.0094 14.9133 13.9625 16.2008 13.9625C17.4883 13.9625 18.5352 15.0094 18.5352 16.2969C18.5352 17.5844 17.4852 18.6313 16.2008 18.6313ZM20.7758 12.5594C20.7758 13.025 20.4008 13.3969 19.9383 13.3969C19.4727 13.3969 19.1008 13.0219 19.1008 12.5594C19.1008 12.0969 19.4758 11.7219 19.9383 11.7219C20.4008 11.7219 20.7758 12.0969 20.7758 12.5594ZM23.1539 13.4094C23.1008 12.2875 22.8445 11.2938 22.0227 10.475C21.2039 9.65627 20.2102 9.40002 19.0883 9.34377C17.932 9.27815 14.4664 9.27815 13.3102 9.34377C12.1914 9.3969 11.1977 9.65315 10.3758 10.4719C9.55391 11.2906 9.30078 12.2844 9.24453 13.4063C9.17891 14.5625 9.17891 18.0281 9.24453 19.1844C9.29766 20.3063 9.55391 21.3 10.3758 22.1188C11.1977 22.9375 12.1883 23.1938 13.3102 23.25C14.4664 23.3156 17.932 23.3156 19.0883 23.25C20.2102 23.1969 21.2039 22.9406 22.0227 22.1188C22.8414 21.3 23.0977 20.3063 23.1539 19.1844C23.2195 18.0281 23.2195 14.5656 23.1539 13.4094ZM21.6602 20.425C21.4164 21.0375 20.9445 21.5094 20.3289 21.7563C19.407 22.1219 17.2195 22.0375 16.2008 22.0375C15.182 22.0375 12.9914 22.1188 12.0727 21.7563C11.4602 21.5125 10.9883 21.0406 10.7414 20.425C10.3758 19.5031 10.4602 17.3156 10.4602 16.2969C10.4602 15.2781 10.3789 13.0875 10.7414 12.1688C10.9852 11.5563 11.457 11.0844 12.0727 10.8375C12.9945 10.4719 15.182 10.5563 16.2008 10.5563C17.2195 10.5563 19.4102 10.475 20.3289 10.8375C20.9414 11.0813 21.4133 11.5531 21.6602 12.1688C22.0258 13.0906 21.9414 15.2781 21.9414 16.2969C21.9414 17.3156 22.0258 19.5063 21.6602 20.425Z" fill="white"/>
</svg>
