<svg width="33" height="33" viewBox="0 0 33 33" fill="none" xmlns="http://www.w3.org/2000/svg">
<rect x="0.5" y="0.77002" width="32" height="32" rx="16" fill="white"/>
<g clip-path="url(#clip0_6314_4456)">
<path d="M18.4901 8.52002C17.7274 8.52002 16.9977 8.68502 16.3011 9.01502C15.6044 9.34502 15.0214 9.78869 14.5521 10.346C14.0974 9.75935 13.5254 9.30835 12.8361 8.99302C12.1467 8.67769 11.4061 8.52002 10.6141 8.52002C9.7194 8.52002 8.8834 8.74002 8.10606 9.18002C7.35806 9.60535 6.76406 10.1847 6.32406 10.918C5.88406 11.6514 5.66406 12.4434 5.66406 13.294C5.66406 14.8927 6.09673 16.4694 6.96206 18.024C7.6514 19.2707 8.61206 20.4807 9.84406 21.654C10.7241 22.5047 11.7067 23.2894 12.7921 24.008C13.4667 24.4774 13.9654 24.7854 14.2881 24.932C14.3467 24.9907 14.4347 25.02 14.5521 25.02C14.6694 25.02 14.7941 24.9907 14.9261 24.932C15.2781 24.756 15.7767 24.448 16.4221 24.008C17.4927 23.2894 18.4754 22.5047 19.3701 21.654C20.5874 20.4807 21.5407 19.2707 22.2301 18.024C23.0954 16.4694 23.5281 14.8927 23.5281 13.294C23.5281 12.4434 23.3007 11.6514 22.8461 10.918C22.3914 10.1847 21.7754 9.60169 20.9981 9.16902C20.2207 8.73635 19.3847 8.52002 18.4901 8.52002ZM14.5521 23.546C13.6134 22.974 12.7481 22.3654 11.9561 21.72C10.5627 20.5907 9.46273 19.4247 8.65606 18.222C7.57073 16.6234 7.02806 15.01 7.02806 13.382C7.02806 12.7514 7.19306 12.1684 7.52306 11.633C7.85306 11.0977 8.29306 10.6724 8.84306 10.357C9.39306 10.0417 9.9834 9.88402 10.6141 9.88402C11.3474 9.88402 12.0111 10.0747 12.6051 10.456C13.1991 10.8374 13.6354 11.3507 13.9141 11.996C13.9727 12.1427 14.0864 12.2454 14.2551 12.304C14.4237 12.3627 14.5997 12.3627 14.7831 12.304C14.9664 12.2454 15.1021 12.1427 15.1901 11.996C15.4687 11.3507 15.9087 10.8374 16.5101 10.456C17.1114 10.0747 17.7714 9.88402 18.4901 9.88402C19.1501 9.88402 19.7551 10.0417 20.3051 10.357C20.8551 10.6724 21.2877 11.0977 21.6031 11.633C21.9184 12.1684 22.0761 12.7514 22.0761 13.382C22.0761 14.9807 21.5334 16.5794 20.4481 18.178C19.6267 19.3807 18.5267 20.554 17.1481 21.698C16.3267 22.3727 15.4614 22.9887 14.5521 23.546Z" fill="#030712"/>
</g>
<defs>
<clipPath id="clip0_6314_4456">
<rect width="21.69" height="22" fill="white" transform="matrix(1 0 0 -1 5.66016 27.77)"/>
</clipPath>
</defs>
</svg>
