<svg width="27" height="26" viewBox="0 0 27 26" fill="none" xmlns="http://www.w3.org/2000/svg">
<g clip-path="url(#clip0_6314_7941)">
<path d="M7.28906 5.40801C6.50906 5.40801 5.7854 5.60301 5.11806 5.99301C4.45073 6.38301 3.92206 6.91168 3.53206 7.57901C3.14206 8.24634 2.94706 8.97001 2.94706 9.75001C2.94706 11.5353 3.4584 13.234 4.48106 14.846C5.31306 16.198 6.4744 17.4633 7.96506 18.642C9.29973 19.734 10.8337 20.696 12.5671 21.528L12.6971 21.58C14.4824 20.7307 16.0771 19.7427 17.4811 18.616L17.4291 18.642C18.9197 17.4633 20.0811 16.198 20.9131 14.846C21.9357 13.234 22.4471 11.5353 22.4471 9.75001C22.4471 8.97001 22.2521 8.24634 21.8621 7.57901C21.4721 6.91168 20.9434 6.38301 20.2761 5.99301C19.6087 5.60301 18.8851 5.40801 18.1051 5.40801C17.4117 5.40801 16.7574 5.55968 16.1421 5.86301C15.5267 6.16634 15.0067 6.58234 14.5821 7.11101C14.1574 7.63968 13.8844 8.23334 13.7631 8.89201C13.7111 9.13468 13.5854 9.33834 13.3861 9.50301C13.1867 9.66768 12.9571 9.75001 12.6971 9.75001C12.4371 9.75001 12.2074 9.66768 12.0081 9.50301C11.8087 9.33834 11.6831 9.13468 11.6311 8.89201C11.5097 8.23334 11.2367 7.63968 10.8121 7.11101C10.3874 6.58234 9.8674 6.16634 9.25206 5.86301C8.63673 5.55968 7.9824 5.40801 7.28906 5.40801ZM12.6971 23.842C12.5411 23.8247 12.3851 23.79 12.2291 23.738C12.1424 23.7033 11.9951 23.634 11.7871 23.53C9.8804 22.6287 8.1384 21.5453 6.56106 20.28L6.61306 20.332C4.93173 19.0147 3.60573 17.576 2.63506 16.016C1.4044 14.04 0.789062 11.9513 0.789062 9.75001C0.789062 8.57134 1.0794 7.48368 1.66006 6.48701C2.24073 5.49034 3.0294 4.70168 4.02606 4.12101C5.02273 3.54034 6.1104 3.25001 7.28906 3.25001C8.38106 3.25001 9.3994 3.49701 10.3441 3.99101C11.2887 4.48501 12.0731 5.15668 12.6971 6.00601V6.03201C13.3211 5.16534 14.1054 4.48501 15.0501 3.99101C15.9947 3.49701 17.0131 3.25001 18.1051 3.25001C19.2837 3.25001 20.3714 3.54034 21.3681 4.12101C22.3647 4.70168 23.1534 5.49034 23.7341 6.48701C24.3147 7.48368 24.6051 8.57134 24.6051 9.75001C24.6051 11.9513 23.9897 14.04 22.7591 16.016C21.7884 17.576 20.4624 19.0147 18.7811 20.332C17.2384 21.5453 15.5657 22.594 13.7631 23.478L13.6071 23.53C13.1911 23.738 12.8877 23.842 12.6971 23.842Z" fill="#030712"/>
</g>
<defs>
<clipPath id="clip0_6314_7941">
<rect width="26" height="26" fill="white" transform="matrix(1 0 0 -1 0.628906 26)"/>
</clipPath>
</defs>
</svg>
