<svg width="28" height="29" viewBox="0 0 28 29" fill="none" xmlns="http://www.w3.org/2000/svg">
<path d="M22.0842 4.24603H3.43616C2.85749 4.24603 2.31616 4.38603 1.81216 4.66603C1.30816 4.94604 0.906823 5.3287 0.608156 5.81404C0.30949 6.29937 0.160156 6.83137 0.160156 7.41003V21.41C0.160156 21.9887 0.304823 22.53 0.594156 23.034C0.88349 23.538 1.27549 23.9394 1.77016 24.238C2.26482 24.5367 2.82016 24.686 3.43616 24.686H22.0842C22.6628 24.686 23.2042 24.5414 23.7082 24.252C24.2122 23.9627 24.6135 23.5707 24.9122 23.076C25.2108 22.5814 25.3602 22.026 25.3602 21.41V7.41003C25.3602 6.83137 25.2108 6.29937 24.9122 5.81404C24.6135 5.3287 24.2122 4.94604 23.7082 4.66603C23.2042 4.38603 22.6628 4.24603 22.0842 4.24603ZM3.43616 6.01003H22.0842C22.4948 6.01003 22.8308 6.15003 23.0922 6.43003C23.3535 6.71004 23.4842 7.0367 23.4842 7.41003V8.11003L13.4602 14.522C13.2175 14.634 12.9655 14.69 12.7042 14.69C12.4428 14.69 12.1908 14.634 11.9482 14.522L2.03616 8.11003V7.41003C2.03616 6.99937 2.16682 6.66337 2.42816 6.40203C2.68949 6.1407 3.02549 6.01003 3.43616 6.01003ZM22.0842 22.922H3.43616C3.04416 22.922 2.71282 22.7774 2.44216 22.488C2.17149 22.1987 2.03616 21.8767 2.03616 21.522V10.21L11.1362 16.034C11.5282 16.3514 12.0695 16.51 12.7602 16.51C13.4508 16.51 13.9922 16.3514 14.3842 16.034L23.4842 10.21V21.41C23.4842 21.8207 23.3535 22.1754 23.0922 22.474C22.8308 22.7727 22.4948 22.922 22.0842 22.922Z" fill="#111827"/>
</svg>
