<svg width="12" height="12" viewBox="0 0 12 12" fill="none" xmlns="http://www.w3.org/2000/svg">
<g clip-path="url(#clip0_6314_4322)">
<path d="M3.8616 5.74797L0.861598 2.74797C0.781598 2.67597 0.689598 2.63997 0.585598 2.63997C0.481598 2.63997 0.389598 2.67597 0.309598 2.74797C0.229598 2.81997 0.191598 2.90997 0.195598 3.01797C0.199598 3.12597 0.237598 3.21997 0.309598 3.29997L3.0576 6.04797L0.309598 8.79597C0.237598 8.87597 0.201598 8.96997 0.201598 9.07797C0.201598 9.18597 0.237598 9.27597 0.309598 9.34797C0.333598 9.37197 0.369598 9.39397 0.417598 9.41397C0.465598 9.43397 0.513598 9.44397 0.561598 9.44397C0.609598 9.44397 0.657598 9.43397 0.705598 9.41397C0.753598 9.39397 0.789598 9.37197 0.813598 9.34797L3.8136 6.34797C3.9976 6.10797 4.0136 5.90797 3.8616 5.74797Z" fill="#9CA3AF"/>
</g>
<defs>
<clipPath id="clip0_6314_4322">
<rect width="11.69" height="12" fill="white" transform="matrix(1 0 0 -1 0.191406 12)"/>
</clipPath>
</defs>
</svg>
