<svg width="27" height="27" viewBox="0 0 27 27" fill="none" xmlns="http://www.w3.org/2000/svg">
<g clip-path="url(#clip0_6314_7930)">
<path d="M21.7556 22.394L17.6476 18.286C18.3582 17.454 18.9129 16.5137 19.3116 15.465C19.7102 14.4163 19.9096 13.3287 19.9096 12.202C19.9096 10.486 19.4762 8.89134 18.6096 7.418C17.7776 5.97934 16.6422 4.83534 15.2036 3.98601C13.7302 3.11934 12.1269 2.686 10.3936 2.686C8.66023 2.686 7.0569 3.11934 5.58356 3.98601C4.1449 4.818 3.0009 5.94467 2.15156 7.366C1.2849 8.85667 0.851562 10.4643 0.851562 12.189C0.851562 13.9137 1.2849 15.5127 2.15156 16.986C2.98356 18.4247 4.11023 19.5687 5.53156 20.418C7.02223 21.302 8.63423 21.744 10.3676 21.744C11.4942 21.744 12.5819 21.5447 13.6306 21.146C14.6792 20.7473 15.6196 20.1927 16.4516 19.482L20.5596 23.59C20.6116 23.642 20.6896 23.6897 20.7936 23.733C20.8976 23.7763 21.0016 23.798 21.1056 23.798C21.2096 23.798 21.3136 23.7763 21.4176 23.733C21.5216 23.6897 21.5996 23.642 21.6516 23.59C21.8596 23.382 21.9679 23.174 21.9766 22.966C21.9852 22.758 21.9116 22.5673 21.7556 22.394ZM2.56756 12.098C2.56756 10.6767 2.9229 9.35934 3.63356 8.146C4.3269 6.98467 5.25423 6.05734 6.41556 5.36401C7.6289 4.65334 8.94623 4.29801 10.3676 4.29801C11.7889 4.29801 13.1062 4.662 14.3196 5.39001C15.4982 6.08334 16.4342 7.02801 17.1276 8.224C17.8209 9.42 18.1676 10.72 18.1676 12.124C18.1676 13.528 17.8036 14.8367 17.0756 16.05C16.3822 17.2287 15.4376 18.1647 14.2416 18.858C13.0456 19.5513 11.7542 19.898 10.3676 19.898C8.96356 19.9327 7.64623 19.5947 6.41556 18.884C5.25423 18.208 4.32256 17.2633 3.62056 16.05C2.91856 14.8367 2.56756 13.5193 2.56756 12.098Z" fill="black"/>
</g>
<defs>
<clipPath id="clip0_6314_7930">
<rect width="26" height="26" fill="white" transform="matrix(1 0 0 -1 0.589844 26.19)"/>
</clipPath>
</defs>
</svg>
