<svg width="27" height="27" viewBox="0 0 27 27" fill="none" xmlns="http://www.w3.org/2000/svg">
<g clip-path="url(#clip0_6557_759)">
<path d="M21.2556 22.3939L17.1476 18.2859C17.8582 17.4539 18.4129 16.5135 18.8116 15.4649C19.2102 14.4162 19.4096 13.3285 19.4096 12.2019C19.4096 10.4859 18.9762 8.89119 18.1096 7.41785C17.2776 5.97919 16.1422 4.83519 14.7036 3.98585C13.2302 3.11919 11.6269 2.68585 9.89356 2.68585C8.16023 2.68585 6.5569 3.11919 5.08356 3.98585C3.6449 4.81785 2.5009 5.94452 1.65156 7.36585C0.784896 8.85652 0.351562 10.4642 0.351562 12.1889C0.351562 13.9135 0.784896 15.5125 1.65156 16.9859C2.48356 18.4245 3.61023 19.5685 5.03156 20.4179C6.52223 21.3019 8.13423 21.7439 9.86756 21.7439C10.9942 21.7439 12.0819 21.5445 13.1306 21.1459C14.1792 20.7472 15.1196 20.1925 15.9516 19.4819L20.0596 23.5899C20.1116 23.6419 20.1896 23.6895 20.2936 23.7329C20.3976 23.7762 20.5016 23.7979 20.6056 23.7979C20.7096 23.7979 20.8136 23.7762 20.9176 23.7329C21.0216 23.6895 21.0996 23.6419 21.1516 23.5899C21.3596 23.3819 21.4679 23.1739 21.4766 22.9659C21.4852 22.7579 21.4116 22.5672 21.2556 22.3939ZM2.06756 12.0979C2.06756 10.6765 2.4229 9.35919 3.13356 8.14585C3.8269 6.98452 4.75423 6.05719 5.91556 5.36385C7.1289 4.65319 8.44623 4.29785 9.86756 4.29785C11.2889 4.29785 12.6062 4.66185 13.8196 5.38985C14.9982 6.08319 15.9342 7.02785 16.6276 8.22385C17.3209 9.41985 17.6676 10.7199 17.6676 12.1239C17.6676 13.5279 17.3036 14.8365 16.5756 16.0499C15.8822 17.2285 14.9376 18.1645 13.7416 18.8579C12.5456 19.5512 11.2542 19.8979 9.86756 19.8979C8.46356 19.9325 7.14623 19.5945 5.91556 18.8839C4.75423 18.2079 3.82256 17.2632 3.12056 16.0499C2.41856 14.8365 2.06756 13.5192 2.06756 12.0979Z" fill="black"/>
</g>
<defs>
<clipPath id="clip0_6557_759">
<rect width="26" height="26" fill="white" transform="matrix(1 0 0 -1 0.0898438 26.1899)"/>
</clipPath>
</defs>
</svg>
