<svg width="27" height="26" viewBox="0 0 27 26" fill="none" xmlns="http://www.w3.org/2000/svg">
<g clip-path="url(#clip0_6314_2698)">
<path d="M21.2556 22.204L17.1476 18.096C17.8582 17.264 18.4129 16.3237 18.8116 15.275C19.2102 14.2263 19.4096 13.1387 19.4096 12.012C19.4096 10.296 18.9762 8.70134 18.1096 7.228C17.2776 5.78934 16.1422 4.64534 14.7036 3.796C13.2302 2.92934 11.6269 2.496 9.89356 2.496C8.16023 2.496 6.5569 2.92934 5.08356 3.796C3.6449 4.628 2.5009 5.75467 1.65156 7.176C0.784896 8.66667 0.351562 10.2743 0.351562 11.999C0.351562 13.7237 0.784896 15.3227 1.65156 16.796C2.48356 18.2347 3.61023 19.3787 5.03156 20.228C6.52223 21.112 8.13423 21.554 9.86756 21.554C10.9942 21.554 12.0819 21.3547 13.1306 20.956C14.1792 20.5573 15.1196 20.0027 15.9516 19.292L20.0596 23.4C20.1116 23.452 20.1896 23.4997 20.2936 23.543C20.3976 23.5863 20.5016 23.608 20.6056 23.608C20.7096 23.608 20.8136 23.5863 20.9176 23.543C21.0216 23.4997 21.0996 23.452 21.1516 23.4C21.3596 23.192 21.4679 22.984 21.4766 22.776C21.4852 22.568 21.4116 22.3773 21.2556 22.204ZM2.06756 11.908C2.06756 10.4867 2.4229 9.16934 3.13356 7.956C3.8269 6.79467 4.75423 5.86734 5.91556 5.174C7.1289 4.46334 8.44623 4.108 9.86756 4.108C11.2889 4.108 12.6062 4.472 13.8196 5.2C14.9982 5.89334 15.9342 6.838 16.6276 8.034C17.3209 9.23 17.6676 10.53 17.6676 11.934C17.6676 13.338 17.3036 14.6467 16.5756 15.86C15.8822 17.0387 14.9376 17.9747 13.7416 18.668C12.5456 19.3613 11.2542 19.708 9.86756 19.708C8.46356 19.7427 7.14623 19.4047 5.91556 18.694C4.75423 18.018 3.82256 17.0733 3.12056 15.86C2.41856 14.6467 2.06756 13.3293 2.06756 11.908Z" fill="black"/>
</g>
<defs>
<clipPath id="clip0_6314_2698">
<rect width="26" height="26" fill="white" transform="matrix(1 0 0 -1 0.0898438 26)"/>
</clipPath>
</defs>
</svg>
