<svg width="14" height="15" viewBox="0 0 14 15" fill="none" xmlns="http://www.w3.org/2000/svg">
<g clip-path="url(#clip0_6314_1958)">
<path d="M12.5017 9.55237L11.1689 8.79445L12.3188 8.11499C12.5278 7.98432 12.6062 7.70992 12.4756 7.50085C12.358 7.29179 12.0836 7.21339 11.8614 7.34405L10.2804 8.27179L7.88916 6.89979L10.2804 5.51472L11.8614 6.45552C11.9398 6.49472 12.0182 6.52085 12.0966 6.52085C12.2404 6.52085 12.3972 6.44245 12.4756 6.29872C12.6062 6.08965 12.5278 5.81525 12.3188 5.68459L11.1689 5.00512L12.5017 4.24725C12.7108 4.11659 12.7761 3.84219 12.6585 3.63312C12.5409 3.42405 12.2665 3.34565 12.0444 3.46325L10.7246 4.23419L10.7116 2.90139C10.7116 2.65312 10.5025 2.45712 10.2673 2.45712C10.019 2.45712 9.82303 2.66619 9.82303 2.91445L9.8361 4.74379L7.44489 6.12885V3.37179L9.05209 2.47019C9.26116 2.33952 9.33956 2.06512 9.22196 1.85605C9.09129 1.64699 8.82996 1.56859 8.60782 1.68619L7.44489 2.33952V0.810722C7.44489 0.562455 7.24889 0.366455 7.00062 0.366455C6.75236 0.366455 6.55636 0.562455 6.55636 0.810722V2.33952L5.39342 1.68619C5.18436 1.56859 4.90996 1.64699 4.77929 1.85605C4.66169 2.06512 4.74009 2.33952 4.94916 2.47019L6.55636 3.37179V6.12885L4.16516 4.74379L4.17822 2.91445C4.19129 2.66619 3.98222 2.45712 3.74702 2.45712C3.73396 2.45712 3.73396 2.45712 3.73396 2.45712C3.49876 2.45712 3.28969 2.65312 3.28969 2.90139L3.27662 4.23419L1.95689 3.46325C1.73476 3.34565 1.46036 3.42405 1.34276 3.63312C1.22516 3.84219 1.29049 4.11659 1.51262 4.24725L2.83236 5.00512L1.68249 5.68459C1.47342 5.81525 1.39502 6.08965 1.52569 6.29872C1.60409 6.44245 1.76089 6.52085 1.90462 6.52085C1.98302 6.52085 2.06142 6.49472 2.13982 6.45552L3.72089 5.51472L6.11209 6.89979L3.72089 8.28485L2.13982 7.34405C1.91769 7.21339 1.65636 7.29179 1.52569 7.50085C1.39502 7.70992 1.47342 7.98432 1.68249 8.11499L2.83236 8.79445L1.51262 9.55237C1.29049 9.68303 1.22516 9.95743 1.34276 10.1665C1.42116 10.3102 1.57796 10.3886 1.73476 10.3886C1.80009 10.3886 1.87849 10.3756 1.95689 10.3233L3.27662 9.56543L3.28969 10.8982C3.28969 11.1465 3.49876 11.3425 3.73396 11.3425C3.73396 11.3425 3.73396 11.3425 3.74702 11.3425C3.98222 11.3425 4.19129 11.1334 4.17822 10.8852L4.16516 9.05579L6.55636 7.67072V10.4278L4.94916 11.3294C4.74009 11.4601 4.66169 11.7345 4.77929 11.9436C4.87076 12.0873 5.01449 12.1657 5.17129 12.1657C5.24969 12.1657 5.32809 12.1526 5.39342 12.1134L6.55636 11.4601V12.9889C6.55636 13.2372 6.75236 13.4332 7.00062 13.4332C7.24889 13.4332 7.44489 13.2372 7.44489 12.9889V11.4601L8.60782 12.1134C8.67316 12.1526 8.75156 12.1657 8.82996 12.1657C8.98676 12.1657 9.13049 12.0873 9.22196 11.9436C9.33956 11.7345 9.26116 11.4601 9.05209 11.3294L7.44489 10.4278V7.67072L9.8361 9.05579L9.82303 10.8852C9.82303 11.1334 10.019 11.3425 10.2542 11.3425C10.2673 11.3425 10.2673 11.3425 10.2673 11.3425C10.5156 11.3425 10.7116 11.1465 10.7116 10.8982L10.7246 9.56543L12.0444 10.3233C12.1228 10.3756 12.2012 10.3886 12.2665 10.3886C12.4233 10.3886 12.5801 10.3102 12.6585 10.1665C12.7761 9.95743 12.7108 9.68303 12.5017 9.55237Z" fill="#0891B2"/>
</g>
<defs>
<clipPath id="clip0_6314_1958">
<rect width="14" height="14" fill="white" transform="translate(0 0.179932)"/>
</clipPath>
</defs>
</svg>
